<?xml version="1.0" standalone="no"?>
<!DOCTYPE svg PUBLIC "-//W3C//DTD SVG 1.1//EN" "http://www.w3.org/Graphics/SVG/1.1/DTD/svg11.dtd" >
<svg xmlns="http://www.w3.org/2000/svg">
<metadata></metadata>
<defs>
<font id="tikihutregular" horiz-adv-x="751" >
<font-face units-per-em="2048" ascent="1638" descent="-410" />
<missing-glyph horiz-adv-x="614" />
<glyph horiz-adv-x="0" />
<glyph unicode="&#xd;" horiz-adv-x="614" />
<glyph unicode=" "  horiz-adv-x="614" />
<glyph unicode="&#x09;" horiz-adv-x="614" />
<glyph unicode="&#xa0;" horiz-adv-x="614" />
<glyph unicode="!" horiz-adv-x="378" d="M41 -20q14 119 0 262q74 2 74 -31v-12q-2 -8 -2 -13q0 -20 39 -20q6 68 14 72q27 2 51 2q27 2 29 0q4 0 5 -12.5t7 -20.5q39 -4 49 10q12 2 13.5 10.5t3.5 8.5q4 0 14 -7q0 -37 -6 -98t-6 -82q0 -39 12 -57q-10 -6 -21 -6q-14 0 -35.5 11t-29.5 13q0 2 -8 37 q-6 23 -27 21q-2 -4 -10 -58q-4 -33 -41 -28q-2 8 -6 8t-17.5 -8.5t-21.5 -8.5q-18 0 -23 47q-14 0 -18 -22.5t-39 -17.5zM70 340q31 266 30 555q0 219 -18 385q-8 84 12 84q14 2 19 -10q6 -18 12 -23q6 16 12 32.5t25 16.5q6 -2 10 -24q10 -10 8 -33t8 -31q8 -2 10.5 4.5 t4.5 10.5q12 35 35 28q12 -4 21 10.5t17 14.5q8 -10 24.5 -5t23.5 -3q-2 -17 4 -33q-57 -199 -58 -494q0 -281 56 -483q0 -14 -7 -14q-6 0 -22 18.5t-18 13.5q-2 -14 -5.5 -28.5t-19.5 -16.5q-4 0 -14 21q-12 8 -11.5 17t-11.5 16q-8 2 -10 -4.5t-4 -12.5 q-4 -12 -22.5 -22.5t-33.5 -7.5q-16 18 -38 12q-14 -6 -29 -12q-6 8 -10 18z" />
<glyph unicode="&#x22;" horiz-adv-x="620" d="M41 1374q20 8 51 -8q0 -2 2 -27q0 -14 15 -16q4 4 16 35q8 20 22 20q6 0 13 -2q-2 -16 17.5 -22t23.5 -15q33 29 47 21q-16 -209 0 -350q0 -18 -21 -29q-12 -4 -16 15.5t-12 19.5h-7.5t-19.5 -4l-16 -4q-12 -41 -34 -37t-40 -2l-19 -6q-6 0 -12 34q6 27 6 84 q0 -14 -16 293zM381 987q16 201 2 348q-2 20 20 29q14 0 33 -28l19 -27q2 0 6 2q-2 2 12 26q14 41 37 37q25 -2 48.5 -4t21.5 -22q-16 -250 -11 -369q-31 -14 -45 -6q-6 23 -8 24q-6 12 -20 15q-6 -6 -7 -13q0 -4 3 -10v-6q0 -12 -25 -14q0 10 -4 10q-2 0 -8 -2h-6 q-14 0 -19 29q-6 2 -23.5 -11.5t-25.5 -7.5z" />
<glyph unicode="#" horiz-adv-x="1511" d="M41 942q0 6 2 12q16 -2 22.5 17.5t14.5 21.5q-25 39 -19 49q172 -12 261 -14q-16 139 -58 297q6 2 51 2q4 -14 17 -14q4 0 15 3t15 3q10 0 11 -14q2 -6 10 -9.5t6 -7.5q6 -14 21 -14q8 0 10 12t4 23q2 2 7 5t32 5q18 4 24 16q12 0 17.5 -14t27.5 -4q41 18 37 -4 q-23 -109 -39 -277v-14q217 -4 412 2q-14 168 -33 276q-2 16 -6 33q6 8 35 3t37 3q8 0 18.5 -14t20.5 -10q23 6 35 -29q10 -6 24 -4q12 10 5 27.5t3 25.5q0 10 13 25q18 0 24 -17.5t12 -33.5q6 4 11.5 24.5t21.5 18.5q14 0 17 -11q0 -4 -2 -45q-27 -113 -39 -268 q123 4 256 12q23 8 26 -2q4 -12 -9 -21t-13 -16q0 -6 2 -10q-4 -8 -4 -10q37 -10 33.5 -29.5t4 -47t7.5 -32.5q0 -20 -35 -26q-90 -2 -279 -2q-4 -172 5 -318q149 -2 335 -14q6 -12 -8 -20q-20 -8 -22 -15q-10 -2 -19.5 -3t-11.5 -15q6 -6 29 -15q16 -6 16 -18q0 -6 -4 -14 q-12 0 -22.5 -17.5t-39.5 -19.5q0 -2 29 -27q20 -16 17 -26q-102 8 -287 20q20 -195 39 -328q-4 -6 -8 -14q-8 10 -19 20q-2 -12 -4 -19t-6 -7t-11.5 5t-11.5 5t-10 -4q-8 2 -16 16.5t-21 12.5q-20 -4 -30 32q-12 18 -15 19q-12 -8 -11 -32.5t-13 -33.5q0 -8 -13 -20 q-18 2 -23 19.5t-9 33.5q0 4 -13.5 -15.5t-17.5 -19.5q-6 0 -6 15q18 199 22 325q-207 6 -418 -2q14 -174 60 -332q-12 4 -25.5 -11t-21.5 -15q-14 -2 -23 12q-23 -2 -59 55q-16 16 -21 13q2 -14 -14 -33t-29 -19q-8 0 -18 18.5t-25 14.5q-18 -4 -10 -18q-2 -18 -22 -23 q-29 -6 -31 -8q-12 -10 -12 23q35 158 49 313q-217 -12 -230 -16q-23 -8 -28 2q-4 14 10 23t14 16q0 4 -2 10q4 4 4 8q-37 8 -35 29q31 16 31 34q0 12 -22.5 33t-18.5 27q176 12 291 14q8 145 -2 324q-197 -4 -295 -8q-8 20 10 51h27q14 0 16 14q-4 4 -35 17q-23 10 -22 24z M522 526q293 4 434 2q4 137 -2 316q-139 2 -428 2v-35q-2 -25 -2 -33q-2 -115 -2 -252z" />
<glyph unicode="$" horiz-adv-x="1273" d="M41 1122q-6 6 0 15q12 4 35.5 12t36.5 12q-8 61 -15 90q12 16 29 11q4 -6 15.5 -5.5t13.5 -3.5q29 -29 32 -26q2 10 13 22q8 -2 24.5 7.5t26.5 5.5q8 10 24 4q2 -20 5 -58h4q8 27 39 64q23 2 49 -17l-13 -30q57 10 177 26q-8 66 -27 199q-2 16 -6 33q6 8 33.5 3t35.5 3 q8 0 17.5 -14.5t25 -9.5t29.5 -27q6 -6 25 -4q10 8 3 25.5t5 25.5q0 10 10 22q16 0 23.5 -16t13.5 -31q4 2 10 25q6 16 21 14q14 2 16 -8q0 -4 -2 -43q-18 -74 -31 -182q238 6 459 -27q4 -6 4 -10q0 -6 -8 -9t-10 -10q-10 0 -29 -4v-10q-2 -6 -2 -10q18 -6 34.5 -12.5 t10.5 -26.5q-20 0 -20 -12q0 -4 2 -10.5t2 -10.5q0 -10 -17 -10q-2 -12 6.5 -29.5t8.5 -23.5q0 -10 -17 -15l-10 4q10 -53 27 -96q23 -55 16 -74q-23 -14 -33 -6q-12 39 -26 39q-6 0 -15.5 -7t-11.5 -7t-4 4q-18 -23 -31 -23q-4 8 -16 23q-8 -4 -16.5 -28.5t-26.5 -20.5 q-8 2 -9 16t-14 12l-4 11q16 109 21 196q-115 18 -273 19q-117 0 -413 -25q-23 -147 -23 -321q248 2 512 -39q250 -38 418 -97q4 -14 -10 -18q-20 -8 -25 -12l-25 4q-14 2 -18 -10q4 -6 26.5 -19.5t22.5 -25.5q0 -4 -4 -13q-14 4 -23.5 -14.5t-17.5 -20.5q20 -37 10 -49 q-10 6 -34 17q2 -133 20 -230q4 -4 4 -16q6 -33 25 -105l18 -71q-31 -18 -47 -6l-6 6q-4 -4 -17 -8q-193 -66 -380 -93q0 -6 26 -196q-4 -6 -8 -15q-8 8 -18 19q0 -10 -3.5 -17.5t-7.5 -7.5t-10 5.5t-10 5.5q-6 0 -10 -5q-8 2 -16.5 15.5t-18.5 11.5q-20 -4 -31 33l-4 12 t-10 4q-10 -6 -10.5 -29.5t-12.5 -31.5q0 -10 -12 -23q-18 2 -23.5 19.5t-9.5 34.5q0 4 -12 -15.5t-19 -19.5q-4 2 -4 14q6 59 15 174q-193 0 -402 57q-10 2 -10 7q0 8 18.5 25.5t14.5 17.5q-14 4 -28.5 8t-16.5 18q0 4 18 13q0 2 4 6q-25 8 -30 14q-4 98 -29 299 q0 31 12 23l23 -7q10 -4 12 -22q-4 -14 10 -19q14 -2 24.5 16.5t16.5 18.5q14 0 29.5 -17.5t13.5 -31.5q8 -8 21 12q2 4 6 31q2 12 20 10q10 14 21 13q12 0 10 -23t-6 -45q-2 -51 4 -209q166 -66 336 -65q166 0 317 61q25 147 29 379q-279 88 -553 88q-160 0 -313 -31 q-23 -4 -31 43q-2 12 16.5 15.5t12.5 17.5q-12 4 -13 12q0 4 6.5 10.5l10.5 10.5q0 10 -20.5 14t-16.5 17q-8 20 4 34q23 2 63 4v5q0 47 -18 286q-25 -4 -41 -10q-23 -8 -27 2q-4 12 9.5 20.5t13.5 14.5t-2 10q4 4 4 23l-23 2q-12 0 -10 14z" />
<glyph unicode="%" horiz-adv-x="1515" d="M6 -18q0 6 4 20q705 694 1202 1309q6 2 24.5 12t29.5 8q-2 -16 14 -16q4 0 14 2h13q12 0 8 -14q-2 -6 5 -9.5t3 -9.5q8 -14 16 -14q6 0 15 12q0 8 20 27q6 2 19 -2q8 -2 18 12q20 -4 21 -29q0 -6 36.5 10.5t36.5 2.5q0 -5 -4 -11q-758 -793 -1200 -1327q-10 4 -27.5 -9 t-25.5 -13q-12 -2 -17 14q-18 0 -16 23q2 35 2 38q-2 6 -16.5 13.5t-22.5 1.5q-4 -27 -43 -43q-10 -6 -14 -6q-8 0 -11.5 20.5t-17.5 18.5q-18 -6 -18 -19q-6 -18 -27 -20q-29 -2 -33 -7q-8 -4 -8 5zM362 944q8 154 0 262q74 2 74 -30q0 -4 -2 -13v-10q0 -20 39 -20 q6 66 14 71h50q29 2 24 2q8 0 9 -11t10 -21q39 -4 49 10q12 2 12 16q0 2 2 2q4 -2 14 -8q2 -37 -6 -96q-6 -66 -6 -84q0 -38 12 -58q-10 -6 -20 -6q-12 0 -34.5 12.5t-27 14.5t-12.5 35q-4 25 -24 22q-4 -6 -11 -57q-4 -33 -41 -29q-2 8 -8 8q-4 0 -17 -8t-22 -8 q-16 0 -20 45q-14 0 -19.5 -22.5t-38.5 -18.5zM870 86q14 121 0 262q76 2 76 -31q0 -4 -2 -12v-10q0 -23 39 -23q6 68 12 74h52q33 2 32 -2q2 -23 8 -31q41 -2 52 13q10 2 11 9t3 7q4 0 14 -6q0 -35 -6 -96.5t-6 -83.5q0 -40 12 -58q-10 -6 -20 -6q-14 0 -35.5 11.5 t-30.5 13.5q0 2 -8 37q-6 23 -26 20q-4 -6 -11 -55q-4 -35 -39 -31q-2 10 -8 10q-4 0 -17.5 -9t-21.5 -9q-16 0 -20 47q-14 0 -19.5 -22.5t-40.5 -18.5z" />
<glyph unicode="&#x26;" horiz-adv-x="1347" d="M10 459q150 137 332 241q-35 182 -117 404q-16 -4 -47 -12q-25 -6 -28 2q-4 14 10 23t14 16q0 4 -4 10q4 2 4 22q-2 2 -22 2q-12 0 -13 13l-10 12q-6 6 0 14q16 6 49 15q-12 27 -37 73q8 20 27 19q4 -6 14 -2q12 4 17 2q35 -18 39 -17q0 23 8 25t21.5 16.5t25.5 12.5 q2 10 22 10q10 -8 13 -29q6 -27 6 -28l4 2q2 29 22 73q23 8 54 0q-4 -66 -4 -100q209 41 585 51q2 -6 2 -10q0 -6 -8 -11t-10 -12q-12 -2 -26.5 -3t-14.5 -15l41 -14q25 -10 18 -33q-20 0 -20 -14v-9q2 -6 2 -10q0 -10 -16 -10q-2 -12 7 -30.5t9 -24.5q0 -10 -16 -17 q-6 2 -19.5 4t-19.5 2q-31 -111 -39 -209l8 2q14 -6 18 -32q4 -8 -10 -17.5t-16 -13.5v-12q23 -14 22 -19q0 -6 -8 -12q0 -12 10 -12h9q6 2 10 2q8 0 10 -11q8 -49 -16 -53l-31 -4v-2q-20 -10 -31 -4q-135 -23 -250 -66q100 -154 385 -458q25 10 70 32q20 283 20 330 q0 10 -3 31.5t-1 28.5q2 10 13 10q12 2 20 -15q18 0 21 -12q2 -27 4 -31q14 -20 20 -14q0 14 15.5 31.5t29.5 17.5q8 0 17.5 -19.5t25.5 -17.5q16 8 10 19q4 18 17 20q23 6 22 6q6 4 11 -4q2 -8 0 -18q-14 -61 -33 -262q-18 -221 -25 -256q-14 -6 -71 -23q-12 -4 -33 -12 q31 -31 88 -92q6 -10 6 -14q0 -2 -4 -3q-2 0 -13.5 3.5t-15.5 3.5h-2q2 -6 13 -19q-4 -10 -17.5 -8t-19.5 -10q-8 -2 -19.5 5t-15.5 7q-6 0 -10 -4q-18 -14 -43 14l-9 8q-6 4 -12 0q-4 -6 -4 -12t8 -20.5t8 -22.5q0 -6 -4 -12q0 -23 -4 -25t-10 -2q-10 0 -24.5 15.5 t-16.5 17.5q-2 4 -5 -20.5t-7 -24.5q-4 2 -11 10q-39 68 -90 146q-147 -27 -299 -27q-133 0 -280 20l-8 -8q-14 2 -15.5 -12t-11.5 -16q-23 -6 -35 18.5t-22 28.5q-2 -12 -17 -25q-16 -2 -39 21q-4 -14 -32.5 -20.5t-34.5 -16.5q-18 -14 -49 4l14 74q33 168 24 354 q-14 14 -26 4q-10 8 -10 18t14 27.5t16 26.5q-6 6 -12 6t-17.5 -7.5t-15.5 -7.5q-4 2 -26 0q-16 -2 -19 13zM303 168q150 -51 305 -51q97 0 193 20q-125 168 -373 436q-70 -45 -123 -92q-18 -154 -2 -313zM422 1130q23 -197 102 -337q68 29 183 69q26 117 26 275 q-164 6 -311 -7z" />
<glyph unicode="'" horiz-adv-x="288" d="M41 1374q20 8 51 -8q0 -2 2 -27q0 -14 15 -16q4 4 16 35q8 20 22 20q6 0 13 -2q-2 -16 17.5 -22t23.5 -15q33 29 47 21q-16 -209 0 -350q0 -18 -21 -29q-12 -4 -16 15.5t-12 19.5h-7.5t-19.5 -4l-16 -4q-12 -41 -34 -37t-40 -2l-19 -6q-6 0 -12 34q6 27 6 84 q0 -14 -16 293z" />
<glyph unicode="(" horiz-adv-x="419" d="M20 610q0 590 345 983q8 -10 14 -10q4 0 18.5 15.5t34.5 11.5q8 -2 3 -24.5t24 -31.5q10 10 21.5 20.5t25.5 6.5q4 -4 0 -22q2 -6 2 -11q0 -6 -6 -18t-6 -19q0 -6 2 -10q12 4 18 4q10 0 8 -10q-2 -6 -2 -10q-145 -104 -227 -355q-80 -233 -80 -520q0 -274 74 -499 q82 -244 229 -363q-4 -10 -14 -10q-4 0 -14.5 3t-14.5 3t-6 -4l14 -41q-8 -18 -14 -18q4 0 -37 32q-29 14 -33 6q12 -25 -6 -53q-8 -14 -12 -14l-2 16q-2 15 -14 15q-8 0 -19.5 -6.5t-15.5 -6.5l-29 23q-281 381 -281 917z" />
<glyph unicode=")" horiz-adv-x="395" d="M-102 -258q0 10 16 25q121 102 188 356q63 236 64 524q0 283 -62 502q-68 240 -186 326q4 16 25.5 12t21.5 2q2 12 -5 23.5t-7 19.5q0 12 18 12q20 2 23 -6q10 -14 24 -14q12 0 17 12q-12 16 -10 25l12 24q2 2 6 2q6 0 20.5 -13t20.5 -13t10 6q14 12 41 2 q242 -422 242 -914q0 -551 -291 -995q-10 2 -18.5 -11.5t-16.5 -13.5q-10 0 -10 11q2 18 2 20q-2 8 -20 6q-6 -12 -14.5 -26.5t-22.5 -12.5q-4 2 -9 21q-23 14 -22 31q0 6 4 17t4 15q0 6 -4 11q-12 -4 -25 -4q-37 0 -36 18z" />
<glyph unicode="*" horiz-adv-x="505" d="M41 1223q23 27 37 26q6 0 14 -9t12 -9q8 0 21 14q-31 31 -31 39q0 -2 21 25q12 14 14 14l6 -4t15 -4q16 20 14 28q4 8 -2 13q-2 2 10 6q37 -68 80 -119q20 29 61 107q27 -23 27 -37q0 -6 -9 -14.5t-9 -12.5q0 -8 14 -20q31 31 37 30q-2 0 24 -20q16 -12 17 -14 q0 -2 -4 -7.5t-4 -13.5q18 -18 28 -14q6 -4 12 2q2 2 7 -10q-55 -29 -103 -66q58 -39 115 -57q-2 -14 -17.5 -20.5t-27.5 -12.5q-6 0 -16.5 6t-16.5 6t-10 -6q2 -8 16.5 -21.5t14.5 -23.5q0 -6 -9 -16q-8 4 -11 -12.5t-11 -16.5t-25 12q-4 -4 -4 -8t5 -9t5 -9q0 -8 -12 -19 q-25 39 -86 117q-39 -57 -47 -127q-14 2 -23 20q-6 12 -12 25q0 4 7.5 15.5t7.5 17.5t-7 10q-8 -2 -21 -16.5t-24 -14.5q-8 0 -16 11q4 8 -12.5 10t-16.5 12q0 8 13 25q-8 6 -17 0q-10 -6 -14 -7q-6 0 -17 11q66 41 115 92q-61 47 -135 76z" />
<glyph unicode="+" horiz-adv-x="1411" d="M10 680q0 6 2 12q16 -2 22.5 17.5t14.5 23.5q-25 39 -18 49q309 -23 600 -22q-6 227 -49 506l-4 32q2 4 6 5q4 0 16 -7.5t21 -7.5q14 0 28 17q8 0 18.5 -14.5t20.5 -10.5q18 6 27 -16q6 -6 24 -2q10 8 8 19t9 22q2 6 20 8q18 0 21.5 -12.5t7.5 -24.5q6 4 11 24.5t20 18.5 q16 0 18 -10q0 -4 -2 -43q-45 -188 -51 -502q29 0 121 2q422 10 442 16q23 8 27 -2t-5.5 -23.5t-9.5 -25.5q0 -10 5 -23.5t5 -19.5q0 -12 -8 -24l-8 -13q6 -2 15.5 1t11.5 3q4 -2 4 -10q8 -10 0 -33q-6 -25 -25 -24q-195 -4 -573 0q10 -299 55 -604q-4 -8 -8 -15l-19 19 q-2 -10 -4 -17.5t-8 -7.5q-2 0 -9 4t-11 4t-11 -4q-8 2 -16 16.5t-20 12.5q-20 -4 -31 33q-12 18 -14 18q-12 -8 -11.5 -32.5t-13.5 -32.5q0 -10 -12 -21q-18 2 -23.5 19.5t-9.5 33.5q0 4 -13.5 -15.5t-17.5 -19.5q-6 0 -6 15q31 369 33 594q-360 0 -619 -11q-6 18 11 52h26 t17 14q-6 6 -32 15.5t-26 23.5z" />
<glyph unicode="," horiz-adv-x="391" d="M41 -6q14 119 0 262q78 2 78 -20l-2 -5v-6q0 -14 41 -14q6 70 13 77t54 9q33 2 35 -16q8 -37 12 -43q20 -2 26.5 13t12.5 30q10 2 39 -17q0 -35 -6 -102.5t-6 -91.5q0 -46 12 -64q-14 -10 -49 -112q-14 -6 -33 -23q8 -18 11 -45q-20 -51 -31 -49q-80 43 -111 39l-2 -2 q0 -4 31 62.5t31 96.5q0 20 -17 23q-2 8 -8 8q-4 0 -17.5 -8t-19.5 -8q-18 0 -22 47q-14 0 -25.5 -22.5t-46.5 -18.5z" />
<glyph unicode="-" horiz-adv-x="593" d="M10 664q0 6 2 12q16 -2 22.5 17.5t14.5 23.5q-27 37 -18 47q154 -20 256 -21q106 0 250 21q25 4 26 -4q4 -12 -9 -21.5t-13 -15.5q0 -4 2 -10q-4 -4 -4 -8q36 -17 34 -29q-4 -20 3.5 -49t7.5 -33q0 -20 -35 -27q-299 14 -535 -10q-6 20 11 53h26t17 15q-6 6 -32 15 t-26 24z" />
<glyph unicode="." horiz-adv-x="378" d="M41 -6q14 119 0 262q74 2 74 -31v-12q-2 -8 -2 -12q0 -20 39 -21q6 68 14 74q27 0 52.5 1t27.5 -1q4 0 5 -12.5t7 -20.5q37 -4 49 12q12 2 13.5 9.5t3.5 7.5q4 0 14 -6q0 -37 -6 -98.5t-6 -82.5q0 -39 12 -57q-10 -6 -21 -6q-14 0 -35.5 11.5t-29.5 13.5q0 2 -8 36 q-6 23 -27 21q-2 -4 -10 -57q-4 -33 -41 -29q-2 8 -6 8t-17.5 -8t-21.5 -8q-18 0 -23 47q-14 0 -18 -22.5t-39 -18.5z" />
<glyph unicode="/" horiz-adv-x="843" d="M-10 -12q141 182 332 647q160 389 249 702q27 4 62 9q12 -2 12 -20.5t4 -22.5q14 18 29 38q23 29 37 25q2 -6 4 -23q4 -6 4 -12t-5 -17t-5 -18q0 -6 4 -12q4 -2 16 10q20 25 37 17q8 -6 21.5 15.5t21.5 21.5q2 -12 25 -9h16q-137 -246 -291 -620q-166 -401 -262 -735 q-39 4 -96 2q-6 -4 -10 -4t-8.5 11t-10.5 15q0 -2 4 27q2 14 -12 18q-4 -2 -27 -41q-16 -31 -39 -28q-2 16 -14 20q-18 2 -22 8q-31 -31 -43 -26q-4 4 -9 4q-2 0 -9 -3t-9 -3q-4 0 -6 4z" />
<glyph unicode="0" horiz-adv-x="1468" d="M16 201q0 2 9.5 6t9.5 18q0 12 -6 31q2 10 14 10t16 2q-25 25 -22 33q2 2 16 2q4 2 8 2t12.5 -4t14.5 -4q4 0 8 2q-6 10 -6 16t8 4h6q27 -31 48 -43q-47 203 -48 414q0 215 50 381q-20 -4 -62 -16q-23 -8 -26 2q-4 14 10 23.5t14 15.5q0 4 -2 10q2 10 4 22q-12 0 -24.5 1 t-10.5 14q18 14 19 20q0 4 -19.5 11.5t-17.5 23.5q104 41 205 64q41 59 98 98q6 -8 10 -8q2 0 13.5 12t25.5 8q6 -2 2 -18.5t19 -22.5q27 23 34 19v-15q4 -8 -3 -21.5t-5 -19.5q143 18 305 19q154 0 310 -17q0 2 2 2q-2 0 -10.5 12.5t-8.5 22.5q0 12 13 13q18 0 24 -17 q37 -12 41 0q-12 16 -2 39q4 10 10 10q4 0 15.5 -9t19.5 -9q10 0 19 14q6 4 14 0q8 -6 14 -10q23 -33 64 -102q98 -20 178 -50q4 -14 -4 -18q-14 -6 -17 -10q2 0 -26 2q-14 2 -19 -10q6 -8 30 -20.5t24 -25.5q0 -6 -4 -14q-18 4 -39 0q-25 -4 -25 -14q0 -8 20 -21 q8 -12 15 -32q0 -2 -12.5 -4.5t-10.5 -6.5q0 -6 6 -20q2 -10 0 -10q-4 0 -9 3t-11 6t-10 3q39 -160 39 -338q0 -180 -39 -350q8 0 18 8q16 0 17 -10q0 -4 -17 -29q-4 -14 25 -18q6 4 10 4q6 0 14.5 -7.5t14.5 -9.5q16 -4 16 -10q0 -4 -6 -11t-6 -11q0 -7 8 -13q4 -4 -6 -28 q-76 -72 -178 -119q-45 -90 -105 -154q-8 2 -14 -8t-12 -10q-8 0 -15.5 17.5t-23.5 15.5q-6 -10 -11.5 -20.5t-17.5 -8.5q0 4 -4 14q-18 10 -19 23q0 4 4.5 13t4.5 11q-2 6 -4 9q-8 -2 -19 -3q-27 0 -27 15q0 2 3 6q-135 -25 -283 -25q-133 0 -260 21l8 -8q-4 -12 -20 -6 q-14 4 -17 0q-6 -20 -2 -31q-6 -14 -12 -15q4 0 -27 25q-18 14 -24 6q10 -20 -5 -41q-6 -10 -12 -10q-2 0 -11 11.5t-20 11.5q-8 0 -20 -7q-8 -4 -27 15q-23 39 -53 114q-137 57 -194 127q-8 10 -9 15zM285 664q0 -270 67 -469q170 -43 371 -43q238 0 405 61q80 225 80 498 q0 220 -59 376q-193 45 -442 46q-184 0 -361 -25q-61 -182 -61 -444z" />
<glyph unicode="1" horiz-adv-x="980" d="M14 86q-4 31 23 68q111 18 340 24q51 399 29 866q-145 -61 -265 -122q-25 -12 -26 -11q-4 6 -4 13q0 4 5 14t5 14q0 6 -8 13q2 4 2 10q-39 -4 -45 12q2 12 -25 33.5t-25 30.5q227 123 564 268q0 4 4 4q2 0 2 -2l127 55q6 -6 6 -10q0 -6 -10.5 -17.5t-10.5 -17.5 q-14 -14 -8 -31q4 -2 31 -2q14 0 16 -22q-16 -6 -15 -20.5t-5 -20.5q43 -27 41 -47q-43 -16 -133 -51q-39 -297 -39 -572q0 -213 24 -385q220 -4 351 -16q4 -12 -11 -19q-20 -10 -22 -14h-27q-14 0 -16 -14q4 -4 35 -19q20 -8 20 -22q0 -6 -2 -13q-10 2 -10 -8v-6q2 -6 2 -8 q0 -18 -29 -16q-2 -10 9.5 -17.5t11.5 -15.5t-4 -17q-80 16 -273 27l13 -43q-29 -20 -54 -6q0 10 -16 24q-6 -2 -20.5 -14t-24.5 -12q-4 0 -10 2q-4 14 -24.5 17t-23.5 32q-35 -2 -40 -22.5t-13 -20.5q-10 0 -33 10q-4 -2 -13 -10t-15 -8t-9.5 4t-12.5 17.5t-5 27.5l2 8 q-152 0 -301 -10q-27 -2 -29 2q-6 31 29 31v26q-37 8 -35 29z" />
<glyph unicode="2" horiz-adv-x="1357" d="M14 1200q2 14 17.5 20.5t29.5 10.5q4 0 -13 10t-17 14q2 4 12 7q53 18 107 30q10 31 45 115q14 2 18 -12q4 -23 8 -25q0 -2 -4 -27q-4 -14 8 -18q8 4 22.5 25.5t26.5 21.5q6 0 15 -6q-4 -16 8 -24.5t12 -16.5q41 16 60 6q125 16 254 17q184 0 360 -33q-8 14 -8 20 q0 10 57 -8q-12 20 -12 31q0 12 17.5 17t13.5 16q20 6 30 -17q10 -29 19 -33q12 4 18 54q18 4 28.5 -13.5t20.5 -19.5q4 25 17 24q10 0 22 -16q39 -51 51 -172q20 -215 -8 -395q18 -20 19 -35q0 -16 -25 -27q33 -4 35 -4q12 -6 8 -26q0 -25 -8 -31q-18 -4 -51 -18 q2 -8 23.5 -12.5t21.5 -20.5q-8 -12 -15.5 -23.5t-25.5 -11.5q-10 0 -23 -2q-432 -68 -899 -178q-18 -109 0 -236q182 25 406 25q348 -1 633 -56q4 -14 -8.5 -27.5t-24.5 -25.5h-29q-18 2 -20 -12q6 -6 37 -14q25 -4 24 -19q0 -4 -2 -10q-10 0 -15 -13.5t-26 -13.5 q-12 0 -29 4q-2 -10 25 -21t27 -26q0 -4 -2 -10q-182 55 -676 55q-309 0 -504 -34q-25 -4 -29 4q-2 12 11.5 21t13.5 15t-2 11q2 4 6 8q-37 14 -35 31q-8 12 -14 22q-12 20 -13 29q0 6 3 8q25 8 77 21q-14 78 -14 172q0 129 27 292q-2 14 -6 29q-2 12 6 21q4 6 24 0 q10 -23 13 -23q4 2 6 8l8 19q4 10 12 6q10 -35 29 -80h4q0 4 2 18q2 68 20 68q8 0 14.5 -19.5t12.5 -19.5q8 0 22.5 22.5t16.5 20.5q53 0 43 -35q-12 -25 -16 -37q418 66 710 156q14 51 27 221q4 57 -8 109q-207 92 -469 92q-170 0 -328 -43q-31 -117 -31 -221 q2 -20 -24 -27q-14 0 -20.5 17.5t-22.5 13.5l-6 6q-23 -31 -37 -27q-4 4 -8 4q-8 0 -21.5 -11t-17.5 -11q-2 0 -5 2q-12 98 -4 178q-23 -10 -63 -35q-23 -4 -23 11q0 6 5.5 20t5.5 20t-2 9q0 8 13 15t11 17q-4 20 27 29q4 2 10 4t4 10q-6 10 -26.5 8.5t-28.5 10.5 q-8 0 -21 10z" />
<glyph unicode="3" horiz-adv-x="1327" d="M10 35q0 4 8.5 9t12.5 11q2 0 26 2q14 0 17 15q-2 2 -41 18q-25 8 -17 31q16 0 21.5 19.5t13.5 23.5q-27 31 -26 55q0 20 30 14q264 -55 570 -55q137 0 366 15l10 2q10 219 11 415q-401 0 -645 -10q-6 12 30 66q-8 4 -12 18t-20 12q-2 6 -3 13q0 12 26 21t32 15 q-2 14 -16.5 15.5t-26.5 1.5q-2 6 -19.5 14t-11.5 21q233 14 473 14q98 0 189 -2q-2 180 -23 330q-115 10 -242 10q-375 0 -694 -86q-20 -6 -20 8q0 4 4 19.5t4 23.5q0 4 -2 8q0 8 13 15.5t11 17.5q-4 20 27 29l8 3q8 3 8 9q-6 10 -27.5 9t-29.5 12q-8 0 -20 10q2 14 17 20 t30 10q4 0 -13.5 10.5t-17.5 14.5q2 4 12 6q250 57 631 58q135 0 262 -9q8 8 17 25q8 6 14 6q8 0 20.5 -9t16.5 -11q8 6 18 6q12 0 33 -27l20 -2q2 12 28 16.5t30 18.5q16 4 28.5 -12.5t18.5 -18.5q4 8 18 23q23 12 54 -9q-8 -23 -11 -40q6 0 17.5 -2.5t15.5 -4.5 q16 -6 35 -20q0 -8 -10.5 -11t-5.5 -14q14 -10 14 -16t-21 -14q-14 -14 -12 -21q10 -1 37 -26l-11 -6q-10 -5 -10 -17t15 -31q2 -27 4 -26q-4 -12 -29 -11q-25 8 -80 21q-20 -129 -32 -303q33 -2 94 -8q12 -4 12 -17q0 -8 -10 -29.5t-10 -31.5q0 -12 12 -19q-2 -23 -14 -22 h-39q-6 -2 -6 -8q0 -8 14 -9q39 0 35 -45q0 -2 -29 -2h-66q4 -207 37 -397q31 2 72 12q20 4 29 -16q2 -12 -12.5 -21.5t-14.5 -15.5t2 -10q-4 -4 -4 -23l23 -2q12 0 10 -14q4 -6 4 -19q0 -25 -10 -36q-10 -2 -31 -7.5t-31 -9.5q4 -18 21 -69q6 -18 -6 -19q-29 0 -33 19 q-12 -4 -43 -21q-6 2 -12.5 13.5t-16.5 9.5q-25 -2 -27 18l-2 8t-10 8q-10 -6 -11 -21t-13 -22q0 -8 -13 -18q-14 2 -18 18.5t-6 30.5q-6 -2 -13.5 -19.5t-21.5 -13.5q-8 2 -13.5 16.5t-15.5 16.5q-178 -20 -387 -20q-301 0 -592 39q-2 6 -2 10z" />
<glyph unicode="4" horiz-adv-x="1366" d="M12 643l74 6q-4 397 -35 641q10 2 16.5 15.5t14.5 15.5q14 4 21.5 -13.5t11.5 -19.5q4 14 8 29.5t18 17.5q4 0 13 -18q10 -6 11 -27.5t11 -27.5q6 -2 9 6l3 8q4 35 27 29q12 -2 18.5 11t12.5 15q4 -2 8 -2t12 8.5t13 8.5q4 0 6 -2.5t8 -2.5t18.5 3.5t18.5 3.5q8 0 8 -9 q0 -4 -2 -10q-70 -283 -88 -672q332 12 788 -2q0 295 -41 658q6 2 52 2q4 -14 16 -15.5t23.5 -3.5t11.5 -16q4 -20 -2 -35q4 -4 12 -4q8 27 29 27q16 37 34 47q8 4 19 0q14 -4 16 -4q8 0 13 10q12 0 17 -15.5t28 -5.5q41 18 36 -4q-18 -90 -43 -276q-20 -154 -28 -287 q-4 -59 -4 -88l123 -6q6 -14 -9 -21q-20 -10 -22 -13t-27 -3q-14 0 -16 -12q4 -4 39 -21q25 -10 16 -32q-16 2 -23.5 -17.5t-13.5 -23.5q27 -37 19 -47l-86 6q6 -188 73 -453q-10 4 -24 -11.5t-23 -15.5q-14 -2 -22 15q-27 -2 -58 53q-14 20 -20 14q2 -25 -31 -45 q-8 -6 -14 -6q-8 0 -17.5 18.5t-25.5 16.5q-18 -6 -10 -21q-2 -18 -21 -20q-29 -6 -33 -8q-12 -8 -12 22q39 229 47 453q-356 23 -637 8q-51 -2 -151 -6q0 -6 2 -18v-21q-2 -14 -23 -14q-4 0 -15 -12.5t-17 -12.5q-4 0 -6.5 7.5t-8.5 7.5q-4 0 -12 -4.5t-19 -2.5 q-12 2 -14 27q-4 18 -18 -4q2 -20 -6 -25q-25 -4 -27 15q2 16 2 53q-10 0 -27 -4q-23 -8 -26 2q-4 14 9 23.5t13 15.5q0 4 -2 10q2 2 6 8q-37 8 -34 29q6 12 6 24q0 16 -10.5 41t-6.5 29z" />
<glyph unicode="5" horiz-adv-x="1345" d="M10 102q0 2 21 13q6 10 26.5 9t28.5 9q2 8 -6 10l-8 2q-31 8 -27 29q2 12 -11.5 19.5t-13.5 13.5q2 2 7 43q2 29 30 22q14 -6 39 -18q-4 92 6 156q2 2 4 2q4 0 17.5 -10.5t21.5 -10.5q4 0 9 4q14 4 36 -28q4 4 7 8q16 -4 22 13.5t21 17.5q27 -6 24 -27q0 -100 27 -201 q172 -53 346 -53q250 0 487 106q6 47 6 99q0 137 -38 268q-256 31 -521 31q-270 0 -450 -35q-25 -4 -29 2q-2 14 11.5 23.5t13.5 15.5q0 4 -2 10q2 2 6 8q-37 8 -35 29q-8 12 -14 25q-12 18 -13 28q0 4 2 6q59 25 101 33q4 199 18 344l-41 -4q-16 10 -33 6q-8 8 -16 19.5 t-16 19.5q0 8 31.5 9t27.5 12q-6 23 29 34q6 2 12 4.5t4 10.5q-8 10 -32.5 8t-32.5 8q-8 0 -23 12q0 16 17.5 23.5l31.5 13.5q-4 4 -23.5 10.5t-17.5 20.5q0 14 11 16l43 -2q207 -31 546 -30q258 0 510 16q47 2 39 4q2 0 31 -24q4 -16 -21 -23q-16 -16 -16 -20q4 -2 53 -7 q10 -6 16 -25l7 -20q0 -8 -43 -22q31 -6 31 -27q0 -10 -9.5 -28.5t-9.5 -20.5q-403 43 -919 16q-18 -150 -2 -319q104 10 229 10q315 0 723 -59q4 -14 -10 -29q-20 -23 -23 -24q-2 0 -29 2q-16 0 -18 -13l2 -2q2 12 25 -10q33 -6 32 -20q0 -6 -2 -13h-8q14 -23 10 -39 q29 -125 29 -264q0 -260 -94 -414q-10 -12 -33 -8q-25 4 -19.5 17.5t-13.5 19.5q-8 -6 -13 -18.5t-15 -12.5q-6 0 -15 2q2 10 -8 11q-2 0 -8 -2h-12q-8 0 -9 6q0 8 13 28q-57 -25 -58 -8q0 6 9 21q6 6 12 18q-182 -66 -428 -65q-162 0 -330 30q-2 -4 -12 -12t-6 -22 q-8 -6 -17 -7q-10 0 -25.5 21.5t-21.5 26.5q-12 -4 -8 -21q4 -23 4 -25q-4 -4 -8 -26q-4 -14 -19 -12q-16 39 -45 112q-35 10 -106 33q-12 2 -12 6t17 14.5t13 12.5q-14 4 -29.5 9t-17.5 19z" />
<glyph unicode="6" horiz-adv-x="1445" d="M14 1288q0 12 25 15q223 27 553 26q356 0 817 -31q6 -14 -8 -20q-20 -10 -22.5 -13t-26.5 -3q-14 0 -17 -13q4 -4 39 -20q25 -10 17 -33q-16 2 -23.5 -17.5t-13.5 -23.5q25 -35 18 -47q-453 33 -700 33q-127 0 -248 -6l-43 -2q-2 -25 -12 -115q0 -4 -7 -240 q217 -16 408 -16q207 0 408 18q-2 20 -11 60q4 2 9 2q12 0 57 -33q4 8 18.5 13t12.5 22q23 6 31 -12.5t14 -36.5l18 2q0 12 2 32q6 2 17 23q6 14 20 8q10 -178 10 -338q0 -287 -33 -475q14 -8 11 -20l-15 -2q-10 -53 -20 -91q-4 -12 -8 -12t-14.5 10.5t-16.5 10.5 q-8 0 -14 -13q-25 2 -25 15v39q0 8 -8 8t-8 -15q0 -39 -45 -34q-10 4 -2 26q4 12 4 37q-246 -25 -451 -24q-170 0 -319 16l-12.5 -12.5t-18.5 -10.5q-14 -2 -23 13q-25 -2 -41 22q-18 4 -53 10q-2 -2 -7 -6t-7 -6q-8 -6 -14 -6t-14.5 12.5t-10.5 14.5l-23 6q-10 -10 -8 -19 q-2 -18 -20 -22q-27 -6 -31 -8q-12 -8 -12 24q2 14 8 39q-35 8 -84 23q-6 8 0 14l10 12q-2 14 9.5 15.5t23.5 3.5q0 10 -6 22q2 4 2 11q0 6 -14.5 14t-10.5 20q4 23 27 17q27 -6 68 -8q27 172 32 364q-16 -2 -30 -6q-6 6 -2 30.5t-5 32.5q0 6 13.5 15.5t8.5 23t17 23.5 l-2 24q-27 0 -32 9q-8 0 -21 10q0 14 15.5 20t29.5 13q-4 4 -21.5 9t-15.5 17q-2 14 6 17q6 2 37 -2q-10 176 -39 331q-45 0 -57 -4q-23 -8 -27 2q-4 14 9.5 23.5t13.5 15.5q0 4 -2 10q2 2 6 9q-37 14 -35 28q4 6 4 13q0 14 -19.5 37.5t-19.5 29.5zM360 575q0 -242 29 -401 q180 -10 326 -10q262 0 481 33q8 217 -2 385q-215 16 -393 16q-209 0 -441 -23z" />
<glyph unicode="7" horiz-adv-x="1329" d="M6 1128q0 4 8.5 9.5t12.5 11.5q12 0 26.5 1t16.5 15q-2 2 -41 19q-25 8 -17 30q16 0 21.5 19.5t13.5 23.5q-27 31 -27 58q0 20 31 12q426 -37 623 -37q98 0 278 8q248 10 312 29q27 8 39 -16q23 2 22 -17q0 -16 -16 -43q-8 -2 -17 -6q-16 -8 -15 -20.5t-22.5 -25.5 t-23.5 -23q0 -6 10 -17q0 -4 -51 -24q-401 -510 -717 -1137q-4 -12 -14 -31q-10 4 -21.5 -3t-19.5 -5q-20 6 -31 23q-41 -27 -51 -23q-4 4 0 23q-2 6 -2 10q0 8 7 20.5t7 18.5t-2 10l-18 -6q-63 -76 -78 -64q-8 8 -21 2q-14 -8 -20 -6q0 10 -74 17q307 375 750 1106 q-135 -8 -285 -9q-317 0 -592 37q-2 6 -2 10z" />
<glyph unicode="8" horiz-adv-x="1474" d="M31 143q0 4 12 17.5t12 32.5q0 12 -6 30q2 10 15.5 9t17.5 1q-8 6 -17.5 14.5t-7.5 18.5q2 2 17 2q10 8 20 0q14 248 -24 463q0 16 12 29q20 -2 21 -13.5t3 -11.5t10.5 14.5t12.5 16.5q4 0 23 -8q12 -6 20 4q0 2 2 6q-2 14 33 14q2 66 2 316l-12 -4q-25 -6 -29 2 q-4 14 9 23t13 16q0 4 -2 10q4 2 5 22q-2 2 -19.5 2t-15.5 13q16 14 16 20q0 4 -18.5 11.5t-16.5 23.5q12 4 37 13.5t37 13.5q2 27 4 84q12 4 23 18q6 8 14 4q0 -12 1 -26.5t15 -16.5q2 2 17 39q10 25 32 16q-2 -16 12.5 -20t18.5 -12q23 16 66 -11q-4 -12 -8 -32 q152 25 333 24q158 0 353 -18q2 16 -2 47q-8 23 2 26q39 2 46 -15t15 -9q4 10 6 18.5t25 10.5q16 -20 43 -21q10 0 28.5 4t24.5 4q20 0 23 -26v-33q-2 -20 -2 -31q14 -2 41.5 -6t39.5 -6q4 -14 -4 -16q-14 -6 -16 -11q-2 0 -25 2q-16 0 -20 -12q4 -6 33 -20q20 -10 20 -23 q0 -6 -4 -14q-61 8 -61 -15q0 -10 22 -22q4 -10 12 -33q0 -4 -11 -6t-11 -4q0 -4 6 -21q6 -10 0 -10q-4 2 -10 4q-12 4 -19 8q0 -184 -2 -303l11 2q16 2 18 -4l-2 -10q23 4 35 20q25 -2 24 -14v-39q0 -6 6 -6q8 0 9 12q2 39 47 35q10 -3 2 -26q-4 -41 -10 -107 q-35 -217 -31 -397q4 -4 12 -8q16 -4 17 -11q0 -2 -6.5 -9t-6.5 -13t7.5 -12.5t3.5 -14.5q-6 -6 -11 -14l-12 -12q10 -94 27 -166q-27 -16 -29 -17q-14 0 -27 41q-10 -14 -20 -28.5t-8 -30.5q-23 -8 -27 16l-8 43q-16 4 -31 -45q-8 -4 -17.5 7.5t-19.5 15.5l-2 55 q-225 -106 -536 -106q-240 0 -437 63q-49 -4 -65 8q-2 -6 -17.5 -12t-13.5 -23q-23 -8 -31 17q-16 39 -18 41q-14 -2 -15 -16.5t-1 -26.5q-8 -4 -16.5 7t-20.5 15l8 80q-16 12 -45 37q-6 8 -6 16zM250 549q-12 -184 10 -352q188 -78 463 -78q342 0 516 127q0 100 -2 321 q-199 14 -391 15q-287 0 -596 -33zM383 1135q-14 -178 18 -381q328 -29 713 6q22 172 4 373q-160 29 -360 28q-197 0 -375 -26z" />
<glyph unicode="9" horiz-adv-x="1390" d="M35 528q6 6 10 13q-2 12 10 14q23 2 25 4q0 2 -2 12.5t-4 10.5q2 4 2 8q0 8 -15.5 16t-13.5 21q23 53 31 53l8 -2q2 188 -12 625q-2 23 2 47q8 4 16 4l39 -23l37 -2q18 2 33 21q27 -2 24 -27h19q6 18 43 14q10 -4 4 -18q260 -23 461 -23q266 0 520 39q16 2 31 4 q6 -6 4 -22q-4 -25 -4 -29q20 0 26 6q12 8 12 -22q-6 -33 -18 -98v-3q0 -4 -4 -12l-6 -37q4 -4 2 -10q0 -10 -6 -14q-33 -217 -35 -416l24 6q31 6 31 -8q0 -16 -24 -45q8 -4 14 -23.5t22 -17.5q2 -6 2 -12q0 -14 -20 -23q-29 -12 -35 -18q2 -12 8 -11q12 4 17 2q4 -10 2 -14 q-12 -23 -12 -22l-25 -2q6 -135 29 -287q-2 0 12 2q25 8 29 -2q4 -12 -10.5 -21.5t-14.5 -15.5t2 -10q0 -2 -1 -5t-3 -5q37 -9 35 -29q-8 -14 0 -51q6 -31 -15 -39q4 -18 15 -58q-6 -2 -51 -2q-4 16 -17.5 16.5t-25 2.5t-11.5 14v14l-39 -4q-14 -35 -32 -45q-8 -4 -27 2 q-14 4 -20 -8q-12 0 -18.5 14.5t-27.5 4.5q-8 -6 -17 -9.5t-15 -1.5t-4 15l2 12q-211 -16 -428 -16q-322 0 -576 34q-6 12 11.5 20.5t19.5 14.5h26t17 15q-6 6 -31.5 15t-25.5 23q0 6 2 13q16 -2 22 17.5t14 23.5q-29 35 -20 49q264 -35 528 -35q197 0 420 18l49 5l6 67 q6 68 7 213q-246 -20 -453 -20q-197 0 -365 18q-39 -12 -51 -2q-2 -6 -17 -12t-13 -23q-23 -6 -32 14.5t-18 41.5l-6 2q-8 -4 -8 -19q-2 -23 -2 -24q-8 -4 -17.5 7t-19.5 15l-2 29q-16 4 -53 12q-8 8 -2 14zM262 664q270 -20 510 -21q183 0 326 12q0 287 -31 465 q-449 33 -799 4q-29 -240 -6 -460z" />
<glyph unicode=":" horiz-adv-x="378" d="M41 -6q14 119 0 262q74 2 74 -31v-12q-2 -8 -2 -12q0 -20 39 -21q6 68 14 74q27 0 52.5 1t27.5 -1q4 0 5 -12.5t7 -20.5q37 -4 49 12q12 2 13.5 9.5t3.5 7.5q4 0 14 -6q0 -37 -6 -98.5t-6 -82.5q0 -39 12 -57q-10 -6 -21 -6q-14 0 -35.5 11.5t-29.5 13.5q0 2 -8 36 q-6 23 -27 21q-2 -4 -10 -57q-4 -33 -41 -29q-2 8 -6 8t-17.5 -8t-21.5 -8q-18 0 -23 47q-14 0 -18 -22.5t-39 -18.5zM41 860q14 123 0 262q74 2 74 -28v-13q-2 -10 -2 -12q0 -20 39 -20q6 66 14 71h51q33 2 33 -2q4 -23 8 -28q39 -4 49 10q10 2 13 10l2 8l16 -8 q0 -35 -6 -96.5t-6 -81.5q0 -40 12 -60q-10 -6 -21 -6q-12 0 -34.5 12.5t-27.5 14.5t-11 35q-6 25 -27 22q-2 -4 -10 -57q-4 -33 -41 -29q-2 8 -6 8t-17.5 -8t-21.5 -8q-18 0 -23 45q-14 0 -18 -22.5t-39 -18.5z" />
<glyph unicode=";" horiz-adv-x="391" d="M41 -6q14 119 0 262q78 2 78 -20l-2 -5v-6q0 -14 41 -14q6 70 13 77t54 9q33 2 35 -16q8 -37 12 -43q20 -2 26.5 13t12.5 30q10 2 39 -17q0 -35 -6 -102.5t-6 -91.5q0 -46 12 -64q-14 -10 -49 -112q-14 -6 -33 -23q8 -18 11 -45q-20 -51 -31 -49q-80 43 -111 39l-2 -2 q0 -4 31 62.5t31 96.5q0 20 -17 23q-2 8 -8 8q-4 0 -17.5 -8t-19.5 -8q-18 0 -22 47q-14 0 -25.5 -22.5t-46.5 -18.5zM53 860q14 123 0 262q76 2 76 -30q0 -4 -2 -11v-12q0 -20 39 -20q6 66 14 71h49q29 2 25 2q8 0 9 -11t9 -21q39 -4 50 10q16 4 12 18l16 -8 q0 -35 -6 -96.5t-6 -81.5q0 -40 12 -60q-10 -6 -20 -6q-14 0 -33 13q-25 12 -28 14t-13 35q-6 25 -27 22q-4 -6 -10 -57q-4 -33 -39 -29q-2 8 -8 8q-4 0 -17.5 -8t-21.5 -8q-16 0 -20 45q-14 0 -19.5 -22.5t-40.5 -18.5z" />
<glyph unicode="&#x3c;" horiz-adv-x="1030" d="M10 686q0 4 113 51q-6 0 -17 19q2 14 12.5 20t10.5 10q0 6 -18 29q4 8 20 8t16 23q0 37 11 37q4 0 8 -4q53 -53 82 -78q299 160 620 434q10 6 15 6q2 0 2 -4q0 -2 -4 -13.5t-4 -15.5q0 -2 2 -2q4 0 18 11q10 -4 7 -18.5t7 -20.5q2 -6 -6 -17.5t-8 -17.5t4 -10 q16 -18 -16 -41l-7 -8q-8 -7 -4 -13q6 -4 15 -4q6 0 19.5 6t21.5 6t14 -4q23 0 25 -2q4 -16 -9.5 -28.5t-25.5 -22.5q-4 -2 19.5 -6t23.5 -10q0 -4 -10 -11q-203 -115 -555 -325q276 -190 592 -291q-4 -6 -5 -12q0 -4 6.5 -19.5t2.5 -23.5q-2 -14 -21 -15q-10 -27 -74 -30 q-23 -8 -20 -15q23 -8 31 -45q4 -23 -19 -24q-29 -2 -33 -17q0 -18 15 -18q12 -6 12 -19q0 -6 -5 -20.5t-5 -19.5t-4 -9q-8 0 -19 6q-291 281 -641 428q-20 -20 -57 -61l-29 -19q-10 2 -17 30t-20 32q-2 8 5.5 20.5t7.5 16.5t-6 10q-10 14 2 31q-8 10 -23 28q-14 -14 -27 -8 q-27 0 -26 0q-2 6 -2 10q0 12 11 24.5t22 23.5q-4 2 -29 -2q-18 -2 -23 12q-4 8 -4 12z" />
<glyph unicode="=" horiz-adv-x="1091" d="M31 942q0 6 2 12q16 -2 22 17.5t15 21.5q-25 39 -19 49l230 -20q55 -4 265 2t439 16q23 8 27 -2q4 -12 -9.5 -21t-13.5 -16q0 -6 2 -10q-4 -8 -4 -10q37 -10 35 -29.5t4 -47t6 -32.5q0 -20 -35 -26q-322 2 -962 -10q-8 20 10 51h27q14 0 16 14q-4 4 -35 17q-23 10 -22 24 zM41 506q356 23 571 22q193 0 447 -16q6 -12 -8 -20q-20 -8 -23 -15q-10 -2 -19.5 -3t-11.5 -15q6 -6 29 -15q16 -8 16 -20q0 -4 -2 -12q-12 0 -22 -17.5t-41 -19.5q0 -2 29 -27q20 -16 16 -26q-106 8 -199 22q-66 12 -137 12q-61 0 -178 -6q-401 -20 -420 -26q-23 -8 -29 2 q-4 14 10.5 23t14.5 16q0 4 -2 10q4 4 4 8q-37 8 -35 29q31 16 31 34q0 12 -22.5 33t-18.5 27z" />
<glyph unicode="&#x3e;" horiz-adv-x="1030" d="M23 324q-4 8 2 23t6 20q0 6 -4 12q315 100 591 291q-164 94 -555 325q-10 6 -10 11q0 6 23.5 10t19.5 6q-12 10 -25.5 22.5t-9.5 28.5q2 2 25 2q6 4 14 4t21.5 -6t19.5 -6q8 0 15 4q4 6 -4 13l-7 8q-33 23 -16 41q4 4 4 10t-8 17t-8 18q12 6 9 20t7 19q14 -10 19 -11 q2 0 2 2q0 4 -4.5 15.5t-4.5 13.5q0 4 2 4q6 0 15 -6q328 -279 620 -434q29 25 82 78q4 4 8 4q10 0 11 -37q0 -23 16 -23t19 -8q-18 -20 -19 -29q0 -4 11.5 -10t13.5 -20q-2 -6 -17 -19q6 -4 68 -26q45 -16 45 -25q0 -4 -4 -12q-4 -14 -23 -12q-25 4 -28 2q10 -10 21 -22.5 t11 -25.5q0 -4 -2 -10h-26q-14 -8 -27 8q-8 -10 -22 -28q14 -16 2 -31q-6 -6 -7 -10q0 -6 7.5 -17.5t5.5 -19.5q-12 -4 -19.5 -31.5t-17.5 -30.5l-29 19q-37 41 -57 61q-356 -150 -641 -428q-10 -6 -19 -6q-2 4 -3 9t-6 19.5t-5 20.5q0 12 12 19q18 0 13 18q-2 14 -28 16.5 t-22 24.5q8 37 31 45q2 6 -20 15q-37 2 -43 4q-25 6 -31 26q-18 0 -20 15z" />
<glyph unicode="?" horiz-adv-x="1437" d="M25 1264q2 16 17 21t30 9q4 0 -13.5 10.5t-17.5 14.5q2 4 12 6q53 18 107 31q6 20 45 117q14 2 18 -16.5t8 -22.5q0 -2 -4 -27q-4 -14 9 -18q8 4 22 25.5t27 21.5q6 0 14 -6q-4 -16 8 -24.5t12 -16.5q37 16 58 8q139 18 276 18q252 0 428 -59q-12 16 -18 22q-8 14 -8 21 q0 10 57 -8q-12 20 -12 28q0 6 8 6h12q6 -2 8 -2q10 0 9 11q8 2 14 2q10 0 15 -12.5t14 -18.5q18 6 12 22q-4 8 20 13q23 4 33 -6q94 -154 94 -359q0 -37 -4 -76q6 -6 17 -2q8 -8 8 -14q0 -8 -29 -33l-4 -22q6 -2 20.5 7t18.5 9q16 -6 33.5 -13.5t19.5 -21.5 q-37 -23 -106 -65l-2 -8q4 -16 -18.5 -50t-35.5 -34q-6 0 -6 14q-16 16 -20 12q2 -16 -15.5 -32.5t-29.5 -16.5q-4 0 -23 27q-211 -117 -383 -183q-16 -117 -8 -219q-18 -20 -53 -20q-49 0 -92 35q-12 -2 -13.5 -18.5t-15.5 -16.5q-39 0 -90 22q18 133 -2 342q-4 14 -8 27 q-4 14 8 23q4 6 33 0q10 -23 14 -23q4 2 9 10t10.5 17.5t17.5 5.5q2 -2 20 -45l27 10q10 41 27 41q12 0 20 -25q33 12 51 19q12 12 13 10h16q217 84 397 201v84q0 39 -6 75q-256 115 -530 115q-166 0 -318 -45q-29 -102 -28 -209q2 -20 -25 -26q-14 0 -20.5 17t-22.5 13 l-6 6q-23 -31 -37 -26q-4 4 -8 4q-8 0 -21.5 -11.5t-17.5 -11.5q-2 0 -4 2q-8 55 -8 109q0 25 2 51q-12 -6 -39 -22q-29 -4 -31 24q-4 41 -6 43q0 6 13 13.5t10 20.5t28 28q14 6 14 12q-6 10 -26.5 8t-28.5 10q-8 0 -20 11zM494 -6q10 162 0 262q74 2 73 -31q0 -4 -2 -12 v-12q0 -20 39 -21q6 68 14 74h50q35 2 36 -10.5t7 -22.5q37 -4 49 12q12 2 13 9l1 8q4 0 14 -6q2 -39 -4 -99q-8 -66 -8 -84q0 -37 12 -55q-10 -6 -20 -6q-12 0 -33.5 11.5t-29.5 13.5q0 2 -11 36q-4 23 -24 21q-2 -4 -11 -57q-4 -33 -41 -29q-2 8 -6 8t-17 -8t-22 -8 q-18 0 -22 47q-14 0 -18.5 -22.5t-38.5 -18.5z" />
<glyph unicode="@" horiz-adv-x="1507" d="M35 147q0 2 10 6.5t10 14.5t-8 27q2 8 15.5 8t17.5 2q-27 20 -25 26q2 2 17 2q8 6 22 0t21 -2q-4 8 -4 13q0 6 8 6h6q8 -12 20 -21q-43 209 -43 445q0 258 52 444q-20 -6 -64 -16q-23 -6 -29 4q-4 10 10.5 18.5t14.5 14.5q0 4 -2 8q2 2 4 18q-2 0 -25 2q-12 2 -10 13 q18 12 19 18q0 2 -19.5 8t-17.5 21q76 27 182 51q33 53 78 82q6 -8 10 -8q2 0 11.5 12t21.5 8q6 -2 2 -18.5t16 -22.5q23 23 31 19v-15l-6 -30q170 23 358 22q188 0 367 -22l-2 4q-8 14 -8 24q0 12 10 13q14 0 20 -17q31 -10 33 0q-10 18 0 39q4 10 8 10t13.5 -9t15.5 -9 q8 0 16 14q4 4 13 0q10 -10 12 -10q31 -45 55 -88q78 -14 152 -37q4 -12 -4 -14q-16 -6 -19 -11q2 0 -24 3q-16 0 -21 -11q6 -6 30 -16t24 -23q0 -4 -5 -10q-61 8 -61 -12q0 -8 20 -21l13 -26q2 -4 -10.5 -5t-12.5 -3q0 -6 4 -15.5t4 -11.5q-2 -4 -10 0q45 -168 45 -340 q0 -164 -41 -266q-51 -123 -162 -172q-72 -33 -196 -39q0 6 -2 20q10 16 10 17q-10 0 -25 22q8 4 13 14q4 10 -10 17q-4 4 -7 10q-88 -121 -295 -121q-113 0 -202.5 42t-112.5 114q-4 12 5 14t9 31q2 6 9 4q6 -4 8 -2q-6 23 -4 25t6 -2q6 4 11 -2.5t9 -4.5q2 6 4 13 q2 -2 5 -2v-2q-14 96 6 180l-19 -6q-12 -6 -14 2q0 8 8 14t6 14.5t0 16.5l-9 1t-7 9q8 8 8 12t-9 8.5t-9 16.5q49 27 139 49l16 4q2 0 2 -2q137 27 291 2q2 80 19 170q-78 16 -168 17q-158 0 -275 -46q-10 -4 -12 3q-2 8 6 14t4 16q2 2 3 10l1 7q-16 4 -16 10q8 8 8 12 q0 2 -9 7t-7 16q133 70 319 69q205 0 352 -73q2 -10 -3 -13.5t-7 -5.5q-8 4 -20 -6l16 -14q10 -10 6 -25q-31 8 -31 -8q0 -6 11 -14q0 -2 2 -9.5t2 -11.5q0 2 -10 -6q0 -4 2 -11.5t2 -9.5t-6 2q-31 20 -60 35q-14 -68 -6 -157q25 -6 43 -13q2 -10 -3 -12t-7 -6q-8 4 -21 -6 q2 -2 14.5 -13.5t8.5 -25.5q-14 4 -25 -2l4 -21q2 -6 6 -22l-2 -2l5 -25q12 -72 34 -102q33 -47 117 -72q0 -8 -4 -24q47 25 76 73q43 72 43 228q0 229 -80 415q-209 47 -492 47q-201 0 -387 -24q-66 -184 -65 -481q0 -303 71 -512q205 -57 461 -58q465 0 590 180q6 0 6 -4 t-8 -16t-2 -12q23 0 29 4q16 0 16 -8q0 -10 -16 -25q-4 -10 22 -16q10 8 21 2q18 -12 20 -13q16 -4 17 -10q0 -2 -6.5 -8t-6.5 -10t7 -9.5t3 -13.5l-10 -12q-221 -180 -686 -180q-195 0 -371 37q-12 4 -28 0q-6 -20 -2 -31q-6 -14 -11 -15q2 0 -22 25q-18 12 -23 6 q8 -18 -4 -41q-6 -10 -10 -10q-2 0 -9 12.5t-18 12.5q-8 0 -18 -9q-4 -4 -22 15q-27 55 -41 98q-100 43 -152 92q-8 8 -8 12zM543 539q0 -94 28 -187q68 -23 140 -22q166 0 219 106q-57 90 -70 230q-63 16 -141 16q-76 0 -158 -16q-18 -55 -18 -127zM616 272q0 -4 2 -4 q4 2 -2 4z" />
<glyph unicode="A" horiz-adv-x="1378" d="M14 -25q74 94 195 312q-68 6 -109 14q-4 14 13.5 21.5t19.5 11.5h27q14 0 16 14q-4 4 -33 19q-23 8 -22 22q0 6 2 12q16 -2 23.5 17.5t15.5 21.5q-25 39 -17 49q88 -27 150 -40q143 279 274 591q-72 197 -112 324q6 10 28.5 10t31.5 3t9 9q0 4 -2 9.5t-2 7.5q0 4 8 6 q8 4 25.5 -3t19.5 -7q6 0 9 4q-4 10 8 21.5t22 11.5q4 0 4 -2q20 -88 44 -162q16 47 47 133q8 14 16 16q14 -2 14 -20.5t4 -22.5q8 12 18.5 24.5t24.5 8.5q4 -2 5 -22q4 -6 4 -11q0 -6 -5.5 -15t-5.5 -15q0 -4 4 -11q6 -2 17 2q25 29 26 29q2 0 6.5 -2t8.5 -2t11 6t15 6 q14 -14 -2 -43q-41 -113 -129 -305q123 -326 279 -598q47 12 104 25q25 8 29 -2q2 -14 -17.5 -21.5t-13.5 -21.5l12 -2q11 -2 9 -5q20 -8 14 -36q-8 -8 -8 -15q0 -6 11 -16t7 -14q-37 -14 -67 -23q147 -227 258 -295q4 -4 4 -8q0 -12 -19 -12q-18 0 -32.5 17t-24.5 1 q8 -10 0 -25l-8 -4q-6 0 -15.5 12.5t-21.5 10.5q-2 2 -4 10t-4 8q-4 0 -6 -2q-4 -23 -8 -30q-8 -16 -29 -23q6 -18 -4 -37q-8 0 -19.5 8.5t-17.5 8.5q-8 0 -16 -7q-94 88 -226 334q-108 -10 -231 -10t-260 10q-59 -160 -90 -297q-23 4 -54 4q-20 0 -43 -2q-6 -4 -8 -4 q-6 0 -10 11.5t-10 15.5q0 -2 4 26q2 16 -12 21q-4 -2 -27 -43q-16 -31 -39 -27q-2 16 -14 19q-18 2 -23 10q-29 -35 -43 -29q-6 8 -18.5 3t-14.5 1zM473 418q122 -16 244 -16q61 0 121 4q-90 188 -187 425q-61 -135 -178 -413z" />
<glyph unicode="B" horiz-adv-x="1404" d="M33 1276q0 8 22 16q225 10 449 19q209 14 471 71h2q5 0 17 -4q16 -6 -1 -30q-18 -4 -18 -11q0 -4 5 -10t5 -8q0 -6 -14 -10q100 -33 155.5 -117t55.5 -188q0 -133 -84 -240l80 8q2 -4 2 -8q0 -8 -13.5 -15.5t-17.5 -13.5q-6 4 -14 -16l42.5 -17t14.5 -32q-14 2 -18 -8 q208 -74 208 -334q0 -139 -65.5 -268.5t-171.5 -184.5q-4 -2 -8 -2q-8 0 -15.5 12.5t-13.5 14.5q0 10 -1 21t-15 13q-2 -2 -17 -32q-10 -20 -33 -15q2 14 -12 18.5t-18 10.5q-23 -16 -60 2q25 16 35 27q-121 -23 -250 -23q-162 0 -325 35q-4 -6 -15 -14q-12 -4 -17 5t-9 19 l-9 2q-2 -14 -5 -28.5t-17 -18.5q-2 0 -14 19q-10 6 -11.5 20t-13.5 21q-6 0 -11 -17.5t-26 -15.5q-10 2 -16 -10.5t-12 -14.5q-12 4 -43 21q-4 -23 -33 -23q-12 0 -8 19q8 27 20 84q-18 6 -90 34q-6 8 0 15l10 12q-2 14 10 14l23 2q0 18 -4 23q2 4 2 10t-14.5 15.5 t-12.5 21.5q20 8 23 21v20q4 6 24 2q12 -2 58 -10q20 162 20 340q-18 2 -21 14t-10 10q-20 -8 -26 2q-4 12 14.5 20.5t18.5 16.5v7t-5.5 7.5t-5.5 6.5q-55 14 -53 45q25 10 25 26q0 14 -26 36t-26 26t15 4q33 -2 94 -10q-12 176 -37 317q-23 -6 -67 -22q-14 8 -13 26 q2 4 10.5 8.5t6.5 10.5q-4 4 -23.5 9t-19.5 17q10 6 10 17q0 4 -2 12t-2 12q0 12 22 13q1 6 1 11q1 35 -31 59q-36 28 -37 30zM393 571q0 -240 15 -419l6 -2q203 -68 393 -68q311 0 360 201q2 23 2 47q0 203 -188 248q-143 11 -274 11q-167 0 -314 -18zM393 741 q107 -6 205 -6q78 0 150 4l-7 2q117 0 187 70q63 59 63 143q0 78 -53 127q-62 56 -168 56q-35 0 -35 30q-164 0 -315 -30q-20 -168 -27 -396z" />
<glyph unicode="C" horiz-adv-x="1290" d="M31 1180q-3 3 -3 6.5t3 7.5q31 12 75 27q-4 35 -16 92q14 18 31 12q2 -8 13 -7t16 -3q29 -29 32 -27q2 10 15 25q8 -2 25.5 7t27.5 5q8 8 24 2q8 -10 7 -29q-2 -29 -2 -30h4q8 18 17 38.5t24 26.5h5q21 0 46 -14q-6 -10 -15 -35q231 45 482 45q197 0 387 -29q2 -6 2 -10 t-8.5 -9t-11.5 -9t-15 -4v-13q-2 -8 -2 -14q43 -12 35 -37q-16 0 -21.5 -19.5t-13.5 -23.5q29 -33 29 -57q0 -18 -27 -14q6 -49 27 -95q17 -41 17 -62q0 -8 -3 -13q-16 -16 -33 -7q-12 39 -26 39q-6 0 -15.5 -7t-11.5 -7q-4 0 -6 4q-18 -23 -33 -22q-2 0 -14 24 q-8 -4 -19 -35q-8 -23 -28 -18q-8 2 -9.5 17.5t-13.5 13.5l-4 10q20 115 20 201q-122 22 -292 22h-15q-242 0 -415 -27q-33 -188 -33 -444q0 -305 43 -530q160 -41 334 -41q201 0 374 55q4 117 4 175v32q-4 25 -6 47q-2 23 11 22q12 2 20 -12q20 2 23 -12q2 -25 6 -31 q12 -18 20 -12q-2 14 13.5 32.5t29.5 18.5q8 0 18.5 -19.5t24.5 -15.5q16 4 15.5 21.5t9.5 19.5q23 6 22 6q13 9 13 -22q-12 -61 -17 -158q-8 -117 -12 -151q-2 -2 -33 -17l6 -6q8 0 19 -12q-2 -14 -17.5 -19.5t-29.5 -9.5q-4 0 13 -11t17 -16q-2 -4 -12 -4 q-238 -67 -498 -67h-8q-229 0 -452 51q-14 -10 -25 -8q-8 0 -20 16q-10 -4 -19.5 -26.5t-32.5 -18.5q-8 2 -22.5 16.5t-28.5 12.5l-6 10q4 14 8 39l-14 4q-16 4 -33 23q0 6 9.5 10t4.5 14q-14 10 -14 16q0 2 23 13q14 14 14 20q-10 4 -37 27q-2 0 9.5 5t11.5 17t-15 31 q0 29 0 27q4 12 29 12q16 -14 41 -25q19 182 19 389q0 84 -3 173q-4 121 -20 297q-37 -10 -41 -13q-25 -8 -29 4t10.5 21.5t14.5 15.5q0 4 -2 10q4 4 4 23l-25 2q-12 0 -10 14q-6 6 -10 11z" />
<glyph unicode="D" horiz-adv-x="1492" d="M31 199q-2 10 5 16t19 2q33 -12 144 -35q26 166 26 377v16q0 328 -51 562q-96 -10 -115 -17q-27 -8 -24 2q-2 12 12 23q-2 20 12.5 28.5t32 19.5t10.5 17q-20 -2 -47 29q-6 8 -6 14q0 8 18.5 18.5t16.5 24.5q-6 16 -21 13q-18 4 -18 14q2 10 12 10q126 -19 315 -19 q41 0 85 1q201 4 401 10q0 8 7 14.5t5 16.5q-4 10 -2 16q10 6 37 17q-2 4 0 20q4 14 10 14t11 -8q229 -233 417 -336q12 27 31 25q8 -2 20.5 -16.5t26.5 -12.5l4 -10l-2 -25l33 -16q-6 -31 -22 -37q-6 -2 -17 4q-18 -170 -18 -323q0 -168 22 -328q-8 -18 -26 -12 q-2 8 -12.5 7t-12.5 3q-8 8 -10 12q-31 -23 -103 -82q-82 -55 -163 -110q-117 -84 -189 -201q-18 -2 -20 8l2 31q-4 4 -27 -4q-8 -2 -18 -4q-10 10 -11 14q0 -4 27 21q0 2 10 10q6 4 0 4q-6 -6 -18 -2q-6 -6 -10 -6q-221 -14 -426 -19q4 -18 8 -47q-14 -18 -29 -10 q-4 6 -15 5t-16.5 6t-13.5 17.5t-18 8.5q0 -12 -15 -25q-8 2 -24.5 -8t-26.5 -6q-6 -6 -26 -2q-2 4 -2 57h-7q-8 -18 -17 -37.5t-24 -25.5h-5q-21 0 -44 16q12 23 17 43q-59 -4 -105 -14q-10 0 -10 10t18 14q14 -8 21 11q2 14 -16.5 24t-18.5 19q0 14 18.5 29.5t34.5 13.5 q6 8 -11 18t-31.5 19.5t-12.5 29.5q-14 8 -12 23zM375 461q6 -160 18 -289q30 -1 64 -1q151 0 372 15q287 148 396 312q14 78 14 172q0 98 -16 235q-123 154 -346 275q-88 -2 -187 -6q-84 -4 -282 -17q-36 -235 -36 -521q0 -85 3 -175z" />
<glyph unicode="E" horiz-adv-x="1280" d="M29 1139l18 12q8 12 29.5 11t27.5 9q0 6 -8 9l-8 4q-31 8 -29 26q2 12 -10 19.5t-14 13.5q4 4 4 8t-5 10.5t-5 8.5l4 8q10 2 18 2q-8 8 -16 18q6 2 12 7q43 -12 92 -19q-4 20 -14 57q31 20 53 9q2 -8 19 -23q6 2 18 18.5t29 12.5q4 -16 30.5 -20.5t26.5 -16.5 q0 -6 -2 -12q10 2 26.5 22.5t28.5 20.5q8 0 19 -6q4 2 16 11t21 9q6 0 14 -6q0 -4 10 -15.5t6 -25.5q-6 -18 -18 -59q94 -4 196 -5q414 0 582 41q35 2 39 2q8 -2 8 -16q2 -12 -12 -16q-20 -4 -25 -11q14 -4 29.5 -11t15.5 -21q-2 -6 -20 -11q-8 -10 -29.5 -8t-27.5 -6 q-2 -8 3 -10t9 -4q31 -14 27.5 -27.5t9 -23t12.5 -15.5q-8 -8 -4 -32.5t-2 -30.5q-8 2 -31 6q-338 51 -672 51q-72 0 -137 -2q-20 -150 -31 -358q155 30 333 30h12q109 0 225 -10q2 -4 2 -8q0 -8 -13.5 -15.5t-17.5 -13.5q-12 0 -26.5 -1t-16.5 -15q2 -2 41 -16 q25 -10 19 -33q-16 2 -21.5 -12.5t-13.5 -18.5q25 -29 25 -48q0 -6 -3 -11q-204 30 -367 30h-10q-92 0 -172 -10q-1 -40 -1 -79q0 -185 16 -339l22 -2q100 -8 217 -8q354 0 545 59q8 2 17 3q14 0 14 -15q0 -27 -27 -57q8 -4 13.5 -23.5t21.5 -19.5q8 -23 -16 -31 q-37 -16 -39 -18q2 -14 16 -15q25 -2 27 -2q2 -6 10 -11t8 -9t-2 -10q-225 -41 -440 -41q-186 0 -367 30l2 -8q-10 -2 -15 -16.5t-13 -16.5q-14 -4 -21.5 13.5t-13.5 19.5q-2 -14 -6 -30.5t-19 -18.5l-12 18q-12 6 -13 21.5t-12 21.5q-8 0 -10 -8l-2 -8q-2 -20 -27 -18 q-10 2 -16 -9.5t-12 -13.5q-12 4 -43 21q-4 -18 -33 -19q-12 0 -6 19q18 57 26 90q-14 2 -84 24q-8 8 -2 15q6 6 13 12q-2 14 10 14q23 2 22 2q0 18 -4 23q2 4 2 10t-14 15.5t-12 21.5q4 12 28 5q12 -4 70 -13q33 180 37 374q-23 -2 -61 -12q-23 -8 -27 2q-4 12 9 22.5 t13 16.5q0 4 -4 10l4 9q-37 10 -36 28q2 4 2 8t-9.5 7.5t-5.5 9.5q37 16 115 41q-6 186 -35 379q-63 -6 -119 -19q-12 2 -12 6t16.5 15.5t12.5 11.5q-14 4 -29.5 9t-17.5 20z" />
<glyph unicode="F" horiz-adv-x="1320" d="M29 1270q0 8 14 14l4 8l10 6q102 -31 158 -36q-4 90 -8 133l6 6q16 -8 33 -17q27 -14 51 -18q0 2 16 -31q2 -2 4 -2t11.5 20.5t23.5 16.5q6 8 19 19q23 -2 29 -24t22 -22q10 14 33 37l8 -16q-20 -61 -21 -96l-4 -17q551 14 819 82q16 -6 41 -24q-8 -20 -26 -43 q-8 -4 -23 -21q14 0 37 -12q-4 -16 -25.5 -24.5t-27.5 -18.5q20 -6 29.5 -27.5t17.5 -42.5q0 -29 -25 -33q-139 18 -354 19q-219 0 -491 -19q-27 -203 -31 -409q219 33 477 33q141 0 266 -11q6 -14 -10 -22t-17 -11t-28 -5q-14 -2 -16 -17l41 -16q25 -8 16 -31 q-16 0 -21.5 -14.5t-11.5 -18.5q39 -39 39 -84q0 -18 -20 -14q-262 55 -547 55q-92 0 -166 -8q6 -268 49 -530q18 -35 14 -52q-6 -4 -12 -4t-17.5 5.5t-17.5 5.5q-12 0 -18 -25q-14 -2 -19 2q-4 2 0.5 10t-0.5 23q-2 14 -10 14q-10 -4 -20.5 -24.5t-20.5 -20.5q-6 0 -14 4 l-6 35q-10 -6 -19.5 -33.5t-21.5 -27.5q-8 0 -16.5 6t-37 16t-30.5 21q43 225 59 546q-31 -4 -40 5.5t-13 7.5q-23 -10 -29 0q-4 12 9.5 22t13.5 17q0 4 -4 10q4 4 4 8q-37 14 -37 29q0 2 -12 12q-6 4 0 12q37 16 112 39q3 77 3 166q0 119 -5 260q-57 -2 -141 -22 q-23 18 -47 61q20 6 47 31q-2 2 -19.5 6t-15.5 18q18 4 39 25q-16 4 -41 27q6 12 -6 29.5t-12 21.5z" />
<glyph unicode="G" horiz-adv-x="1415" d="M37 205q18 14 18 18q0 2 -5 8.5t-5 14.5q0 23 6 22l10 -2q6 -2 10.5 2t4.5 23q-23 29 -21 35h17q8 4 21 -4.5t22 -4.5q-4 8 -4 15q0 8 10 6l6 -2q4 -8 18 -23q14 152 15 316q0 217 -25 438q-14 -4 -43 -12q-23 -8 -26 2q-4 12 9 21t13 16q0 6 -2 10q4 2 4 22l-22 2 q-12 0 -13 15l-10 10q-6 6 0 14q49 20 74 29q-4 37 -17 111q10 2 16.5 15t14.5 15q12 4 20.5 -12t12.5 -18q2 14 6 30.5t18 18.5q6 0 15 -19q12 -6 13 -20t11 -21q6 0 9 8l2 9q2 18 26 16q10 -2 16.5 10.5t12.5 14.5q14 -4 43 -21q4 20 33 21q12 0 6 -19q-2 -27 -10 -69 q221 47 458 47q319 0 555 -78q4 -14 -4 -16q-14 -6 -18 -11q-2 0 -25 2q-16 0 -18 -12q4 -6 28.5 -18.5t24.5 -26.5q0 -6 -4 -12q-12 2 -14 -20.5t-11 -22.5q-6 0 -16 6q-14 -25 -4 -41t-10 -29q-217 109 -584 109q-190 0 -377 -31q-24 -211 -24 -399v-15q0 -240 38 -508 q158 -49 345 -49q229 0 389 76q1 30 1 59q0 138 -16 267h-34q-250 0 -406 -56q-16 -4 -25 -4q-18 0 27 45l-13.5 13.5t-6.5 13.5q-2 18 15 30.5t35.5 24t12.5 17.5q-16 -2 -34.5 11t-18.5 24q0 6 17.5 16t13.5 22q-6 12 -19 9q-18 0 -24 16q-6 27 -9 29q-14 10 23 10 q180 -51 438 -51q45 0 134 8t134 8q29 0 29 -12q0 -8 -10 -12.5t-13.5 -17.5t-15.5 -19q25 -14 25 -29q-8 -4 -25 -14q4 -6 35 -15q22 -6 20 -24q-2 -6 -16 -17.5t-12 -23.5q-8 -11 -49 -11q-12 0 -27 1q-8 -73 -8 -141v-27q10 -2 14 -14.5t10 -12.5q23 0 31 6q33 0 33 -4 q0 -2 -14.5 -14.5t-18.5 -20.5q-8 -23 2 -24q16 14 39 6q16 -6 16 -15q0 -6 -5 -17t-5 -17q0 -8 6 -15q4 -4 -6 -28q-33 -31 -82 -66q6 -53 27 -164l2 -43q-2 -10 -16 -10q-14 -2 -20.5 17.5t-10.5 23.5q-6 -16 -13.5 -32.5t-23.5 -16.5q-2 0 -12 22q-12 10 -9 34t-8 32 q-8 2 -10 -4t-4 -13q-14 -33 -35 -26q-10 4 -20.5 -10.5t-18.5 -14.5q-8 8 -23.5 3t-21.5 3q2 16 -6 33q6 31 12 68q-174 -57 -381 -58q-164 0 -313 37l6 -30q-31 -20 -51 -11q-2 10 -18 23q-6 -2 -19.5 -17.5t-27.5 -11.5q-4 14 -34 18.5t-24 28.5q-10 -2 -17 -10t-11 -8 q-6 0 -23 10q-4 -2 -18.5 -19.5t-22.5 -17.5q-6 0 -8 4t-11.5 15.5t-7.5 25.5q12 63 21 113q-51 35 -86 80z" />
<glyph unicode="H" horiz-adv-x="1259" d="M35 575q57 27 100 41q0 334 -35 609q10 2 16.5 15t14.5 15q12 4 20.5 -13t12.5 -19q4 14 8 29.5t18 17.5l13 -19q10 -6 11 -27.5t11 -27.5q2 0 11 14q10 33 28 29q10 -2 17.5 11.5t13.5 15.5q4 -4 6 -4q6 0 13.5 9t13.5 9q2 0 6 -2t8 -2q6 0 18.5 3t18.5 3q8 0 8 -6 l-4 -12q-57 -225 -84 -607q225 43 510 43q80 0 160 -4q-14 299 -95 609q16 4 52 0q4 -18 28.5 -16.5t24.5 -16.5q2 -27 -2 -35q2 -4 10 -4q8 27 29 29q8 18 35 47q8 4 18 0q14 -4 16 -4q8 0 13 10q10 0 16 -17.5t29 -1.5q10 4 18 7.5t15 1.5q6 -2 4 -15q-18 -104 -39 -276 q-14 -121 -23 -287l-2 -39q66 -6 109 -12q2 -4 2 -8q0 -8 -14.5 -14.5t-16.5 -9.5t-27 -5q-14 -2 -16 -14q2 -2 41 -19q25 -10 16 -33q-16 2 -21 -17t-13 -24q29 -35 20 -47q-25 6 -82 15q10 -233 86 -502q-12 4 -25.5 -12.5t-21.5 -16.5q-14 -2 -23 15h-2q-23 0 -57 53 q-12 20 -20 12q2 -14 -14.5 -32.5t-28.5 -18.5q-8 0 -18.5 18.5t-24.5 14.5q-16 -4 -11 -19q-2 -18 -22 -22q-29 -6 -31 -8q-12 -8 -12 22q76 229 82 514q-150 14 -303 14q-180 0 -320 -20q-18 -2 -55 -8q0 -279 76 -527q-31 -20 -54 -6q0 10 -16 23q-6 -2 -19.5 -16.5 t-29.5 -10.5q-4 14 -29.5 19.5t-25.5 19.5q0 4 2 12q-10 -2 -26.5 -21.5t-29.5 -19.5q-10 0 -20 9q-2 -2 -14.5 -11.5t-20.5 -9.5t-16 8q0 4 -8.5 13.5t-8.5 17.5q0 4 2 10q70 174 80 445q-23 -8 -49 -19q-23 -8 -27 2q-4 12 9.5 21.5t13.5 17.5q0 4 -4 11q4 4 4 8 q-37 10 -35 26q6 10 6 19q0 12 -11 18q-8 4 -8 9q0 1 1 3z" />
<glyph unicode="I" horiz-adv-x="368" d="M41 0q57 274 57 623q0 84 -4 172q-14 360 -49 518q14 18 29 12q4 -8 15 -7t15 -3q29 -29 33 -27q2 10 15 25q8 -2 25.5 7t27.5 5q6 6 24 2q2 -4 2 -59h5q10 29 43 65h5q20 0 44 -14q-86 -186 -86 -645q0 -383 63 -613l21 -73q-31 -18 -50 -6q-23 31 -47 30q-12 0 -20 -8 q-12 -18 -39 -14q-2 0 -18 22q-10 -4 -23 -32q-8 -19 -29 -19h-2q-10 2 -24.5 16.5t-28.5 12.5z" />
<glyph unicode="J" horiz-adv-x="1392" d="M31 438q0 33 12 23q2 -2 23 -8q10 -2 12 -21q-4 -18 12 -18q14 -4 24.5 15.5t18.5 19.5q6 0 14 -7q31 -27 29 -47q8 -4 21 15q4 6 8 28q2 14 20 13q8 16 21 14q12 0 10 -23t-6 -47v-31q0 -56 4 -169q172 -68 348 -68q80 0 156 14q39 223 39 502q0 86 -4 162 q-10 180 -29 330q-190 -25 -340 -62q-53 2 -53 21q0 10 22 18q4 2 4 6q0 2 -3 10.5t-3 14.5q0 12 17 22q-2 2 -19.5 7.5t-15.5 17.5q18 4 39 24q-16 4 -41 29q4 10 -7.5 27.5t-11.5 21.5q0 8 15 15l4 8l10 6q80 -23 362 -43q-6 41 -12 68q12 20 29 12q4 -6 15 -5t17.5 -5.5 t14.5 -16.5t16 -8q4 20 15 25q8 -2 24.5 8t26.5 6q6 8 26 4q2 -20 5 -59h4q18 0 23 30.5t16 36.5h4q14 0 34 -14q-4 -27 -8 -76q199 8 334 53q14 -4 41 -22q-6 -16 -27 -45q-10 -4 -24 -19q6 -4 20.5 -5t18.5 -7q-4 -16 -25.5 -24.5t-27.5 -18.5q20 -8 29 -28.5t18 -41.5 q0 -16 -11 -18q-137 34 -305 34q-26 0 -53 -1q-18 -276 -18 -539q0 -242 16 -387q37 16 86 51q25 0 29 -12q-2 2 -4 -27q-14 -18 -15 -30q0 -12 11 -17l10 -6q-10 -4 -37 -27q-2 -6 12 -20q23 -10 23 -12q0 -6 -15 -17q-4 -10 5.5 -14t9.5 -12q-8 -6 -35 -21 q-225 -86 -453 -86q-229 0 -510 86q-12 2 -12 6t17.5 14.5t13.5 10.5q-14 4 -29.5 10t-17.5 21q2 4 6 8q-12 4 -15 8q-4 100 -28 309z" />
<glyph unicode="K" horiz-adv-x="1314" d="M41 649q14 12 14 19q0 4 -4 8t-4 6q0 6 35 25q6 2 17.5 6t17.5 6q-6 297 -49 596q-2 4 6 13t10 11q6 12 18 4q4 -27 31 -28.5t29 -24.5l6 -6q4 4 3 26.5t13 24.5q12 2 21 -25.5t22 -27.5q18 39 43 35q14 29 27 16q4 -10 14 -6t15 0q-27 -141 -39 -489v-43 q223 111 418 252q227 162 323 305q4 4 8 4q6 0 17.5 -6.5t17.5 -6.5t10 5q14 0 17 -15v-20q2 -14 -13 -47q10 -10 48 -9q29 4 34 -20q0 -6 -13 -18.5t-13 -20.5q0 -6 8 -14l16 -8l-6 -23q-102 -88 -201 -162q-233 -176 -409 -252q57 -299 250 -463q166 -145 375 -145 q51 0 100 10q6 -6 2 -20.5t4 -22.5q0 -6 -13.5 -14t-9.5 -18q8 -23 -24 -31q-14 -14 -14 -15q8 -10 29.5 -7t29.5 -7q8 0 20 -10q0 -14 -15 -21.5t-30 -11.5q4 -4 25 -10q14 -4 12 -19q-2 -8 -13 -15t-11 -17q-25 -4 -58 -4q-147 0 -270 61q-453 182 -567 692l-82 -35 q8 -297 8 -315q8 -162 37 -309q-12 -14 -29 -8q-4 2 -8 10t-10 6q-4 -2 -11.5 -21.5t-19.5 -17.5q-4 12 -18 12q-2 0 -9 -2h-10q-14 0 -12 25q-8 -6 -17.5 -31.5t-21.5 -25.5q-4 0 -10 4q-2 -2 -11.5 -15.5t-17.5 -13.5q-4 0 -8 2q-16 10 -41 33q35 317 37 606l-31 -8 q-10 4 -8 22q6 25 4 29q18 12 18 14q-14 6 -32 23q-12 0 -27 14z" />
<glyph unicode="L" horiz-adv-x="1114" d="M25 121q-3 3 -3 6.5t3 7.5q51 18 112 31q29 178 29 463q0 328 -35 680q20 12 55 28q12 4 19 -13t12 -19q4 14 9 29.5t20 17.5l12 -19q12 -8 11 -29.5t10 -27.5q8 0 10 8l2 8q8 31 28 29q10 -2 16.5 10t14.5 15q8 -6 21.5 0t21.5 0q7 -4 27 6q11 6 16 6q4 0 4 -4t-2 -11 q-114 -292 -114 -722v-7q0 -217 30 -415q141 14 303 14q228 0 435 -27q1 -3 1 -6q0 -10 -12 -14q-20 -8 -22 -14h-25q-16 2 -18 -13q6 -6 35 -18q20 -8 20 -23q0 -6 -2 -12q-10 0 -10 -8q0 -2 2 -8v-9q0 -18 -29 -16q-2 -10 9.5 -16t11.5 -15q0 -6 -4 -16q-90 29 -273 45 q-138 12 -273 12q-60 0 -120 -2q10 -53 25 -94q-19 -12 -35 -12q-11 0 -19 6q0 10 -16 24q-8 -2 -19.5 -15t-19.5 -13q-6 0 -10 2q-4 14 -30 19t-26 20q0 4 3 12q-10 -2 -26.5 -21.5t-29.5 -19.5q-10 0 -20 8q-4 -2 -16.5 -10t-20.5 -8t-11 4t-12.5 17.5t-5.5 27.5 q4 8 10 27q-25 -4 -34 -9q-25 -2 -29 5q-2 12 11.5 21t13.5 15t-3 11q2 4 7 8q-37 14 -35 31z" />
<glyph unicode="M" horiz-adv-x="1691" d="M29 -39q106 205 165.5 473t59.5 533q0 201 -35 366l10 6q4 2 13 11q4 0 11 -10.5t13 -8.5q6 -1 6 21q0 20 8 20h1q2 -6 22.5 -16t13.5 -27q12 -10 23 0q0 29 25 43l38 -16l19 -64q31 -10 33 0q6 23 12 17q4 -2 14 -19q2 -8 4 -20.5t21 -16.5q2 0 4 12.5t6 18.5 q14 4 31 23q4 10 35 10q31 2 32 -12q98 -489 224 -881q100 254 227 872q18 10 43 25q2 -10 16 -25q4 0 16.5 8.5t20.5 4.5q2 -8 12.5 -15.5t10.5 -13.5t-6 -16q16 -16 20 -13q4 16 21 29q2 12 5 34.5t3 33.5q10 6 20 6q19 0 43 -19q12 -2 18.5 12.5t18.5 10.5 q4 -2 11.5 -11.5t13.5 -9.5q4 0 8 2q6 0 4 -8v-10q4 -6 18 -2q-2 20 9 27q12 6 14 -5q-25 -238 -25 -401q0 -260 60 -479q65 -240 221 -502q1 -4 1 -7q0 -8 -6 -14q-9 -8 -20 -8q-6 0 -6 4q0 23 -18 13q-16 -20 -29 -21q-14 -2 -17 16.5t-14 20.5q0 -2 0 12q0 10 -8 9 q-26 -33 -50 -33h-5q-4 -3 -8 -19q-4 -14 -11 -14h-2q-37 23 -59 23q-10 0 -21.5 -6.5t-19.5 -6.5q-14 0 -41 23q-115 455 -121 1018q-209 -494 -284 -959q-2 0 -28 28t-32 25q-10 0 -19 -26.5t-22 -28.5l-18 27q-6 -10 -21 -6l-12 24q-2 -16 -27 -43q-27 -6 -26 -10 q-39 305 -123 637q-88 346 -164 483q-4 -690 -94 -1130q-10 -2 -25.5 -19.5t-27.5 -17.5q-6 0 -15 6q-12 14 -30 51q-2 6 -13 6q-8 -10 -18 -22t-25 -8q-6 14 -24 34q-6 -12 -23 -36q-16 0 -34.5 -2t-26.5 -13.5t-25 -7.5q-18 4 -20 0z" />
<glyph unicode="N" horiz-adv-x="1400" d="M43 1290q-2 2 -2 4q1 6 11 10q14 8 22 5q39 0 63 -23q0 -14 13 -35l16 29q10 18 27 16q4 8 16 21q20 -2 55 -41q4 4 5 24.5t12 20.5q4 0 12 -4l10 -14q2 -2 14.5 3t24.5 5q16 -2 10 -17q-39 -68 -59 -233q18 10 18 16q-2 16 21 39q20 -18 28 -18q6 0 7 6q0 10 -9 26 q-4 12 11 17q16 4 22 -4q59 -303 258 -527q193 -215 449 -290q10 143 10 299q0 381 -59 702q14 2 25 2q35 1 38 -19q4 -26 21 -26q14 0 20 12q14 25 21 25q8 2 10 -23.5t26 -29.5q2 18 4.5 34.5t30.5 12.5q9 22 22 22q4 0 9 -2q4 -4 9 -21.5t18 -13.5q25 29 51 29q6 0 6 -6 q-74 -283 -74 -793q0 -373 60 -544q0 -2 -7.5 -7.5t-5.5 -11.5q6 -8 2 -14t-10 -4q-10 -1 -18 -1q-38 0 -45 23v25q-2 14 -13 10q-18 -8 -23 -24.5t-9 -16.5t-19 8q-16 -4 -19 -17t-5 -15q-14 2 -23 14q-14 20 -18 25q-2 -4 0 -27q2 -18 -11 -19q-6 0 -16 5l-10 16 q-2 4 -15.5 -2t-25.5 -4q-14 0 -8 14l4 10q14 66 24 140q-272 117 -483 327q-201 203 -313 457q-2 -68 -3 -141q0 -457 78 -715q10 -37 6 -51q-6 -10 -14 -23q-6 -8 -35 4q-14 20 -16 21q-4 0 -9 -7.5t-11.5 -15.5t-18.5 -4q-4 4 -20 37q-14 23 -21 23q-4 0 -6 -13 q-4 -23 -31.5 -34t-34 -25t-10.5 -14q-6 0 -13 12t-9 14q-6 -4 -17 -4q-35 0 -26 33q36 245 36 552v17q0 422 -61 727z" />
<glyph unicode="O" horiz-adv-x="1458" d="M37 201q0 2 9 6t9 18q0 12 -6 31q2 10 14.5 10t16.5 2q-25 25 -23 33q2 2 17 2q4 2 8 2t12 -4t15 -4q4 0 8 2q-6 10 -6 16t8 4h6q27 -31 47 -45q-47 203 -47 416q0 215 49 381q-31 -6 -61 -16q-23 -8 -27 2q-4 14 10.5 23.5t14.5 15.5q0 4 -2 10q2 10 4 22q-12 0 -24.5 1 t-10.5 14q18 14 18 20q0 4 -19.5 11.5t-17.5 23.5q90 37 205 64q49 68 98 98q6 -8 11 -8q2 0 13 12t26 8q6 -2 2 -18.5t18 -22.5q27 23 35 19v-15q4 -8 -2 -21.5t-6 -17.5q131 16 272 17q143 0 291 -17v2q8 0 -4 16.5t-12 18.5q0 12 12 13q18 0 24 -17q35 -12 39 0 q-12 18 -2 39q4 10 11 10q4 0 16 -9t18 -9q10 0 21 14q4 4 12 0l14 -10q37 -49 64 -102q96 -20 180 -50q4 -14 -4 -18q-16 -6 -18 -10q2 0 -25 2q-16 2 -20 -10q6 -8 32 -21q20 -12 21 -25q0 -6 -4 -14q-18 4 -39 0q-23 -4 -23 -12q0 -10 21 -23q4 -10 12 -32q0 -4 -11 -6.5 t-11 -4.5q4 -31 6 -30q-4 0 -8.5 3t-10.5 6t-10 3q37 -162 37 -338q0 -182 -39 -350q8 0 20 8q16 0 17 -10q0 -4 -17 -29q-4 -14 23 -18q6 4 12 4q4 0 13.5 -7.5t15.5 -9.5q16 -4 16 -10q0 -4 -6 -10t-6 -12t7 -11.5t3 -15.5q-6 -6 -10 -14q-68 -68 -178 -121 q-47 -90 -103 -152q-8 2 -15 -8t-13 -10t-13.5 17.5t-23.5 15.5q-6 -10 -11 -20.5t-18 -8.5q-4 2 -4 14q-18 10 -18 23q0 6 3 14t3 12t-2 7q-20 -4 -35 -3q-14 6 -10 19q-123 -25 -254 -25q-119 0 -234 21l6 -6q-4 -12 -20 -6q-14 4 -16 0q-6 -20 -2 -31q-6 -14 -13 -15 q4 0 -26 25q-18 14 -25 6q10 -20 -4 -41q-6 -10 -12 -10q-2 0 -11.5 11.5t-19.5 11.5q-8 0 -21 -7q-8 -4 -26 15q-33 63 -53 112q-135 57 -195 129q-8 10 -8 15zM305 662q0 -272 68 -469q162 -41 348 -41q217 0 375 57q82 225 82 502q-1 223 -60 379q-182 43 -411 43 q-172 0 -340 -25q-61 -182 -62 -446z" />
<glyph unicode="P" horiz-adv-x="1308" d="M35 1190q-3 3 -3 6.5t3 7.5q33 12 82 27q-4 18 -27 90q-6 18 6 18q29 0 33 -18q12 4 43 20q6 -2 12 -12t19 -8q20 4 25 -14.5t12 -18.5q12 6 13 21.5t11 21.5q2 8 12 19q14 -2 18.5 -18.5t8.5 -31.5q4 2 11.5 19.5t21.5 13.5q8 -2 13 -15t15 -15v-13q236 43 494 43 q98 0 195 -6v4q16 6 26 -6q29 -4 45 -4q2 2 8.5 14.5t14.5 12.5q4 0 8 -2q2 -8 6 -29q39 -4 113 -14q3 -6 3 -10q0 -6 -5 -9q-12 -10 -15 -14q-12 0 -26 -1t-17 -16q2 -2 41 -16q20 -8 20 -25q0 -4 -1 -8q-16 2 -22.5 -18.5t-12.5 -24.5q27 -27 27 -57q0 -14 -15 -14 q-8 0 -29.5 6t-29.5 6q10 -113 10 -228q0 -195 -31 -348q4 0 66 15q8 -10 -18 -47q8 -4 13 -17.5t21 -11.5q2 -6 2 -12q0 -14 -22 -23q-29 -12 -35 -18q2 -12 16.5 -13.5t26.5 -1.5q2 -6 23 -14q14 -6 8 -21q-74 -14 -164 -24q-10 -20 -35 -53q-8 -6 -14 0l-12 12 q-18 -2 -27 33h-8l-2 -2h-19q-6 -8 -12 -16.5t-16 -4.5q-8 4 -7 19q-137 -11 -272 -11q-147 0 -293 13q14 -176 47 -338q2 -14 -7 -26.5t-9 -16.5q-8 -6 -14 -6q-8 0 -20.5 9t-16.5 11q-10 -8 -19 -8q-12 0 -29.5 20.5t-27.5 22.5q2 -8 2 -12q0 -14 -25.5 -18.5t-29.5 -18.5 q-16 -4 -27 8q-16 18 -22 20q-8 -2 -10.5 -11t-6.5 -13q-25 -10 -53 8q47 233 59 399q-47 10 -76 21q-14 16 11 55q-2 20 35 29q0 2 -1 5t-4 5q2 4 3 10q0 6 -14.5 15.5t-10.5 21.5q4 10 29 2q2 2 39 -4q1 46 1 91q0 262 -49 493q-49 -8 -65 -12q-23 -8 -27 2q-4 12 10.5 21 t14.5 17q0 4 -2 9q2 2 3 12t1 12h-25q-12 0 -10 15zM362 1126q-1 -57 -1 -113q0 -268 16 -521q107 -9 226 -9q171 0 368 19q49 135 49 368q-1 135 -19 256q-93 8 -234 8q-42 0 -89 -1q-311 -6 -311 -7h2h-7z" />
<glyph unicode="Q" horiz-adv-x="1454" d="M35 201q0 2 9 6t9 18q0 12 -6 31q2 10 14.5 10t16.5 2q-25 25 -23 33q2 2 17 2q4 2 8 2t12 -4t14 -4q4 0 9 2q-6 10 -6 16t8 4h6q27 -31 47 -45q-47 203 -47 416q0 215 49 381q-31 -6 -61 -16q-23 -8 -27 2q-4 14 10.5 23.5t14.5 15.5q0 4 -3 10q2 10 5 22q-12 0 -24.5 1 t-10.5 14q18 14 18 20q0 4 -19.5 11.5t-17.5 23.5q90 37 205 64q49 68 98 98q6 -8 11 -8q2 0 13 12t26 8q6 -2 2 -18.5t18 -22.5q27 23 35 19v-15q4 -8 -2 -21.5t-6 -17.5q131 16 272 17q143 0 291 -17v2q8 0 -4 16.5t-12 18.5q0 12 12 13q18 0 24 -17q35 -12 39 0 q-12 18 -2 39q4 10 10 10q4 0 16.5 -9t18.5 -9q10 0 21 14q4 4 12 0l14 -10q37 -49 64 -102q104 -23 180 -50q4 -14 -4 -18q-16 -6 -18 -10q2 0 -25 2q-16 2 -20 -10q6 -8 32 -21q20 -12 21 -25q0 -6 -4 -14q-18 4 -39 0q-23 -4 -23 -12q0 -10 21 -23q4 -10 12 -32 q0 -4 -11.5 -6.5t-11.5 -4.5q4 -31 7 -30q-4 0 -8.5 3t-10.5 6t-10 3q37 -162 37 -338q0 -182 -39 -350q8 0 20 8q16 0 17 -10q0 -4 -17 -29q-4 -14 23 -18q6 4 12 4q4 0 13.5 -7.5t15.5 -9.5q16 -4 16 -10q0 -4 -6 -10t-6 -12t7 -11.5t3 -15.5q-6 -6 -10 -14 q-68 -68 -178 -121q-47 -90 -103 -152q-8 2 -15 -8t-13 -10t-13.5 17.5t-23.5 15.5q-6 -10 -11.5 -20.5t-17.5 -8.5q-4 2 -4 14q-18 10 -18 23q0 6 3 14t3 12t-2 7q-20 -4 -35 -3q-14 6 -10 19q-63 -12 -129 -19q68 -160 295 -217q0 -10 -5 -12q-10 -4 -16 -10q-8 -2 -20 4 l-11 6q0 -4 13 -31q6 -12 6 -20q0 -10 -11.5 -12t-11.5 -4q0 -4 19 -21q6 -20 -11 -20q-6 4 -19 -12q-10 -14 -18 -14q-1 0 -3 1q-168 59 -254 127q-113 88 -152 231q-106 8 -160 19l6 -6q-4 -12 -20 -6q-14 4 -16 0q-6 -20 -2 -31q-6 -14 -13 -15q4 0 -26 25q-18 14 -25 6 q10 -20 -4 -41q-6 -10 -12 -10q-2 0 -11.5 11.5t-19.5 11.5q-8 0 -21 -7q-8 -4 -26 15q-33 63 -53 112q-135 57 -195 129q-8 10 -8 15zM303 662q0 -272 68 -469q106 -29 250 -39q0 37 8 127q6 12 14 26l27 -12q6 4 10 10q-2 6 11.5 13.5t15.5 9.5q16 -2 21 -24.5t9 -22.5 t12.5 11t12.5 11q2 0 5 -2t5 -2q8 0 19 16q2 2 6 2q12 0 8 -53q-2 -35 -2 -110q162 10 291 55q82 225 82 502q-1 223 -60 379q-182 43 -411 43q-172 0 -340 -25q-61 -182 -62 -446z" />
<glyph unicode="R" horiz-adv-x="1488" d="M33 1200q2 14 17.5 20.5t29.5 10.5q4 0 -13.5 10t-17.5 14q2 4 12 7q283 90 543 90q154 0 299 -31q12 0 29 -6l16 -2q-16 23 -16 28q0 2 14.5 7.5t16.5 25.5q8 4 12 4q12 0 22.5 -21.5t20.5 -25.5q12 6 12 55q5 2 9 2q11 0 21 -12q12 -16 23 -16q0 26 12 26h1 q10 0 24 -14q74 -76 101 -164q41 -129 41 -299q0 -152 -37 -288v-3q0 -6 12 -15t14 -19q8 -20 -24 -29q-14 -14 -15 -14q6 -10 28 -8t30 -9q8 0 20 -10q-2 -14 -16 -20.5t-29 -10.5q-4 -2 14.5 -11t18.5 -13q-2 -4 -12 -6q-287 -109 -564 -121q135 -211 426 -211 q135 0 289 47q18 6 23 -2q4 -12 -12.5 -20.5t-18.5 -14.5q14 -2 30.5 -6t18.5 -19l-18 -12q-6 -10 -27.5 -11t-28.5 -13q0 -8 8 -10l9 -3q33 -4 31 -24q-10 -12 -11 -17q0 -6 17.5 -7t22.5 -7t5 -12q0 -25 -57 -31q-113 -12 -211 -12q-539 0 -700 387q-82 4 -162 18 q18 -176 41 -299q0 -2 10 -28q6 -12 -4 -21q-2 -2 -33 -2q-12 20 -16 21q-4 -2 -6 -6.5t-8.5 -17.5t-18.5 -9q-6 6 -22.5 43t-20.5 37t-4 -23v-10q0 -57 -22 -57h-1q-10 0 -19 19t-17 19q-10 0 -25.5 -24.5t-19.5 -22.5q-59 0 -59 26q0 3 1 7q66 287 66 666q0 205 -21 409 q-39 -18 -80 -43q-23 -4 -22 11q0 6 5 20t5 20t-2 9q0 8 13.5 15t11.5 17q-4 20 26 29q4 2 10.5 4t4.5 10q-6 10 -27 8.5t-29 10.5q-8 0 -20 10zM322 539q51 -16 120 -27q-2 14 -7 42t-9 40q4 4 31 -2q6 -23 12 -23t8 4.5t10 20.5q6 8 17 4q31 -51 37 -51q4 2 4 6 q6 47 22 47q6 0 9.5 -7t7.5 -7t13 8t13 8t7.5 -11t3.5 -26q0 -4 12 -63q203 4 395 69q41 126 41 325q0 47 -2 97q-2 57 -18 105q-201 94 -437 94q-137 0 -268 -35q-27 -210 -27 -427q0 -95 5 -191z" />
<glyph unicode="S" horiz-adv-x="1306" d="M37 1180q-3 3 -3 6.5t3 7.5q31 12 76 27q-4 35 -17 92q14 18 31 12q2 -8 13.5 -7t15.5 -3q29 -29 32 -27q2 10 15 25q8 -2 25.5 7t27.5 5q8 8 25 2q8 -10 6 -29q-2 -29 -2 -30h4q8 18 17 38.5t24 26.5h5q21 0 46 -14q-6 -10 -14 -35q231 45 481 45q197 0 387 -29 q2 -6 2 -10t-8 -9t-10 -11h-15q-10 0 -13 -4t-3 -21q18 -6 35 -10q18 -10 12 -31q-20 0 -21 -14v-10l3 -9q0 -10 -17 -10q-2 -12 7.5 -30.5t9.5 -24.5q0 -10 -17 -14l-12 4q6 -46 28 -102q17 -44 16 -64q0 -6 -1 -10q-20 -16 -33 -7q-12 39 -27 39q-6 0 -15 -7t-13 -7 q-2 0 -4 4q-18 -23 -33 -22q-2 0 -14 24q-8 -4 -17.5 -30.5t-30.5 -22.5q-8 2 -9 17.5t-13 13.5l-4 10q16 92 20 203q-125 20 -297 20q-156 0 -329 -16q-49 -4 -82 -11q-20 -143 -25 -331q260 0 533 -41q260 -40 432 -101q2 -14 -13 -18q-20 -6 -24 -10q-2 0 -25 2 q-16 2 -20 -11q4 -8 31 -22q20 -10 20 -23q0 -6 -4 -14q-16 4 -25.5 -14.5t-17.5 -20.5q20 -41 12 -51q-2 2 -39 16q6 -143 23 -237q4 -4 4 -16q10 -55 25 -109l20 -74q-33 -18 -49 -6q-4 4 -6 4q-6 -2 -19 -8q-330 -106 -598 -106q-211 0 -426 59q-12 0 -12 6 q0 8 19.5 25.5t15.5 17.5q-14 4 -29.5 9t-17.5 20l18 12l6 6q-27 10 -33 17q-4 100 -28 309q0 33 12 22q12 -2 22.5 -5t12.5 -23q-4 -14 12 -19q14 -4 24.5 15.5t18.5 19.5q14 0 29.5 -18.5t13.5 -32.5q8 -6 21 12q4 6 8 31q2 14 20 12q8 14 21 12q12 0 10 -22 q-2 -23 -6 -47q0 -13 -1 -33q0 -61 5 -184q174 -68 350 -68q170 0 328 64q27 162 27 393q-287 90 -570 90q-164 0 -323 -31q-23 -4 -33 43q-4 14 15.5 16.5t13.5 18.5q-12 4 -13 12q0 4 6.5 10.5l10.5 10.5q2 12 -19.5 17t-19.5 16q-4 25 6 34l65 7v4q0 76 -20 297 q-37 -10 -41 -13q-25 -8 -29 4t10.5 21.5t14.5 15.5q0 4 -2 10q4 4 4 23l-25 2q-12 0 -10 14q-6 6 -10 11z" />
<glyph unicode="T" horiz-adv-x="1191" d="M16 1276q0 12 15 16q76 -25 428 -84l4 4q-4 47 -27 136q-12 6 2 10q45 10 51 -12q49 -16 62 -46q16 0 26.5 25t22.5 25q6 0 14 -4q4 -14 19 -31q12 6 26.5 26.5t20.5 26.5q12 -14 44 -43q-12 -43 -34 -131l6 -4q54 -2 105 -2q201 0 336 26q8 4 18 -5t19 -9q10 -5 10 -11 q0 -5 -8 -9q-4 -12 -33 -21.5t-29 -19.5q0 -6 4 -17.5t19 -31.5q20 4 28 -11q4 -12 -11 -15t-15 -9t2 -11q18 -8 16 -28q-4 -45 -4 -35l-12 -6q-188 57 -467 82q-27 -147 -27 -355q0 -348 60 -561q10 -41 36 -125q2 -8 -6 -12q-6 -4 -16 0q-4 2 -33 2q-20 0 -24 19 q4 16 -13 16q-16 0 -23 -20.5t-18 -20.5q-14 0 -30.5 14.5t-16.5 30.5q-6 4 -20 -16q-12 -35 -15 -41q-12 -20 -32 -23q-7 -16 -18 -16h-3q-3 -1 -7 -1q-8 0 -18 4q-14 5 -24 11q0 8 23 172q8 57 40 248q18 106 19 192q0 47 -4 105l-21 278l-4 107q-81 7 -173 7 q-132 0 -286 -15q2 -6 3 47q14 4 15 16.5t3 24.5t16 12q20 0 35 -2q4 2 4 10q-27 8 -26 29q-18 8 -47 35q-4 8 0 18q4 14 4 17q0 8 -11 12z" />
<glyph unicode="U" horiz-adv-x="1380" d="M33 225q39 2 39 11q0 2 -16.5 16t-14.5 22q4 10 21.5 10.5t21.5 2.5q-31 39 -27 49q2 2 17 2q8 4 21.5 -4t21.5 -4q-8 25 24 28q12 137 13 277q0 295 -52 610l-10 29q-4 12 6 20q6 6 31 0q12 -20 16 -20q4 2 8.5 10t9.5 17.5t17 5.5q4 -6 20.5 -43t20.5 -37t4 22v9 q0 59 25 59q10 0 19.5 -19.5t17.5 -19.5q10 0 25.5 23.5t19.5 21.5q57 0 57 -24q0 -4 -2 -9q-70 -430 -70 -782q0 -172 17 -340q141 -84 321 -84q274 0 443 178q12 242 12 402q0 463 -100 663q10 -4 28.5 11.5t26.5 15.5q14 2 22 -13q20 2 28.5 -12t17.5 -29q18 -18 22 -14 q-2 16 13.5 34.5t29.5 18.5q8 0 18.5 -18t24.5 -16q18 6 10 20q2 18 21 23q29 6 33 8q1 1 3 1q5 -1 13 -13q10 -16 10 -27q-59 -365 -59 -731q0 -141 8 -324q6 -139 25 -194q5 -25 34 -60q8 -14 9 -20q0 -8 -10 -8q-14 0 -46 16q14 -20 15 -33q0 -10 -17.5 -16t-13.5 -17 q-8 -6 -16 -6q-10 0 -25.5 20.5t-24.5 24.5q-12 -4 -8 -20q6 -27 6 -25q-4 -4 -6 -16q-2 -10 -14 -10h-4l-41 18q-18 20 -51 111q-182 -125 -443 -125q-213 0 -383 84q-180 90 -233 239z" />
<glyph unicode="V" horiz-adv-x="1533" d="M16 1241q35 18 39 12q12 -18 23 -2q0 6 10 17l8 4q6 0 16.5 -12.5t20.5 -10.5l3 -9t7 -9t7 2q4 25 8 31q6 16 26 22q-4 18 4 37q8 0 20.5 -8t18.5 -8q8 0 17 6q223 -152 530 -785q291 643 516 805q8 -6 15 -6q6 0 17 7q7 4 12 4q3 0 5 -1q8 -6 4 -16t3 -14q0 -4 -3 -27 q-2 -16 11 -18q8 4 22 30q10 20 23 21q6 0 14 -4q-4 -16 9.5 -23.5t15.5 -15.5q39 20 51 10q2 -8 15.5 -7t13.5 -5q-141 -90 -330 -375q-178 -270 -316 -584q72 -166 113 -286q-6 -10 -61 2q-8 -2 -13 -37q0 -14 -12 -17q-4 0 -20 9q-12 4 -19 -7q-4 8 -20 4q6 -20 -19 -24 q-14 53 -41 121q-25 -78 -35 -115q-8 -10 -18 -14q-12 2 -13 19.5t-5 21.5q-8 -12 -17.5 -25.5t-23.5 -9.5l-6 22q-4 6 -5 15q0 4 4.5 15t4.5 17t-4 13q-6 2 -10.5 -2t-6.5 -8q-23 -27 -37 -19q-4 2 -8 2t-13 -7t-18 -7q-2 10 11 35q35 121 100 282q-145 309 -328 572 q-193 274 -336 360z" />
<glyph unicode="W" horiz-adv-x="1830" d="M23 1298q0 10 20 11q20 2 23 -6q10 -20 22 -5q4 12 23 27q27 10 39 -27l4 -24q2 -4 22 2l2 39q0 23 21 24q16 35 24 33q6 -2 25.5 -16.5t32.5 -14.5q6 0 12 2q147 -496 207 -1048q182 408 272 924q0 14 19 14q16 0 48.5 -12.5t34.5 -12.5q10 0 22.5 26t25.5 26l14 -27 q4 8 20 2l11 -27q6 18 30 41q43 8 62 6q41 -688 221 -1118q37 279 119 676q96 471 104 524q12 2 18.5 20.5t14.5 18.5q4 0 12 -4q2 -12 16.5 -25.5t18.5 -21.5t12 -8q8 12 17.5 25.5t23.5 9.5q8 -14 27 -35q6 14 18 39q16 2 35 4t29 18q2 2 6 2q6 0 30.5 -17t26.5 -13 q-154 -260 -242.5 -618.5t-88.5 -715.5q0 -53 2 -104l-9 -6l-18 -12q-4 0 -7 9t-9 7q-4 0 -11.5 -10.5t-13.5 -8.5q-14 6 -33 29q-6 -25 -43 -43q-10 10 -35 29l-20 63q-29 10 -31 0q-6 -20 -12 -16q-16 12 -29 29q-2 12 -12 26q-2 0 -3 -12t-7 -19q-12 -6 -29 -24 q-2 -2 -4 -2q-14 0 -51 20.5t-39 30.5q-63 416 -78 504q-41 227 -84 352q-176 -313 -246 -850q-2 -4 -34 -6q-10 0 -15 -2q0 12 -16 25q-4 0 -15.5 -8.5t-19.5 -4.5q-4 8 -35 27q2 -10 3 -32.5t1 -33.5q-10 -6 -20 -6q-19 0 -43 19q-12 0 -18.5 -14.5t-18.5 -10.5 q-6 2 -13.5 11.5t-13.5 9.5q-4 0 -8 -2q-6 2 -10 14t-12 8q-2 -14 -11 -25q-10 -8 -10 0q-16 793 -321 1315q-2 4 -2 6zM1378 -66z" />
<glyph unicode="X" horiz-adv-x="1497" d="M18 106q190 150 324 287q84 86 281 297q-244 250 -498 443q-20 6 -23 28q-2 23 6.5 22t15.5 8t11 9q16 -2 37 6q-10 16 -8 25q4 16 22 43q-2 10 13 20q14 -12 43 -32l2 2q-8 16 -16.5 34.5t-4.5 32.5l23 8q14 6 22 2q219 -260 469 -524q268 305 426 553q29 -16 41 -33 q-4 -16 0 -49q10 4 19 10q12 4 18 -6q7 -11 7 -24q0 -21 -21 -45l2 -9q2 0 24 11q14 6 25 4q23 -31 55 -10q23 -8 49 -37q-2 -12 -14 -17q-229 -166 -516 -465q352 -358 612 -557q15 -5 15 -13v-24q2 -14 -16.5 -17t-22.5 -9l-25 4q-16 4 -20 -10q4 -6 28 -23q18 -12 19 -24 q0 -6 -4 -15q-27 8 -47 4q-25 -6 -19 -30q4 -20 2 -27q-10 -14 -12 -22q-16 -7 -34 -7t-38 7q-334 399 -557 638q-270 -299 -420 -534q-12 -27 -41 -82q-45 0 -67 29l-2 22q-8 -8 -37 -12q-4 10 -13.5 9t-13.5 9l27 39q-25 -8 -37 -8q-10 0 -20 16l2 39q-6 10 -13 11 q-8 0 -21.5 -18.5t-21.5 -14.5q-6 10 -19 12t-18 14z" />
<glyph unicode="Y" horiz-adv-x="1314" d="M18 1243q-4 4 -4 7q0 6 17 7q23 2 28 -6q12 -18 23 -2q2 6 -8.5 15.5t-10.5 11.5t3.5 4t17.5 0q18 -2 21.5 -13.5t11.5 -11.5q6 0 22 19q-2 18 2 22t29 13q-4 18 4 37q8 -2 19.5 -9.5t19.5 -7.5q6 0 14 4q295 -317 486 -571q213 336 329 573q12 -4 16.5 -30.5t12.5 -26.5 t31 25q6 4 10 4q6 0 15.5 -11.5t15.5 -13.5l6 -25q4 -16 18 -14q2 4 11 43q4 27 26 25q14 -31 41 -31q8 0 15.5 7t23.5 11q16 6 16 0q0 -4 -2 -6q-238 -276 -483 -676l62 -98q-11 -19 -38 -19q-11 0 -24 3q-12 -2 -11 -18.5t-13 -18.5q-2 0 -19 8q-12 6 -20 -4q-4 -2 -19 12 l-8 -14q0 -10 -4 -18q-4 -6 -6 0q-121 -209 -244 -451q-2 -12 -14 -31q-10 4 -21 -3q-9 -5 -16 -5h-4q-12 4 -10 21q2 20 0 24l-17 -18q-12 -10 -22 -11q-4 0 -11 2v23q-2 4 -2 10t9.5 22.5t5.5 26.5l-19 -8q-25 -20 -39 -10q-4 4 -10 4q-2 0 -13.5 -5t-17.5 -3q4 12 -32 41 q211 287 368 522q-240 324 -588 643z" />
<glyph unicode="Z" horiz-adv-x="1333" d="M29 -4q41 41 63 61l-24 4q-4 12 13 20.5t19 12.5h29l14 15q-4 4 -34 18q-20 8 -21 23q0 6 2 12q16 -2 23.5 16.5t15.5 22.5q-25 35 -16 49q16 -2 147 -21q453 477 653 869q-186 -20 -385 -21q-225 0 -389 27q-2 8 -4 14q-10 -2 -15 4t-5 11q0 6 10 16t10 18l23 11 q14 6 10 20h-43q-27 2 -29 25q16 6 15.5 20t5.5 21q-37 27 -35 36q2 2 4 7q0 4 -6 11t-6 11q0 2 2 4q248 -63 534 -63q195 0 389 30q12 41 27 97q20 20 51 28q12 -4 10 -20q-2 -20 0 -25l21.5 21.5t26.5 7.5q2 -2 2 -23q2 -6 2 -10q0 -8 -6.5 -20.5t-6.5 -18.5t2 -10l2 -2 l9 2q2 2 4 5l2 3q27 23 39 13q4 -4 8 -5q4 0 14.5 7.5t18.5 5.5q0 -10 29.5 -27.5t25.5 -21.5l-10 -23q29 -4 35 -14q0 -4 -17 -15q-4 -14 -43 -18l-14 -25q25 -4 24 -20q0 -10 -17 -19.5t-13 -15.5q-12 -10 -29 -10q-244 -432 -692 -944q50 -3 108 -3q78 0 170 5 q53 2 236 16q111 8 136 8h7q18 -6 19 -12q0 -4 -11.5 -11t-11.5 -11t31 -9q4 -14 -28 -25t-23 -26q0 -2 4 -5t2 -5q47 -12 47 -16q-2 -4 -10 -9q4 -18 25.5 -20t19.5 -23q-143 -45 -475 -45q-195 0 -400 17l-35 -41q-8 6 -18 6q-14 0 -31 -10q-23 -12 -25.5 -13.5t-7.5 -1.5 q-8 0 -15 13.5t-13 15.5q-4 12 -5 12t-18 2q-6 -14 -12 -25.5t-31 -6.5q0 16 -13 21t-17 11q-35 -29 -48 -22q-4 8 -17 4t-15 2z" />
<glyph unicode="[" horiz-adv-x="444" d="M41 1595q2 4 6 4t16.5 -7t20.5 -7q14 0 29 17q8 0 18 -14.5t21 -10.5q18 6 24 -6q2 49 23 53q8 0 46 -3t64 -3q92 0 174 33q57 23 78 14q12 -20 4 -33q-39 -12 -39 -26q0 -6 7.5 -15.5t7.5 -13.5q0 -2 -4 -4q23 -18 22 -33q0 -2 -24 -14q4 -8 30.5 -17.5t22.5 -29.5 q-2 -8 -16.5 -9.5t-12.5 -13.5l-12 -4q-121 23 -248 14q-45 -348 -45 -921q0 -424 33 -729q90 2 274 22q31 0 23 -10l-9 -23q-2 -10 -22 -12q-12 8 -18 -10q-2 -14 16 -23.5t18 -15.5q0 -12 -17 -27.5t-34 -13.5q-6 -6 14 -20q6 -2 31 -7q12 0 10 -18q14 -10 15 -20 q-2 -12 -25 -11q-23 2 -47 6q-92 0 -315 5q-4 2 -4 10q0 10 4 24q-8 6 -17 31l-4 12t-10 4q-10 -6 -10 -30.5t-13 -32.5q0 -10 -14 -23q-18 2 -23.5 20.5t-9.5 35.5q0 4 -12 -15.5t-18 -19.5q-4 0 -7 14q33 399 33 944q0 641 -49 951q-2 16 -6 32z" />
<glyph unicode="\" horiz-adv-x="864" d="M0 1339h16q23 -4 25 9q8 0 21.5 -21.5t21.5 -15.5q18 10 37 -17q12 -12 16 -10q4 6 4 12t-4 17.5t-4 17.5t4 12q0 20 4 23q14 4 37 -25q14 -20 29 -38q4 4 3 22t13 21q27 2 62 -9q86 -307 247 -702q191 -465 332 -647q-2 -4 -6 -4q-2 0 -9 3t-9 3q-4 0 -9 -4 q-12 -4 -43 26q-4 -6 -18 -8t-16 -20q-25 -2 -41 28q-23 39 -27 41q-12 -4 -10 -18q2 -29 2 -27q-6 -4 -9 -15t-10 -11q-4 0 -10 4q-43 -6 -96 -2q-96 334 -262 735q-154 375 -291 620z" />
<glyph unicode="]" horiz-adv-x="430" d="M-154 -193q2 8 16.5 9.5t12.5 13.5l10 4q133 -20 248 -14q45 346 45 915q0 422 -33 725q-88 -2 -272 -22q-31 0 -23 10q2 2 9 20q2 12 20 15q14 -8 21 10q2 14 -16.5 22.5t-18.5 16.5q0 6 6 14q23 29 45 27q6 6 -14 18q-4 2 -31 6q-12 2 -10 21q-14 8 -15 20q2 10 25 9 q23 -2 45 -7q92 0 315 -4q6 0 0 -34q6 -6 17 -29l2 -9q2 -10 10 -10q12 8 12 33t13 31q2 10 12 22q18 -2 23.5 -19t9.5 -34q0 -4 12 14.5t18 18.5q4 0 7 -14q-33 -387 -33 -926q0 -643 49 -954q2 -19 6 -35q-2 -4 -6 -4t-16.5 7t-20.5 7q-14 0 -29 -16q-8 0 -17 14t-23.5 10 t-20.5 6q-2 -47 -25 -51q-8 0 -44.5 3t-63.5 3q-92 0 -174 -32q-55 -23 -76 -17q-14 20 -6 33q41 12 41 29q0 6 -7 15t-7 11q0 4 4 6q-25 14 -23 31q8 4 23 14q-4 8 -30 17.5t-22 29.5z" />
<glyph unicode="^" horiz-adv-x="643" d="M20 1030q-10 0 0 14q147 131 238 310l-29 28l-10 15q14 4 31 18q8 -6 24 -4q6 6 19 -2q8 4 14 10q-10 10 -6 17v12q6 2 29 -14q-4 10 4 26q10 4 18 -22q4 -6 10.5 -19.5t8.5 -19.5q6 6 8 6q6 0 12 -10q4 -4 19 6q4 -4 3 -11.5t11 -7.5q20 -6 14 -12q-12 -10 -37 -35 q72 -131 217 -309q4 -4 5 -6q0 -2 -2 -2t-7.5 2t-7.5 2h-2q0 -4 6 -10l-2 -2q-6 2 -18 -6q-6 6 -23 6q-10 -8 -20 8l-10 4q-4 -6 2 -16q4 -10 0 -17q0 -12 -2 -14q-2 0 -27 18q-2 2 -3 -10t-3 -12q-4 2 -6 6q-57 104 -166 283q-111 -133 -174 -295q-10 -2 -29 0q-6 2 -6 10 q-12 6 -12 39q-6 10 -7 10q-8 -12 -24 -12q-10 -2 -10 4t-1 12t-8 8q-10 6 -12 -3t-12 -7q-14 4 -17 4z" />
<glyph unicode="_" horiz-adv-x="1482" d="M41 -186q0 6 2 12q16 -2 22.5 17.5t14.5 23.5q-27 37 -19 47q426 -31 891 -18q418 10 443 16q23 8 26 -2q4 -12 -9 -21.5t-13 -15.5t2 -10q-4 -4 -4 -8q37 -17 35 -31q-4 -20 3 -48t7 -32q0 -20 -35 -27q-145 -2 -401 2q-317 4 -431 5q-293 0 -530 -17q-8 20 10 51h27 q14 2 16 15q-6 6 -31.5 16t-25.5 25z" />
<glyph unicode="`" horiz-adv-x="333" d="M20 1374q8 10 17 6q14 -6 16 -6q20 -20 39 -14q2 8 -5 24.5t-7 20.5q0 8 14 10q4 -12 22.5 -22.5t20.5 -12.5q35 61 47 60q53 -137 129 -266q6 -12 0 -23q-4 -12 -16 -12q2 0 -12 6q-8 2 -15 -8q4 0 -53 41q10 -76 0 -80q-20 -6 -33 -29l-16 23q-6 31 -148 282z" />
<glyph unicode="a" horiz-adv-x="1378" d="M14 -25q74 94 195 312q-68 6 -109 14q-4 14 13.5 21.5t19.5 11.5h27q14 0 16 14q-4 4 -33 19q-23 8 -22 22q0 6 2 12q16 -2 23.5 17.5t15.5 21.5q-25 39 -17 49q88 -27 150 -40q143 279 274 591q-72 197 -112 324q6 10 28.5 10t31.5 3t9 9q0 4 -2 9.5t-2 7.5q0 4 8 6 q8 4 25.5 -3t19.5 -7q6 0 9 4q-4 10 8 21.5t22 11.5q4 0 4 -2q20 -88 44 -162q16 47 47 133q8 14 16 16q14 -2 14 -20.5t4 -22.5q8 12 18.5 24.5t24.5 8.5q4 -2 5 -22q4 -6 4 -11q0 -6 -5.5 -15t-5.5 -15q0 -4 4 -11q6 -2 17 2q25 29 26 29q2 0 6.5 -2t8.5 -2t11 6t15 6 q14 -14 -2 -43q-41 -113 -129 -305q123 -326 279 -598q47 12 104 25q25 8 29 -2q2 -14 -17.5 -21.5t-13.5 -21.5l12 -2q11 -2 9 -5q20 -8 14 -36q-8 -8 -8 -15q0 -6 11 -16t7 -14q-37 -14 -67 -23q147 -227 258 -295q4 -4 4 -8q0 -12 -19 -12q-18 0 -32.5 17t-24.5 1 q8 -10 0 -25l-8 -4q-6 0 -15.5 12.5t-21.5 10.5q-2 2 -4 10t-4 8q-4 0 -6 -2q-4 -23 -8 -30q-8 -16 -29 -23q6 -18 -4 -37q-8 0 -19.5 8.5t-17.5 8.5q-8 0 -16 -7q-94 88 -226 334q-108 -10 -231 -10t-260 10q-59 -160 -90 -297q-23 4 -54 4q-20 0 -43 -2q-6 -4 -8 -4 q-6 0 -10 11.5t-10 15.5q0 -2 4 26q2 16 -12 21q-4 -2 -27 -43q-16 -31 -39 -27q-2 16 -14 19q-18 2 -23 10q-29 -35 -43 -29q-6 8 -18.5 3t-14.5 1zM473 418q122 -16 244 -16q61 0 121 4q-90 188 -187 425q-61 -135 -178 -413z" />
<glyph unicode="b" horiz-adv-x="1404" d="M33 1276q0 8 22 16q225 10 449 19q209 14 471 71h2q5 0 17 -4q16 -6 -1 -30q-18 -4 -18 -11q0 -4 5 -10t5 -8q0 -6 -14 -10q100 -33 155.5 -117t55.5 -188q0 -133 -84 -240l80 8q2 -4 2 -8q0 -8 -13.5 -15.5t-17.5 -13.5q-6 4 -14 -16l42.5 -17t14.5 -32q-14 2 -18 -8 q208 -74 208 -334q0 -139 -65.5 -268.5t-171.5 -184.5q-4 -2 -8 -2q-8 0 -15.5 12.5t-13.5 14.5q0 10 -1 21t-15 13q-2 -2 -17 -32q-10 -20 -33 -15q2 14 -12 18.5t-18 10.5q-23 -16 -60 2q25 16 35 27q-121 -23 -250 -23q-162 0 -325 35q-4 -6 -15 -14q-12 -4 -17 5t-9 19 l-9 2q-2 -14 -5 -28.5t-17 -18.5q-2 0 -14 19q-10 6 -11.5 20t-13.5 21q-6 0 -11 -17.5t-26 -15.5q-10 2 -16 -10.5t-12 -14.5q-12 4 -43 21q-4 -23 -33 -23q-12 0 -8 19q8 27 20 84q-18 6 -90 34q-6 8 0 15l10 12q-2 14 10 14l23 2q0 18 -4 23q2 4 2 10t-14.5 15.5 t-12.5 21.5q20 8 23 21v20q4 6 24 2q12 -2 58 -10q20 162 20 340q-18 2 -21 14t-10 10q-20 -8 -26 2q-4 12 14.5 20.5t18.5 16.5v7t-5.5 7.5t-5.5 6.5q-55 14 -53 45q25 10 25 26q0 14 -26 36t-26 26t15 4q33 -2 94 -10q-12 176 -37 317q-23 -6 -67 -22q-14 8 -13 26 q2 4 10.5 8.5t6.5 10.5q-4 4 -23.5 9t-19.5 17q10 6 10 17q0 4 -2 12t-2 12q0 12 22 13q1 6 1 11q1 35 -31 59q-36 28 -37 30zM393 571q0 -240 15 -419l6 -2q203 -68 393 -68q311 0 360 201q2 23 2 47q0 203 -188 248q-143 11 -274 11q-167 0 -314 -18zM393 741 q107 -6 205 -6q78 0 150 4l-7 2q117 0 187 70q63 59 63 143q0 78 -53 127q-62 56 -168 56q-35 0 -35 30q-164 0 -315 -30q-20 -168 -27 -396z" />
<glyph unicode="c" horiz-adv-x="1290" d="M31 1180q-3 3 -3 6.5t3 7.5q31 12 75 27q-4 35 -16 92q14 18 31 12q2 -8 13 -7t16 -3q29 -29 32 -27q2 10 15 25q8 -2 25.5 7t27.5 5q8 8 24 2q8 -10 7 -29q-2 -29 -2 -30h4q8 18 17 38.5t24 26.5h5q21 0 46 -14q-6 -10 -15 -35q231 45 482 45q197 0 387 -29q2 -6 2 -10 t-8.5 -9t-11.5 -9t-15 -4v-13q-2 -8 -2 -14q43 -12 35 -37q-16 0 -21.5 -19.5t-13.5 -23.5q29 -33 29 -57q0 -18 -27 -14q6 -49 27 -95q17 -41 17 -62q0 -8 -3 -13q-16 -16 -33 -7q-12 39 -26 39q-6 0 -15.5 -7t-11.5 -7q-4 0 -6 4q-18 -23 -33 -22q-2 0 -14 24 q-8 -4 -19 -35q-8 -23 -28 -18q-8 2 -9.5 17.5t-13.5 13.5l-4 10q20 115 20 201q-122 22 -292 22h-15q-242 0 -415 -27q-33 -188 -33 -444q0 -305 43 -530q160 -41 334 -41q201 0 374 55q4 117 4 175v32q-4 25 -6 47q-2 23 11 22q12 2 20 -12q20 2 23 -12q2 -25 6 -31 q12 -18 20 -12q-2 14 13.5 32.5t29.5 18.5q8 0 18.5 -19.5t24.5 -15.5q16 4 15.5 21.5t9.5 19.5q23 6 22 6q13 9 13 -22q-12 -61 -17 -158q-8 -117 -12 -151q-2 -2 -33 -17l6 -6q8 0 19 -12q-2 -14 -17.5 -19.5t-29.5 -9.5q-4 0 13 -11t17 -16q-2 -4 -12 -4 q-238 -67 -498 -67h-8q-229 0 -452 51q-14 -10 -25 -8q-8 0 -20 16q-10 -4 -19.5 -26.5t-32.5 -18.5q-8 2 -22.5 16.5t-28.5 12.5l-6 10q4 14 8 39l-14 4q-16 4 -33 23q0 6 9.5 10t4.5 14q-14 10 -14 16q0 2 23 13q14 14 14 20q-10 4 -37 27q-2 0 9.5 5t11.5 17t-15 31 q0 29 0 27q4 12 29 12q16 -14 41 -25q19 182 19 389q0 84 -3 173q-4 121 -20 297q-37 -10 -41 -13q-25 -8 -29 4t10.5 21.5t14.5 15.5q0 4 -2 10q4 4 4 23l-25 2q-12 0 -10 14q-6 6 -10 11z" />
<glyph unicode="d" horiz-adv-x="1492" d="M31 199q-2 10 5 16t19 2q33 -12 144 -35q26 166 26 377v16q0 328 -51 562q-96 -10 -115 -17q-27 -8 -24 2q-2 12 12 23q-2 20 12.5 28.5t32 19.5t10.5 17q-20 -2 -47 29q-6 8 -6 14q0 8 18.5 18.5t16.5 24.5q-6 16 -21 13q-18 4 -18 14q2 10 12 10q126 -19 315 -19 q41 0 85 1q201 4 401 10q0 8 7 14.5t5 16.5q-4 10 -2 16q10 6 37 17q-2 4 0 20q4 14 10 14t11 -8q229 -233 417 -336q12 27 31 25q8 -2 20.5 -16.5t26.5 -12.5l4 -10l-2 -25l33 -16q-6 -31 -22 -37q-6 -2 -17 4q-18 -170 -18 -323q0 -168 22 -328q-8 -18 -26 -12 q-2 8 -12.5 7t-12.5 3q-8 8 -10 12q-31 -23 -103 -82q-82 -55 -163 -110q-117 -84 -189 -201q-18 -2 -20 8l2 31q-4 4 -27 -4q-8 -2 -18 -4q-10 10 -11 14q0 -4 27 21q0 2 10 10q6 4 0 4q-6 -6 -18 -2q-6 -6 -10 -6q-221 -14 -426 -19q4 -18 8 -47q-14 -18 -29 -10 q-4 6 -15 5t-16.5 6t-13.5 17.5t-18 8.5q0 -12 -15 -25q-8 2 -24.5 -8t-26.5 -6q-6 -6 -26 -2q-2 4 -2 57h-7q-8 -18 -17 -37.5t-24 -25.5h-5q-21 0 -44 16q12 23 17 43q-59 -4 -105 -14q-10 0 -10 10t18 14q14 -8 21 11q2 14 -16.5 24t-18.5 19q0 14 18.5 29.5t34.5 13.5 q6 8 -11 18t-31.5 19.5t-12.5 29.5q-14 8 -12 23zM375 461q6 -160 18 -289q30 -1 64 -1q151 0 372 15q287 148 396 312q14 78 14 172q0 98 -16 235q-123 154 -346 275q-88 -2 -187 -6q-84 -4 -282 -17q-36 -235 -36 -521q0 -85 3 -175z" />
<glyph unicode="e" horiz-adv-x="1280" d="M29 1139l18 12q8 12 29.5 11t27.5 9q0 6 -8 9l-8 4q-31 8 -29 26q2 12 -10 19.5t-14 13.5q4 4 4 8t-5 10.5t-5 8.5l4 8q10 2 18 2q-8 8 -16 18q6 2 12 7q43 -12 92 -19q-4 20 -14 57q31 20 53 9q2 -8 19 -23q6 2 18 18.5t29 12.5q4 -16 30.5 -20.5t26.5 -16.5 q0 -6 -2 -12q10 2 26.5 22.5t28.5 20.5q8 0 19 -6q4 2 16 11t21 9q6 0 14 -6q0 -4 10 -15.5t6 -25.5q-6 -18 -18 -59q94 -4 196 -5q414 0 582 41q35 2 39 2q8 -2 8 -16q2 -12 -12 -16q-20 -4 -25 -11q14 -4 29.5 -11t15.5 -21q-2 -6 -20 -11q-8 -10 -29.5 -8t-27.5 -6 q-2 -8 3 -10t9 -4q31 -14 27.5 -27.5t9 -23t12.5 -15.5q-8 -8 -4 -32.5t-2 -30.5q-8 2 -31 6q-338 51 -672 51q-72 0 -137 -2q-20 -150 -31 -358q155 30 333 30h12q109 0 225 -10q2 -4 2 -8q0 -8 -13.5 -15.5t-17.5 -13.5q-12 0 -26.5 -1t-16.5 -15q2 -2 41 -16 q25 -10 19 -33q-16 2 -21.5 -12.5t-13.5 -18.5q25 -29 25 -48q0 -6 -3 -11q-204 30 -367 30h-10q-92 0 -172 -10q-1 -40 -1 -79q0 -185 16 -339l22 -2q100 -8 217 -8q354 0 545 59q8 2 17 3q14 0 14 -15q0 -27 -27 -57q8 -4 13.5 -23.5t21.5 -19.5q8 -23 -16 -31 q-37 -16 -39 -18q2 -14 16 -15q25 -2 27 -2q2 -6 10 -11t8 -9t-2 -10q-225 -41 -440 -41q-186 0 -367 30l2 -8q-10 -2 -15 -16.5t-13 -16.5q-14 -4 -21.5 13.5t-13.5 19.5q-2 -14 -6 -30.5t-19 -18.5l-12 18q-12 6 -13 21.5t-12 21.5q-8 0 -10 -8l-2 -8q-2 -20 -27 -18 q-10 2 -16 -9.5t-12 -13.5q-12 4 -43 21q-4 -18 -33 -19q-12 0 -6 19q18 57 26 90q-14 2 -84 24q-8 8 -2 15q6 6 13 12q-2 14 10 14q23 2 22 2q0 18 -4 23q2 4 2 10t-14 15.5t-12 21.5q4 12 28 5q12 -4 70 -13q33 180 37 374q-23 -2 -61 -12q-23 -8 -27 2q-4 12 9 22.5 t13 16.5q0 4 -4 10l4 9q-37 10 -36 28q2 4 2 8t-9.5 7.5t-5.5 9.5q37 16 115 41q-6 186 -35 379q-63 -6 -119 -19q-12 2 -12 6t16.5 15.5t12.5 11.5q-14 4 -29.5 9t-17.5 20z" />
<glyph unicode="f" horiz-adv-x="1320" d="M29 1270q0 8 14 14l4 8l10 6q102 -31 158 -36q-4 90 -8 133l6 6q16 -8 33 -17q27 -14 51 -18q0 2 16 -31q2 -2 4 -2t11.5 20.5t23.5 16.5q6 8 19 19q23 -2 29 -24t22 -22q10 14 33 37l8 -16q-20 -61 -21 -96l-4 -17q551 14 819 82q16 -6 41 -24q-8 -20 -26 -43 q-8 -4 -23 -21q14 0 37 -12q-4 -16 -25.5 -24.5t-27.5 -18.5q20 -6 29.5 -27.5t17.5 -42.5q0 -29 -25 -33q-139 18 -354 19q-219 0 -491 -19q-27 -203 -31 -409q219 33 477 33q141 0 266 -11q6 -14 -10 -22t-17 -11t-28 -5q-14 -2 -16 -17l41 -16q25 -8 16 -31 q-16 0 -21.5 -14.5t-11.5 -18.5q39 -39 39 -84q0 -18 -20 -14q-262 55 -547 55q-92 0 -166 -8q6 -268 49 -530q18 -35 14 -52q-6 -4 -12 -4t-17.5 5.5t-17.5 5.5q-12 0 -18 -25q-14 -2 -19 2q-4 2 0.5 10t-0.5 23q-2 14 -10 14q-10 -4 -20.5 -24.5t-20.5 -20.5q-6 0 -14 4 l-6 35q-10 -6 -19.5 -33.5t-21.5 -27.5q-8 0 -16.5 6t-37 16t-30.5 21q43 225 59 546q-31 -4 -40 5.5t-13 7.5q-23 -10 -29 0q-4 12 9.5 22t13.5 17q0 4 -4 10q4 4 4 8q-37 14 -37 29q0 2 -12 12q-6 4 0 12q37 16 112 39q3 77 3 166q0 119 -5 260q-57 -2 -141 -22 q-23 18 -47 61q20 6 47 31q-2 2 -19.5 6t-15.5 18q18 4 39 25q-16 4 -41 27q6 12 -6 29.5t-12 21.5z" />
<glyph unicode="g" horiz-adv-x="1415" d="M37 205q18 14 18 18q0 2 -5 8.5t-5 14.5q0 23 6 22l10 -2q6 -2 10.5 2t4.5 23q-23 29 -21 35h17q8 4 21 -4.5t22 -4.5q-4 8 -4 15q0 8 10 6l6 -2q4 -8 18 -23q14 152 15 316q0 217 -25 438q-14 -4 -43 -12q-23 -8 -26 2q-4 12 9 21t13 16q0 6 -2 10q4 2 4 22l-22 2 q-12 0 -13 15l-10 10q-6 6 0 14q49 20 74 29q-4 37 -17 111q10 2 16.5 15t14.5 15q12 4 20.5 -12t12.5 -18q2 14 6 30.5t18 18.5q6 0 15 -19q12 -6 13 -20t11 -21q6 0 9 8l2 9q2 18 26 16q10 -2 16.5 10.5t12.5 14.5q14 -4 43 -21q4 20 33 21q12 0 6 -19q-2 -27 -10 -69 q221 47 458 47q319 0 555 -78q4 -14 -4 -16q-14 -6 -18 -11q-2 0 -25 2q-16 0 -18 -12q4 -6 28.5 -18.5t24.5 -26.5q0 -6 -4 -12q-12 2 -14 -20.5t-11 -22.5q-6 0 -16 6q-14 -25 -4 -41t-10 -29q-217 109 -584 109q-190 0 -377 -31q-24 -211 -24 -399v-15q0 -240 38 -508 q158 -49 345 -49q229 0 389 76q1 30 1 59q0 138 -16 267h-34q-250 0 -406 -56q-16 -4 -25 -4q-18 0 27 45l-13.5 13.5t-6.5 13.5q-2 18 15 30.5t35.5 24t12.5 17.5q-16 -2 -34.5 11t-18.5 24q0 6 17.5 16t13.5 22q-6 12 -19 9q-18 0 -24 16q-6 27 -9 29q-14 10 23 10 q180 -51 438 -51q45 0 134 8t134 8q29 0 29 -12q0 -8 -10 -12.5t-13.5 -17.5t-15.5 -19q25 -14 25 -29q-8 -4 -25 -14q4 -6 35 -15q22 -6 20 -24q-2 -6 -16 -17.5t-12 -23.5q-8 -11 -49 -11q-12 0 -27 1q-8 -73 -8 -141v-27q10 -2 14 -14.5t10 -12.5q23 0 31 6q33 0 33 -4 q0 -2 -14.5 -14.5t-18.5 -20.5q-8 -23 2 -24q16 14 39 6q16 -6 16 -15q0 -6 -5 -17t-5 -17q0 -8 6 -15q4 -4 -6 -28q-33 -31 -82 -66q6 -53 27 -164l2 -43q-2 -10 -16 -10q-14 -2 -20.5 17.5t-10.5 23.5q-6 -16 -13.5 -32.5t-23.5 -16.5q-2 0 -12 22q-12 10 -9 34t-8 32 q-8 2 -10 -4t-4 -13q-14 -33 -35 -26q-10 4 -20.5 -10.5t-18.5 -14.5q-8 8 -23.5 3t-21.5 3q2 16 -6 33q6 31 12 68q-174 -57 -381 -58q-164 0 -313 37l6 -30q-31 -20 -51 -11q-2 10 -18 23q-6 -2 -19.5 -17.5t-27.5 -11.5q-4 14 -34 18.5t-24 28.5q-10 -2 -17 -10t-11 -8 q-6 0 -23 10q-4 -2 -18.5 -19.5t-22.5 -17.5q-6 0 -8 4t-11.5 15.5t-7.5 25.5q12 63 21 113q-51 35 -86 80z" />
<glyph unicode="h" horiz-adv-x="1259" d="M35 575q57 27 100 41q0 334 -35 609q10 2 16.5 15t14.5 15q12 4 20.5 -13t12.5 -19q4 14 8 29.5t18 17.5l13 -19q10 -6 11 -27.5t11 -27.5q2 0 11 14q10 33 28 29q10 -2 17.5 11.5t13.5 15.5q4 -4 6 -4q6 0 13.5 9t13.5 9q2 0 6 -2t8 -2q6 0 18.5 3t18.5 3q8 0 8 -6 l-4 -12q-57 -225 -84 -607q225 43 510 43q80 0 160 -4q-14 299 -95 609q16 4 52 0q4 -18 28.5 -16.5t24.5 -16.5q2 -27 -2 -35q2 -4 10 -4q8 27 29 29q8 18 35 47q8 4 18 0q14 -4 16 -4q8 0 13 10q10 0 16 -17.5t29 -1.5q10 4 18 7.5t15 1.5q6 -2 4 -15q-18 -100 -39 -276 q-14 -119 -23 -287l-2 -39q66 -6 109 -12q2 -4 2 -8q0 -8 -14.5 -14.5t-16.5 -9.5t-27 -5q-14 -2 -16 -14q2 -2 41 -19q25 -10 16 -33q-16 2 -21 -17t-13 -24q29 -35 20 -47q-25 6 -82 15q10 -233 86 -502q-12 4 -25.5 -12.5t-21.5 -16.5q-14 -2 -23 15h-2q-23 0 -57 53 q-12 20 -20 12q2 -14 -14.5 -32.5t-28.5 -18.5q-8 0 -18.5 18.5t-24.5 14.5q-16 -4 -11 -19q-2 -18 -22 -22q-29 -6 -31 -8q-12 -8 -12 22q76 229 82 514q-150 14 -303 14q-180 0 -320 -20q-18 -2 -55 -8q0 -279 76 -527q-31 -20 -54 -6q0 10 -16 23q-6 -2 -19.5 -16.5 t-29.5 -10.5q-4 14 -29.5 19.5t-25.5 19.5q0 4 2 12q-10 -2 -26.5 -21.5t-29.5 -19.5q-10 0 -20 9q-2 -2 -14.5 -11.5t-20.5 -9.5t-16 8q0 4 -8.5 13.5t-8.5 17.5q0 4 2 10q70 174 80 445q-23 -8 -49 -19q-23 -8 -27 2q-4 12 9.5 21.5t13.5 17.5q0 4 -4 11q4 4 4 8 q-37 10 -35 26q6 10 6 19q0 12 -11 18q-8 4 -8 9q0 1 1 3z" />
<glyph unicode="i" horiz-adv-x="368" d="M41 0q57 274 57 623q0 84 -4 172q-14 360 -49 518q14 18 29 12q4 -8 15 -7t15 -3q29 -29 33 -27q2 10 15 25q8 -2 25.5 7t27.5 5q6 6 24 2q2 -4 2 -59h5q10 29 43 65h5q20 0 44 -14q-86 -186 -86 -645q0 -383 63 -613l21 -73q-31 -18 -50 -6q-23 31 -47 30q-12 0 -20 -8 q-12 -18 -39 -14q-2 0 -18 22q-10 -4 -23 -32q-8 -19 -29 -19h-2q-10 2 -24.5 16.5t-28.5 12.5z" />
<glyph unicode="j" horiz-adv-x="1392" d="M31 438q0 33 12 23q2 -2 23 -8q10 -2 12 -21q-4 -18 12 -18q14 -4 24.5 15.5t18.5 19.5q6 0 14 -7q31 -27 29 -47q8 -4 21 15q4 6 8 28q2 14 20 13q8 16 21 14q12 0 10 -23t-6 -47v-31q0 -56 4 -169q172 -68 348 -68q80 0 156 14q39 223 39 502q0 86 -4 162 q-10 180 -29 330q-190 -25 -340 -62q-53 2 -53 21q0 10 22 18q4 2 4 6q0 2 -3 10.5t-3 14.5q0 12 17 22q-2 2 -19.5 7.5t-15.5 17.5q18 4 39 24q-16 4 -41 29q4 10 -7.5 27.5t-11.5 21.5q0 8 15 15l4 8l10 6q80 -23 362 -43q-6 41 -12 68q12 20 29 12q4 -6 15 -5t17.5 -5.5 t14.5 -16.5t16 -8q4 20 15 25q8 -2 24.5 8t26.5 6q6 8 26 4q2 -20 5 -59h4q18 0 23 30.5t16 36.5h4q14 0 34 -14q-4 -27 -8 -76q199 8 334 53q14 -4 41 -22q-6 -16 -27 -45q-10 -4 -24 -19q6 -4 20.5 -5t18.5 -7q-4 -16 -25.5 -24.5t-27.5 -18.5q20 -8 29 -28.5t18 -41.5 q0 -16 -11 -18q-137 34 -305 34q-26 0 -53 -1q-18 -276 -18 -539q0 -242 16 -387q37 16 86 51q25 0 29 -12q-2 2 -4 -27q-14 -18 -15 -30q0 -12 11 -17l10 -6q-10 -4 -37 -27q-2 -6 12 -20q23 -10 23 -12q0 -6 -15 -17q-4 -10 5.5 -14t9.5 -12q-8 -6 -35 -21 q-225 -86 -453 -86q-229 0 -510 86q-12 2 -12 6t17.5 14.5t13.5 10.5q-14 4 -29.5 10t-17.5 21q2 4 6 8q-12 4 -15 8q-4 100 -28 309z" />
<glyph unicode="k" horiz-adv-x="1314" d="M41 649q14 12 14 19q0 4 -4 8t-4 6q0 6 35 25q6 2 17.5 6t17.5 6q-6 297 -49 596q-2 4 6 13t10 11q6 12 18 4q4 -27 31 -28.5t29 -24.5l6 -6q4 4 3 26.5t13 24.5q12 2 21 -25.5t22 -27.5q18 39 43 35q14 29 27 16q4 -10 14 -6t15 0q-27 -141 -39 -489v-43 q223 111 418 252q227 162 323 305q4 4 8 4q6 0 17.5 -6.5t17.5 -6.5t10 5q14 0 17 -15v-20q2 -14 -13 -47q10 -10 48 -9q29 4 34 -20q0 -6 -13 -18.5t-13 -20.5q0 -6 8 -14l16 -8l-6 -23q-102 -88 -201 -162q-233 -176 -409 -252q57 -299 250 -463q166 -145 375 -145 q51 0 100 10q6 -6 2 -20.5t4 -22.5q0 -6 -13.5 -14t-9.5 -18q8 -23 -24 -31q-14 -14 -14 -15q8 -10 29.5 -7t29.5 -7q8 0 20 -10q0 -14 -15 -21.5t-30 -11.5q4 -4 25 -10q14 -4 12 -19q-2 -8 -13 -15t-11 -17q-25 -4 -58 -4q-147 0 -270 61q-453 182 -567 692l-82 -35 q8 -297 8 -315q8 -162 37 -309q-12 -14 -29 -8q-4 2 -8 10t-10 6q-4 -2 -11.5 -21.5t-19.5 -17.5q-4 12 -18 12q-2 0 -9 -2h-10q-14 0 -12 25q-8 -6 -17.5 -31.5t-21.5 -25.5q-4 0 -10 4q-2 -2 -11.5 -15.5t-17.5 -13.5q-4 0 -8 2q-16 10 -41 33q35 317 37 606l-31 -8 q-10 4 -8 22q6 25 4 29q18 12 18 14q-14 6 -32 23q-12 0 -27 14z" />
<glyph unicode="l" horiz-adv-x="1114" d="M25 121q-3 3 -3 6.5t3 7.5q51 18 112 31q29 178 29 463q0 328 -35 680q20 12 55 28q12 4 19 -13t12 -19q4 14 9 29.5t20 17.5l12 -19q12 -8 11 -29.5t10 -27.5q8 0 10 8l2 8q8 31 28 29q10 -2 16.5 10t14.5 15q8 -6 21.5 0t21.5 0q7 -4 27 6q11 6 16 6q4 0 4 -4t-2 -11 q-114 -292 -114 -722v-7q0 -217 30 -415q141 14 303 14q228 0 435 -27q1 -3 1 -6q0 -10 -12 -14q-20 -8 -22 -14h-25q-16 2 -18 -13q6 -6 35 -18q20 -8 20 -23q0 -6 -2 -12q-10 0 -10 -8q0 -2 2 -8v-9q0 -18 -29 -16q-2 -10 9.5 -16t11.5 -15q0 -6 -4 -16q-90 29 -273 45 q-138 12 -273 12q-60 0 -120 -2q10 -53 25 -94q-19 -12 -35 -12q-11 0 -19 6q0 10 -16 24q-8 -2 -19.5 -15t-19.5 -13q-6 0 -10 2q-4 14 -30 19t-26 20q0 4 3 12q-10 -2 -26.5 -21.5t-29.5 -19.5q-10 0 -20 8q-4 -2 -16.5 -10t-20.5 -8t-11 4t-12.5 17.5t-5.5 27.5 q4 8 10 27q-25 -4 -34 -9q-25 -2 -29 5q-2 12 11.5 21t13.5 15t-3 11q2 4 7 8q-37 14 -35 31z" />
<glyph unicode="m" horiz-adv-x="1691" d="M29 -39q106 205 165.5 473t59.5 533q0 201 -35 366l10 6q4 2 13 11q4 0 11 -10.5t13 -8.5q6 -1 6 21q0 20 8 20h1q2 -6 22.5 -16t13.5 -27q12 -10 23 0q0 29 25 43l38 -16l19 -64q31 -10 33 0q6 23 12 17q4 -2 14 -19q2 -8 4 -20.5t21 -16.5q2 0 4 12.5t6 18.5 q14 4 31 23q4 10 35 10q31 2 32 -12q98 -489 224 -881q100 254 227 872q18 10 43 25q2 -10 16 -25q4 0 16.5 8.5t20.5 4.5q2 -8 12.5 -15.5t10.5 -13.5t-6 -16q16 -16 20 -13q4 16 21 29q2 12 5 34.5t3 33.5q10 6 20 6q19 0 43 -19q12 -2 18.5 12.5t18.5 10.5 q4 -2 11.5 -11.5t13.5 -9.5q4 0 8 2q6 0 4 -8v-10q4 -6 18 -2q-2 20 9 27q12 6 14 -5q-25 -238 -25 -401q0 -260 60 -479q65 -240 221 -502q1 -4 1 -7q0 -8 -6 -14q-9 -8 -20 -8q-6 0 -6 4q0 23 -18 13q-16 -20 -29 -21q-14 -2 -17 16.5t-14 20.5q0 -2 0 12q0 10 -8 9 q-26 -33 -50 -33h-5q-4 -3 -8 -19q-4 -14 -11 -14h-2q-37 23 -59 23q-10 0 -21.5 -6.5t-19.5 -6.5q-14 0 -41 23q-115 455 -121 1018q-209 -494 -284 -959q-2 0 -28 28t-32 25q-10 0 -19 -26.5t-22 -28.5l-18 27q-6 -10 -21 -6l-12 24q-2 -16 -27 -43q-27 -6 -26 -10 q-39 305 -123 637q-88 346 -164 483q-4 -690 -94 -1130q-10 -2 -25.5 -19.5t-27.5 -17.5q-6 0 -15 6q-12 14 -30 51q-2 6 -13 6q-8 -10 -18 -22t-25 -8q-6 14 -24 34q-6 -12 -23 -36q-16 0 -34.5 -2t-26.5 -13.5t-25 -7.5q-18 4 -20 0z" />
<glyph unicode="n" horiz-adv-x="1400" d="M43 1290q-2 2 -2 4q1 6 11 10q14 8 22 5q39 0 63 -23q0 -14 13 -35l16 29q10 18 27 16q4 8 16 21q20 -2 55 -41q4 4 5 24.5t12 20.5q4 0 12 -4l10 -14q2 -2 14.5 3t24.5 5q16 -2 10 -17q-39 -68 -59 -233q18 10 18 16q-2 16 21 39q20 -18 28 -18q6 0 7 6q0 10 -9 26 q-4 12 11 17q16 4 22 -4q59 -303 258 -527q193 -215 449 -290q10 143 10 299q0 381 -59 702q14 2 25 2q35 1 38 -19q4 -26 21 -26q14 0 20 12q14 25 21 25q8 2 10 -23.5t26 -29.5q2 18 4.5 34.5t30.5 12.5q9 22 22 22q4 0 9 -2q4 -4 9 -21.5t18 -13.5q25 29 51 29q6 0 6 -6 q-74 -283 -74 -793q0 -373 60 -544q0 -2 -7.5 -7.5t-5.5 -11.5q6 -8 2 -14t-10 -4q-10 -1 -18 -1q-38 0 -45 23v25q-2 14 -13 10q-18 -8 -23 -24.5t-9 -16.5t-19 8q-16 -4 -19 -17t-5 -15q-14 2 -23 14q-14 20 -18 25q-2 -4 0 -27q2 -18 -11 -19q-6 0 -16 5l-10 16 q-2 4 -15.5 -2t-25.5 -4q-14 0 -8 14l4 10q14 66 24 140q-272 117 -483 327q-201 203 -313 457q-2 -68 -3 -141q0 -457 78 -715q10 -37 6 -51q-6 -10 -14 -23q-6 -8 -35 4q-14 20 -16 21q-4 0 -9 -7.5t-11.5 -15.5t-18.5 -4q-4 4 -20 37q-14 23 -21 23q-4 0 -6 -13 q-4 -23 -31.5 -34t-34 -25t-10.5 -14q-6 0 -13 12t-9 14q-6 -4 -17 -4q-35 0 -26 33q36 245 36 552v17q0 422 -61 727z" />
<glyph unicode="o" horiz-adv-x="1458" d="M37 201q0 2 9 6t9 18q0 12 -6 31q2 10 14.5 10t16.5 2q-25 25 -23 33q2 2 17 2q4 2 8 2t12 -4t15 -4q4 0 8 2q-6 10 -6 16t8 4h6q27 -31 47 -45q-47 203 -47 416q0 215 49 381q-31 -6 -61 -16q-23 -8 -27 2q-4 14 10.5 23.5t14.5 15.5q0 4 -2 10q2 10 4 22q-12 0 -24.5 1 t-10.5 14q18 14 18 20q0 4 -19.5 11.5t-17.5 23.5q90 37 205 64q49 68 98 98q6 -8 11 -8q2 0 13 12t26 8q6 -2 2 -18.5t18 -22.5q27 23 35 19v-15q4 -8 -2 -21.5t-6 -17.5q131 16 272 17q143 0 291 -17v2q8 0 -4 16.5t-12 18.5q0 12 12 13q18 0 24 -17q35 -12 39 0 q-12 18 -2 39q4 10 11 10q4 0 16 -9t18 -9q10 0 21 14q4 4 12 0l14 -10q37 -49 64 -102q96 -20 180 -50q4 -14 -4 -18q-16 -6 -18 -10q2 0 -25 2q-16 2 -20 -10q6 -8 32 -21q20 -12 21 -25q0 -6 -4 -14q-18 4 -39 0q-23 -4 -23 -12q0 -10 21 -23q4 -10 12 -32q0 -4 -11 -6.5 t-11 -4.5q4 -31 6 -30q-4 0 -8.5 3t-10.5 6t-10 3q37 -162 37 -338q0 -182 -39 -350q8 0 20 8q16 0 17 -10q0 -4 -17 -29q-4 -14 23 -18q6 4 12 4q4 0 13.5 -7.5t15.5 -9.5q16 -4 16 -10q0 -4 -6 -10t-6 -12t7 -11.5t3 -15.5q-6 -6 -10 -14q-68 -68 -178 -121 q-47 -90 -103 -152q-8 2 -15 -8t-13 -10t-13.5 17.5t-23.5 15.5q-6 -10 -11 -20.5t-18 -8.5q-4 2 -4 14q-18 10 -18 23q0 6 3 14t3 12t-2 7q-20 -4 -35 -3q-14 6 -10 19q-123 -25 -254 -25q-119 0 -234 21l6 -6q-4 -12 -20 -6q-14 4 -16 0q-6 -20 -2 -31q-6 -14 -13 -15 q4 0 -26 25q-18 14 -25 6q10 -20 -4 -41q-6 -10 -12 -10q-2 0 -11.5 11.5t-19.5 11.5q-8 0 -21 -7q-8 -4 -26 15q-33 63 -53 112q-135 57 -195 129q-8 10 -8 15zM305 662q0 -272 68 -469q162 -41 348 -41q217 0 375 57q82 225 82 502q-1 223 -60 379q-182 43 -411 43 q-172 0 -340 -25q-61 -182 -62 -446z" />
<glyph unicode="p" horiz-adv-x="1308" d="M35 1190q-3 3 -3 6.5t3 7.5q33 12 82 27q-4 18 -27 90q-6 18 6 18q29 0 33 -18q12 4 43 20q6 -2 12 -12t19 -8q20 4 25 -14.5t12 -18.5q12 6 13 21.5t11 21.5q2 8 12 19q14 -2 18.5 -18.5t8.5 -31.5q4 2 11.5 19.5t21.5 13.5q8 -2 13 -15t16 -15v-13q236 43 493 43 q98 0 195 -6v4q16 6 26 -6q29 -4 45 -4q2 2 8.5 14.5t14.5 12.5q4 0 8 -2q2 -8 6 -29q39 -4 113 -14q3 -6 3 -10q0 -6 -5 -9q-12 -10 -15 -14q-12 0 -26 -1t-17 -16q2 -2 41 -16q20 -8 20 -25q0 -4 -1 -8q-16 2 -22.5 -18.5t-12.5 -24.5q27 -27 27 -57q0 -14 -15 -14 q-8 0 -29.5 6t-29.5 6q10 -113 10 -228q0 -195 -31 -348q4 0 66 15q8 -10 -18 -47q8 -4 13 -17.5t21 -11.5q2 -6 2 -12q0 -14 -22 -23q-29 -12 -35 -18q2 -12 16.5 -13.5t26.5 -1.5q2 -6 23 -14q14 -6 8 -21q-74 -14 -164 -24q-10 -20 -35 -53q-8 -6 -14 0l-12 12 q-18 -2 -27 33h-8l-2 -2h-19q-6 -8 -12 -16.5t-16 -4.5q-8 4 -7 19q-137 -11 -272 -11q-147 0 -293 13q14 -176 47 -338q2 -14 -7 -26.5t-9 -16.5q-8 -6 -14 -6q-8 0 -20.5 9t-16.5 11q-10 -8 -19 -8q-12 0 -29.5 20.5t-27.5 22.5q2 -8 2 -12q0 -14 -25.5 -18.5t-29.5 -18.5 q-16 -4 -27 8q-16 18 -22 20q-8 -2 -10.5 -11t-6.5 -13q-25 -10 -53 8q47 233 59 399q-47 10 -76 21q-14 16 11 55q-2 20 35 29q0 2 -1 5t-4 5q2 4 3 10q0 6 -14.5 15.5t-10.5 21.5q4 10 29 2q2 2 39 -4q1 46 1 91q0 262 -49 493q-49 -8 -65 -12q-23 -8 -27 2q-4 12 10.5 21 t14.5 17q0 4 -2 9q2 2 3 12t1 12h-25q-12 0 -10 15zM362 1126q-1 -57 -1 -113q0 -268 16 -521q107 -9 226 -9q171 0 368 19q49 135 49 368q-1 135 -19 256q-93 8 -234 8q-42 0 -89 -1q-311 -6 -311 -7h2h-7z" />
<glyph unicode="q" horiz-adv-x="1454" d="M35 201q0 2 9 6t9 18q0 12 -6 31q2 10 14.5 10t16.5 2q-25 25 -23 33q2 2 17 2q4 2 8 2t12 -4t14 -4q4 0 9 2q-6 10 -6 16t8 4h6q27 -31 47 -45q-47 203 -47 416q0 215 49 381q-31 -6 -61 -16q-23 -8 -27 2q-4 14 10.5 23.5t14.5 15.5q0 4 -3 10q2 10 5 22q-12 0 -24.5 1 t-10.5 14q18 14 18 20q0 4 -19.5 11.5t-17.5 23.5q90 37 205 64q49 68 98 98q6 -8 11 -8q2 0 13 12t26 8q6 -2 2 -18.5t18 -22.5q27 23 35 19v-15q4 -8 -2 -21.5t-6 -17.5q131 16 272 17q143 0 291 -17v2q8 0 -4 16.5t-12 18.5q0 12 12 13q18 0 24 -17q35 -12 39 0 q-12 18 -2 39q4 10 10 10q4 0 16.5 -9t18.5 -9q10 0 21 14q4 4 12 0l14 -10q37 -49 64 -102q104 -23 180 -50q4 -14 -4 -18q-16 -6 -18 -10q2 0 -25 2q-16 2 -20 -10q6 -8 32 -21q20 -12 21 -25q0 -6 -4 -14q-18 4 -39 0q-23 -4 -23 -12q0 -10 21 -23q4 -10 12 -32 q0 -4 -11.5 -6.5t-11.5 -4.5q4 -31 7 -30q-4 0 -8.5 3t-10.5 6t-10 3q37 -162 37 -338q0 -182 -39 -350q8 0 20 8q16 0 17 -10q0 -4 -17 -29q-4 -14 23 -18q6 4 12 4q4 0 13.5 -7.5t15.5 -9.5q16 -4 16 -10q0 -4 -6 -10t-6 -12t7 -11.5t3 -15.5q-6 -6 -10 -14 q-68 -68 -178 -121q-47 -90 -103 -152q-8 2 -15 -8t-13 -10t-13.5 17.5t-23.5 15.5q-6 -10 -11.5 -20.5t-17.5 -8.5q-4 2 -4 14q-18 10 -18 23q0 6 3 14t3 12t-2 7q-20 -4 -35 -3q-14 6 -10 19q-63 -12 -129 -19q68 -160 295 -217q0 -10 -5 -12q-10 -4 -16 -10q-8 -2 -20 4 l-11 6q0 -4 13 -31q6 -12 6 -20q0 -10 -11.5 -12t-11.5 -4q0 -4 19 -21q6 -20 -11 -20q-6 4 -19 -12q-10 -14 -18 -14q-1 0 -3 1q-168 59 -254 127q-113 88 -152 231q-106 8 -160 19l6 -6q-4 -12 -20 -6q-14 4 -16 0q-6 -20 -2 -31q-6 -14 -13 -15q4 0 -26 25q-18 14 -25 6 q10 -20 -4 -41q-6 -10 -12 -10q-2 0 -11.5 11.5t-19.5 11.5q-8 0 -21 -7q-8 -4 -26 15q-33 63 -53 112q-135 57 -195 129q-8 10 -8 15zM303 662q0 -272 68 -469q106 -29 250 -39q0 37 8 127q6 12 14 26l27 -12q6 4 10 10q-2 6 11.5 13.5t15.5 9.5q16 -2 21 -24.5t9 -22.5 t12.5 11t12.5 11q2 0 5 -2t5 -2q8 0 19 16q2 2 6 2q12 0 8 -53q-2 -35 -2 -110q162 10 291 55q82 225 82 502q-1 223 -60 379q-182 43 -411 43q-172 0 -340 -25q-61 -182 -62 -446z" />
<glyph unicode="r" horiz-adv-x="1488" d="M33 1200q2 14 17.5 20.5t29.5 10.5q4 0 -13.5 10t-17.5 14q2 4 12 7q283 90 543 90q154 0 299 -31q12 0 29 -6l16 -2q-16 23 -16 28q0 2 14.5 7.5t16.5 25.5q8 4 12 4q12 0 22.5 -21.5t20.5 -25.5q12 6 12 55q5 2 9 2q11 0 21 -12q12 -16 23 -16q0 26 12 26h1 q10 0 24 -14q74 -76 101 -164q41 -129 41 -299q0 -152 -37 -288v-3q0 -6 12 -15t14 -19q8 -20 -24 -29q-14 -14 -15 -14q6 -10 28 -8t30 -9q8 0 20 -10q-2 -14 -16 -20.5t-29 -10.5q-4 -2 14.5 -11t18.5 -13q-2 -4 -12 -6q-287 -109 -564 -121q135 -211 426 -211 q135 0 289 47q18 6 23 -2q4 -12 -12.5 -20.5t-18.5 -14.5q14 -2 30.5 -6t18.5 -19l-18 -12q-6 -10 -27.5 -11t-28.5 -13q0 -8 8 -10l9 -3q33 -4 31 -24q-10 -12 -11 -17q0 -6 17.5 -7t22.5 -7t5 -12q0 -25 -57 -31q-113 -12 -211 -12q-539 0 -700 387q-82 4 -162 18 q18 -176 41 -299q0 -2 10 -28q6 -12 -4 -21q-2 -2 -33 -2q-12 20 -16 21q-4 -2 -6 -6.5t-8.5 -17.5t-18.5 -9q-6 6 -22.5 43t-20.5 37t-4 -23v-10q0 -57 -22 -57h-1q-10 0 -19 19t-17 19q-10 0 -25.5 -24.5t-19.5 -22.5q-59 0 -59 26q0 3 1 7q66 287 66 666q0 205 -21 409 q-39 -18 -80 -43q-23 -4 -22 11q0 6 5 20t5 20t-2 9q0 8 13.5 15t11.5 17q-4 20 26 29q4 2 10.5 4t4.5 10q-6 10 -27 8.5t-29 10.5q-8 0 -20 10zM322 539q51 -16 120 -27q-2 14 -7 42t-9 40q4 4 31 -2q6 -23 12 -23t8 4.5t10 20.5q6 8 17 4q31 -51 37 -51q4 2 4 6 q6 47 22 47q6 0 9.5 -7t7.5 -7t13 8t13 8t7.5 -11t3.5 -26q0 -4 12 -63q203 4 395 69q41 126 41 325q0 47 -2 97q-2 57 -18 105q-201 94 -437 94q-137 0 -268 -35q-27 -210 -27 -427q0 -95 5 -191z" />
<glyph unicode="s" horiz-adv-x="1306" d="M37 1180q-3 3 -3 6.5t3 7.5q31 12 76 27q-4 35 -17 92q14 18 31 12q2 -8 13.5 -7t15.5 -3q29 -29 32 -27q2 10 15 25q8 -2 25.5 7t27.5 5q8 8 25 2q8 -10 6 -29q-2 -29 -2 -30h4q8 18 17 38.5t24 26.5h5q21 0 46 -14q-6 -10 -14 -35q231 45 481 45q197 0 387 -29 q2 -6 2 -10t-8 -9t-10 -11h-15q-10 0 -13 -4t-3 -21q18 -6 35 -10q18 -10 12 -31q-20 0 -21 -14v-10l3 -9q0 -10 -17 -10q-2 -12 7.5 -30.5t9.5 -24.5q0 -10 -17 -14l-12 4q6 -46 28 -102q17 -44 16 -64q0 -6 -1 -10q-20 -16 -33 -7q-12 39 -27 39q-6 0 -15 -7t-13 -7 q-2 0 -4 4q-18 -23 -33 -22q-2 0 -14 24q-8 -4 -17.5 -30.5t-30.5 -22.5q-8 2 -9 17.5t-13 13.5l-4 10q16 92 20 203q-125 20 -297 20q-156 0 -329 -16q-49 -4 -82 -11q-20 -143 -25 -331q260 0 533 -41q260 -40 432 -101q2 -14 -13 -18q-20 -6 -24 -10q-2 0 -25 2 q-16 2 -20 -11q4 -8 31 -22q20 -10 20 -23q0 -6 -4 -14q-16 4 -25.5 -14.5t-17.5 -20.5q20 -41 12 -51q-2 2 -39 16q6 -143 23 -237q4 -4 4 -16q10 -55 25 -109l20 -74q-33 -18 -49 -6q-4 4 -6 4q-6 -2 -19 -8q-330 -106 -598 -106q-211 0 -426 59q-12 0 -12 6 q0 8 19.5 25.5t15.5 17.5q-14 4 -29.5 9t-17.5 20l18 12l6 6q-27 10 -33 17q-4 100 -28 309q0 33 12 22q12 -2 22.5 -5t12.5 -23q-4 -14 12 -19q14 -4 24.5 15.5t18.5 19.5q14 0 29.5 -18.5t13.5 -32.5q8 -6 21 12q4 6 8 31q2 14 20 12q8 14 21 12q12 0 10 -22 q-2 -23 -6 -47q0 -13 -1 -33q0 -61 5 -184q174 -68 350 -68q170 0 328 64q27 162 27 393q-287 90 -570 90q-164 0 -323 -31q-23 -4 -33 43q-4 14 15.5 16.5t13.5 18.5q-12 4 -13 12q0 4 6.5 10.5l10.5 10.5q2 12 -19.5 17t-19.5 16q-4 25 6 34l65 7v4q0 76 -20 297 q-37 -10 -41 -13q-25 -8 -29 4t10.5 21.5t14.5 15.5q0 4 -2 10q4 4 4 23l-25 2q-12 0 -10 14q-6 6 -10 11z" />
<glyph unicode="t" horiz-adv-x="1191" d="M16 1276q0 12 15 16q76 -25 428 -84l4 4q-4 47 -27 136q-12 6 2 10q45 10 51 -12q49 -16 62 -46q16 0 26.5 25t22.5 25q6 0 14 -4q4 -14 19 -31q12 6 26.5 26.5t20.5 26.5q12 -14 44 -43q-12 -43 -34 -131l6 -4q54 -2 105 -2q201 0 336 26q8 4 18 -5t19 -9q10 -5 10 -11 q0 -5 -8 -9q-4 -12 -33 -21.5t-29 -19.5q0 -6 4 -17.5t19 -31.5q20 4 28 -11q4 -12 -11 -15t-15 -9t2 -11q18 -8 16 -28q-4 -45 -4 -35l-12 -6q-188 57 -467 82q-27 -147 -27 -355q0 -348 60 -561q10 -41 36 -125q2 -8 -6 -12q-6 -4 -16 0q-4 2 -33 2q-20 0 -24 19 q4 16 -13 16q-16 0 -23 -20.5t-18 -20.5q-14 0 -30.5 14.5t-16.5 30.5q-6 4 -20 -16q-12 -35 -15 -41q-12 -20 -32 -23q-7 -16 -18 -16h-3q-3 -1 -7 -1q-8 0 -18 4q-14 5 -24 11q0 8 23 172q8 57 40 248q18 106 19 192q0 47 -4 105l-21 278l-4 107q-81 7 -173 7 q-132 0 -286 -15q2 -6 3 47q14 4 15 16.5t3 24.5t16 12q20 0 35 -2q4 2 4 10q-27 8 -26 29q-18 8 -47 35q-4 8 0 18q4 14 4 17q0 8 -11 12z" />
<glyph unicode="u" horiz-adv-x="1380" d="M33 225q39 2 39 11q0 2 -16.5 16t-14.5 22q4 10 21.5 10.5t21.5 2.5q-31 39 -27 49q2 2 17 2q8 4 21.5 -4t21.5 -4q-8 25 24 28q12 137 13 277q0 295 -52 610l-10 29q-4 12 6 20q6 6 31 0q12 -20 16 -20q4 2 8.5 10t9.5 17.5t17 5.5q4 -6 20.5 -43t20.5 -37t4 22v9 q0 59 25 59q10 0 19.5 -19.5t17.5 -19.5q10 0 25.5 23.5t19.5 21.5q57 0 57 -24q0 -4 -2 -9q-70 -430 -70 -782q0 -172 17 -340q141 -84 321 -84q274 0 443 178q12 242 12 402q0 463 -100 663q10 -4 28.5 11.5t26.5 15.5q14 2 22 -13q20 2 28.5 -12t17.5 -29q18 -18 22 -14 q-4 27 29 47q8 6 14 6q8 0 18.5 -18t24.5 -16q18 6 10 20q2 18 21 23q29 6 33 8q1 1 3 1q5 -1 13 -13q10 -16 10 -27q-59 -365 -59 -731q0 -141 8 -324q6 -139 25 -194q5 -25 34 -60q8 -14 9 -20q0 -8 -10 -8q-14 0 -46 16q14 -20 15 -33q0 -10 -17.5 -16t-13.5 -17 q-8 -6 -16 -6q-10 0 -25.5 20.5t-24.5 24.5q-12 -4 -8 -20q6 -27 6 -25q-4 -4 -6 -16q-2 -10 -14 -10h-4l-41 18q-18 20 -51 111q-182 -125 -443 -125q-213 0 -383 84q-180 90 -233 239z" />
<glyph unicode="v" horiz-adv-x="1533" d="M16 1241q35 18 39 12q12 -18 23 -2q0 6 10 17l8 4q6 0 16.5 -12.5t20.5 -10.5l3 -9t7 -9t7 2q4 25 8 31q6 16 26 22q-4 18 4 37q8 0 20.5 -8t18.5 -8q8 0 17 6q223 -152 530 -785q291 643 516 805q8 -6 15 -6q6 0 17 7q7 4 12 4q3 0 5 -1q8 -6 4 -16t3 -14q0 -4 -3 -27 q-2 -16 11 -18q8 4 22 30q10 20 23 21q6 0 14 -4q-4 -16 9.5 -23.5t15.5 -15.5q39 20 51 10q2 -8 15.5 -7t13.5 -5q-141 -90 -330 -375q-178 -270 -316 -584q72 -166 113 -286q-6 -10 -61 2q-8 -2 -13 -37q0 -14 -12 -17q-4 0 -20 9q-12 4 -19 -7q-4 8 -20 4q6 -20 -19 -24 q-14 53 -41 121q-25 -78 -35 -115q-8 -10 -18 -14q-12 2 -13 19.5t-5 21.5q-8 -12 -17.5 -25.5t-23.5 -9.5l-6 22q-4 6 -5 15q0 4 4.5 15t4.5 17t-4 13q-6 2 -10.5 -2t-6.5 -8q-23 -27 -37 -19q-4 2 -8 2t-13 -7t-18 -7q-2 10 11 35q35 121 100 282q-145 309 -328 572 q-193 274 -336 360z" />
<glyph unicode="w" horiz-adv-x="1830" d="M23 1298q0 10 20 11q20 2 23 -6q10 -20 22 -5q4 12 23 27q27 10 39 -27l4 -24q2 -4 22 2l2 39q0 23 21 24q16 35 24 33q6 -2 25.5 -16.5t32.5 -14.5q6 0 12 2q147 -496 207 -1048q182 408 272 924q0 14 19 14q16 0 48.5 -12.5t34.5 -12.5q10 0 22.5 26t25.5 26l14 -27 q4 8 20 2l11 -27q6 18 30 41q43 8 62 6q41 -688 221 -1118q37 279 119 676q96 471 104 524q12 2 18.5 20.5t14.5 18.5q4 0 12 -4q2 -12 16.5 -25.5t18.5 -21.5t12 -8q8 12 17.5 25.5t23.5 9.5q8 -14 27 -35q6 14 18 39q16 2 35 4t29 18q2 2 6 2q6 0 30.5 -17t26.5 -13 q-154 -260 -242.5 -618.5t-88.5 -715.5q0 -53 2 -104l-9 -6l-18 -12q-4 0 -7 9t-9 7q-4 0 -11.5 -10.5t-13.5 -8.5q-14 6 -33 29q-6 -25 -43 -43q-10 10 -35 29l-20 63q-29 10 -31 0q-6 -20 -12 -16q-16 12 -29 29q-2 12 -12 26q-2 0 -3 -12t-7 -19q-12 -6 -29 -24 q-2 -2 -4 -2q-14 0 -51 20.5t-39 30.5q-63 416 -78 504q-41 227 -84 352q-176 -313 -246 -850q-2 -4 -34 -6q-10 0 -15 -2q0 12 -16 25q-4 0 -15.5 -8.5t-19.5 -4.5q-4 8 -35 27q2 -10 3 -32.5t1 -33.5q-10 -6 -20 -6q-19 0 -43 19q-12 0 -18.5 -14.5t-18.5 -10.5 q-6 2 -13.5 11.5t-13.5 9.5q-4 0 -8 -2q-6 2 -10 14t-12 8q-2 -14 -11 -25q-10 -8 -10 0q-16 793 -321 1315q-2 4 -2 6zM1378 -66z" />
<glyph unicode="x" horiz-adv-x="1497" d="M18 106q190 150 324 287q84 86 281 297q-244 250 -498 443q-20 6 -23 28q-2 23 6.5 22t15.5 8t11 9q16 -2 37 6q-10 16 -8 25q4 16 22 43q-2 10 13 20q14 -12 43 -32l2 2q-8 16 -16.5 34.5t-4.5 32.5l23 8q14 6 22 2q219 -260 469 -524q268 305 426 553q29 -16 41 -33 q-4 -16 0 -49q10 4 19 10q12 4 18 -6q7 -11 7 -24q0 -21 -21 -45l2 -9q2 0 24 11q14 6 25 4q23 -31 55 -10q23 -8 49 -37q-2 -12 -14 -17q-229 -166 -516 -465q352 -358 612 -557q15 -5 15 -13v-24q2 -14 -16.5 -17t-22.5 -9l-25 4q-16 4 -20 -10q4 -6 28 -23q18 -12 19 -24 q0 -6 -4 -15q-27 8 -47 4q-25 -6 -19 -30q4 -20 2 -27q-10 -14 -12 -22q-16 -7 -34 -7t-38 7q-334 399 -557 638q-270 -299 -420 -534q-12 -27 -41 -82q-45 0 -67 29l-2 22q-8 -8 -37 -12q-4 10 -13.5 9t-13.5 9l27 39q-25 -8 -37 -8q-10 0 -20 16l2 39q-6 10 -13 11 q-8 0 -21.5 -18.5t-21.5 -14.5q-6 10 -19 12t-18 14z" />
<glyph unicode="y" horiz-adv-x="1314" d="M18 1243q-4 4 -4 7q0 6 17 7q23 2 28 -6q12 -18 23 -2q2 6 -8.5 15.5t-10.5 11.5t3.5 4t17.5 0q18 -2 21.5 -13.5t11.5 -11.5q6 0 22 19q-2 18 2 22t29 13q-4 18 4 37q8 -2 19.5 -9.5t19.5 -7.5q6 0 14 4q295 -317 486 -571q213 336 329 573q12 -4 16.5 -30.5t12.5 -26.5 t31 25q6 4 10 4q6 0 15.5 -11.5t15.5 -13.5l6 -25q4 -16 18 -14q2 4 11 43q4 27 26 25q14 -31 41 -31q8 0 15.5 7t23.5 11q16 6 16 0q0 -4 -2 -6q-238 -276 -483 -676l62 -98q-11 -19 -38 -19q-11 0 -24 3q-12 -2 -11 -18.5t-13 -18.5q-2 0 -19 8q-12 6 -20 -4q-4 -2 -19 12 l-8 -14q0 -10 -4 -18q-4 -6 -6 0q-121 -209 -244 -451q-2 -12 -14 -31q-10 4 -21 -3q-9 -5 -16 -5h-4q-12 4 -10 21q2 20 0 24l-17 -18q-12 -10 -22 -11q-4 0 -11 2v23q-2 4 -2 10t9.5 22.5t5.5 26.5l-19 -8q-25 -20 -39 -10q-4 4 -10 4q-2 0 -13.5 -5t-17.5 -3q4 12 -32 41 q211 287 368 522q-240 324 -588 643z" />
<glyph unicode="z" horiz-adv-x="1333" d="M29 -4q41 41 63 61l-24 4q-4 12 13 20.5t19 12.5h29l14 15q-4 4 -34 18q-20 8 -21 23q0 6 2 12q16 -2 23.5 16.5t15.5 22.5q-25 35 -16 49q16 -2 147 -21q453 477 653 869q-186 -20 -385 -21q-225 0 -389 27q-2 8 -4 14q-10 -2 -15 4t-5 11q0 6 10 16t10 18l23 11 q14 6 10 20h-43q-27 2 -29 25q16 6 15.5 20t5.5 21q-37 27 -35 36q2 2 4 7q0 4 -6 11t-6 11q0 2 2 4q248 -63 534 -63q195 0 389 30q12 41 27 97q20 20 51 28q12 -4 10 -20q-2 -20 0 -25l21.5 21.5t26.5 7.5q2 -2 2 -23q2 -6 2 -10q0 -8 -6.5 -20.5t-6.5 -18.5t2 -10l2 -2 l9 2q2 2 4 5l2 3q27 23 39 13q4 -4 8 -5q4 0 14.5 7.5t18.5 5.5q0 -10 29.5 -27.5t25.5 -21.5l-10 -23q29 -4 35 -14q0 -4 -17 -15q-4 -14 -43 -18l-14 -25q25 -4 24 -20q0 -10 -17 -19.5t-13 -15.5q-12 -10 -29 -10q-244 -432 -692 -944q50 -3 108 -3q78 0 170 5 q53 2 236 16q111 8 136 8h7q18 -6 19 -12q0 -4 -11.5 -11t-11.5 -11t31 -9q4 -14 -28 -25t-23 -26q0 -2 4 -5t2 -5q47 -12 47 -16q-2 -4 -10 -9q4 -18 25.5 -20t19.5 -23q-143 -45 -475 -45q-195 0 -400 17l-35 -41q-8 6 -18 6q-14 0 -31 -10q-23 -12 -25.5 -13.5t-7.5 -1.5 q-8 0 -15 13.5t-13 15.5q-4 12 -5 12t-18 2q-6 -14 -12 -25.5t-31 -6.5q0 16 -13 21t-17 11q-35 -29 -48 -22q-4 8 -17 4t-15 2z" />
<glyph unicode="{" horiz-adv-x="825" d="M41 729q0 6 45 27q25 6 207 96q-6 455 -49 719q-2 16 -6 33q2 4 6 4t16 -7.5t21 -7.5q14 0 28 17q8 0 18.5 -14.5t20.5 -10.5q18 6 25 -6q2 49 22 53q8 0 46 -3t65 -3q92 0 174 33q33 12 53 12q10 0 15 -4q14 -23 2 -39q-37 -12 -37 -22q0 -4 12 -11.5t12 -9.5t-4 -4 q23 -18 23 -33q0 -2 -25 -14q4 -8 30.5 -17.5t22.5 -29.5q-2 -8 -16 -9t-12 -14l-13 -4q-123 23 -247 15q-16 -111 -31 -557l-4 -134q0 -31 -66 -61q-74 -37 -149 -74q74 -27 149 -55q63 -29 62 -72l-6 -94q-8 -111 -9 -199q0 -139 39 -405q90 2 277 22q31 0 22 -10l-8 -22 q-2 -10 -22 -13q-12 8 -19 -10q-2 -14 16.5 -23.5t18.5 -15.5q0 -12 -17.5 -27.5t-33.5 -13.5q-6 -6 14 -20q6 -2 31 -6q12 0 10 -19q14 -10 14 -20q-2 -12 -24 -11q-23 2 -47 7q-92 0 -316 4q-4 2 -4 10q0 10 4 25q-8 6 -16 30q-2 6 -4 12.5t-10 4.5q-10 -6 -10.5 -31 t-12.5 -33q0 -10 -14 -22q-18 2 -23.5 20.5t-9.5 34.5q0 4 -12.5 -15.5t-18.5 -19.5q-4 0 -6 14q35 408 33 750q-76 33 -213 78q-20 2 -21 28q0 12 13.5 10.5t13.5 4.5q0 2 -2 7t-2 7q0 8 8 8h16q-25 18 -24 29q0 10 20 10q6 -4 9 15q2 16 -5 24q-16 0 -47 19q-2 4 -2 8 q0 10 17.5 19t21.5 16q-6 4 -28 0q-18 -4 -23 10q-4 6 -4 10z" />
<glyph unicode="|" horiz-adv-x="364" d="M41 1352q2 4 6 4t16.5 -7.5t20.5 -7.5q14 0 29 17q8 0 18 -15.5t21 -11.5q18 6 26 -14q10 -6 25 -4q10 8 8 20.5t10 20.5q2 4 19 10q16 0 20 -12.5t8 -24.5q6 4 13 27q6 16 20 14q16 0 18 -18q-2 35 -2 -35q-51 -205 -51 -574q1 -362 56 -751q-4 -8 -7 -15q-10 8 -20 19 q0 -10 -3 -17.5t-7 -7.5t-10.5 4t-10.5 4q-6 0 -12 -4q-6 2 -15.5 17.5t-19.5 13.5q-25 -4 -33 31q-2 6 -4 13t-10 5q-10 -6 -10 -30.5t-13 -32.5q0 -10 -14 -23q-18 2 -23.5 20.5t-9.5 35.5q0 4 -12 -15.5t-18 -19.5q-4 0 -7 14q33 399 33 670q0 336 -49 645q-2 16 -6 35z " />
<glyph unicode="}" horiz-adv-x="819" d="M41 -182q2 8 16.5 9t12.5 13l10 4q137 -25 248 -14q25 164 30 569l2 131q0 31 66 62q145 72 149 74q-74 27 -147 55q-63 27 -61 70l4 94q4 111 4 192q0 164 -33 391q-88 -4 -274 -22q-10 -2 -18.5 1t-4.5 9q2 2 8 21q2 10 21 12q14 -4 20 10q2 14 -16.5 23.5t-18.5 15.5 t7 14q23 29 45 27q4 8 -15 20q-6 2 -28 7q-14 0 -13 18q-14 10 -14 21q2 12 25 10t45 -6q92 0 313 -4q10 -2 2 -35q10 -8 14 -29q12 -18 15 -18q12 6 11 30.5t13 32.5q0 10 13 23q18 -2 23 -20.5t9 -35.5q0 -4 12.5 15.5t18.5 19.5q4 0 6 -14q-35 -401 -33 -727 q76 -33 211 -76q20 -4 21 -29q0 -12 -12.5 -10t-12.5 -2q0 -2 2 -8t2 -8q0 -8 -10 -9q-2 -2 -16 -2q25 -18 24 -26q0 -10 -18 -10q-8 2 -10 -15q-2 -16 4 -24q16 2 47 -19q2 -4 2 -8q0 -10 -14 -18q-20 -10 -25 -17q6 -2 29 2q18 4 22 -7t4 -15q0 -6 -43 -27 q-25 -4 -205 -94q2 -465 48 -731q2 -16 6 -33q-2 -4 -6 -4t-16.5 7t-20.5 7q-14 0 -29 -16q-8 0 -18.5 14.5t-20.5 9.5q-16 -4 -22 7q-4 -49 -25 -54q-8 0 -46 3t-67 3q-90 0 -170 -30q-35 -14 -53 -15q-8 0 -12 5q-16 20 -2 40q37 10 37 21q0 6 -12.5 12t-12.5 8t4 5 q-25 20 -22 32q8 4 22 15q-4 8 -29.5 17t-21.5 30z" />
<glyph unicode="~" horiz-adv-x="649" d="M20 1227q70 37 218 127q12 8 22 -11q4 -8 -2 -16q-4 -8 0 -14v-6q16 0 18.5 -11.5t10.5 -27.5q47 -25 114 -51q86 33 164 92q10 6 13 4q4 -10 4 -17q0 -6 -4.5 -13t-4.5 -9q0 -4 2.5 -6t4.5 -4l4 -4q14 0 14 -7q2 -16 16.5 -27.5t14.5 -13.5q-2 -4 -8 -10 q-70 -35 -228 -127q-12 12 -12 37q-49 31 -96 47.5t-95 32.5q-59 -33 -122 -78q-4 8 -5 31q16 16 17 18l-16 1q-15 1 -15 16q4 8 17 24q-2 2 -25 9.5t-21 13.5z" />
<glyph unicode="&#xa1;" horiz-adv-x="378" d="M41 1126q-2 37 5 99.5t7 83.5q0 37 -12 55q10 6 20 6q14 0 36 -12t28 -15l10 -34q6 -23 27 -21q4 6 10 55q4 35 39 31q2 -10 8 -10q4 0 17.5 9t21.5 9q16 0 21 -47q14 0 19 22.5t40 18.5q-14 -121 0 -262q-76 -2 -76 31q0 4 2 12v10q0 23 -39 23q-6 -68 -14 -74h-49 q-31 -2 -31 2q-6 23 -12 31q-39 2 -49 -12q-10 -2 -11.5 -9.5t-3.5 -7.5q-4 0 -14 6zM49 37q57 203 57 498q0 279 -55 479q2 14 8 14t22.5 -19.5t16.5 -15.5q2 14 6.5 29.5t20.5 17.5q2 0 12 -22q12 -8 12.5 -16.5t12.5 -16.5q8 0 10 9l2 10q4 12 22.5 22t32.5 8 q16 -20 39 -14q16 6 31 14q6 -10 10 -18q-31 -276 -30 -563q0 -219 18 -379q0 -8 2 -41q0 -20 -2 -30.5t-12 -10.5q-14 -2 -20.5 13t-10.5 20q-6 -14 -13.5 -32t-23.5 -18q-4 2 -10 23q-12 10 -9 33.5t-8 31.5q-4 0 -16 -16q-14 -33 -35 -27q-10 4 -20 -10t-17 -14 q-10 8 -25.5 4t-21.5 2q2 18 -6 35z" />
<glyph unicode="&#xa2;" horiz-adv-x="1269" d="M29 295q0 2 9 7t9 20q0 12 -6 30q2 10 14.5 9t16.5 1q-8 6 -17.5 14.5t-5.5 18.5q2 2 17 2q6 4 20 0q14 -8 23 -2q-6 10 -7 15q0 6 9 6h6q4 -6 14 -17q-23 113 -22 230q0 172 47 315q-20 -4 -58 -16q-25 -8 -28 2q-4 12 10 21.5t14 15.5q0 4 -4 10q4 4 4 24h-22t-11 15 q16 14 17 20q0 2 -19.5 9.5t-17.5 23.5q125 51 217 76q41 53 98 94q6 -8 13 -8q2 0 12 11t25 9q6 -2 1.5 -18t18.5 -23q8 8 16.5 15.5t18.5 3.5q4 -2 0 -17q4 -6 -6 -26q68 10 135 12q4 78 2 100q-8 76 -17 152q16 6 52 -8v-27q0 -16 14 -18q4 4 16 35q10 23 25 22 q6 0 12 -2q-2 -16 17.5 -22.5t21.5 -14.5q39 25 49 19l-20 -140q-2 -20 10 -98q209 -14 424 -84q4 -14 -4 -16q-14 -6 -16 -13q6 0 -27 2q-16 2 -19 -12q4 -6 33 -18q20 -12 21 -25q0 -6 -4 -14q-18 4 -39 0q-23 -4 -23 -15q0 -10 21 -22q6 -6 14 -31q2 -4 -10.5 -6 t-12.5 -4q0 -6 7 -23q4 -10 0 -10q-4 2 -11 4q-219 109 -495 109q-135 0 -281 -27q-61 -158 -61 -360q0 -197 61 -348q131 -37 279 -37q393 0 524 223q6 0 6 -6q0 -4 -9 -18.5t-3 -14.5q23 0 29 6q18 0 18 -10q0 -12 -18 -31q0 -10 24 -18q6 6 12 6q4 0 13.5 -7t15.5 -9 q16 -4 16 -11q0 -4 -6 -11t-6 -11q0 -6 6 -12q4 -2 -6 -31q-180 -176 -479 -213q-8 -45 14 -191q4 -27 -2 -28q-12 -4 -21 10t-16 14q-6 0 -10 -2q-4 4 -8 4q-16 -37 -31 -35q-20 2 -48 -4t-32 -6q-20 0 -26 35q6 170 4 195q-49 0 -144 12q-4 -23 -2 -29q-6 -14 -10 -14 q4 0 -26 24q-20 16 -25 7q8 -18 -6 -41q-6 -10 -10 -11q-4 0 -12.5 11.5t-18.5 11.5t-23 -6q-4 -4 -26 14q-33 39 -72 105q-119 53 -178 127q-8 10 -8 14z" />
<glyph unicode="&#xa3;" horiz-adv-x="1368" d="M41 31q0 6 2 12q16 -2 22.5 17.5t14.5 23.5q-25 35 -19 47q18 0 56 -4q18 246 20 393q-27 0 -88 -4q-8 20 8 53h27q14 0 16 15q-4 4 -34 16q-20 8 -21 23q0 6 2 12q16 -2 22.5 17.5t14.5 23.5q-29 33 -21 49q43 -2 76 -6q-4 305 -49 598q-2 16 -6 35q2 4 6 4t16.5 -7.5 t20.5 -7.5q14 0 29 17q8 0 18 -15.5t21 -11.5q18 6 22 -2q25 12 39 17q2 4 6 8t21 10q10 0 14 -4q170 55 410 55q137 0 280 -18q20 8 57 -8q0 8 12.5 16t8.5 25q8 6 14 6q12 0 26.5 -21.5t22.5 -25.5q12 4 9 18q-4 25 -4 27q4 4 8 22.5t18 16.5q25 -55 43 -117 q57 -12 109 -31q12 -2 12 -6t-17.5 -14.5t-13.5 -10.5q14 -4 29.5 -9t17.5 -21l-20 -11q-8 -12 -28.5 -10t-26.5 -8q0 -6 14 -12q31 -14 28 -27.5t10 -21t13 -13.5q-2 -2 -6 -43q-2 -29 -31 -24l-43 24q12 -115 -2 -215q-2 -2 -4 -2q-4 0 -17.5 10.5t-21.5 10.5q-4 0 -8 -4 q-14 -4 -37 28q-4 -4 -6 -8q-16 4 -22.5 -13.5t-20.5 -17.5q-27 6 -25 27q0 129 -34 266q-150 45 -312 45q-205 0 -405 -67q-27 -203 -25 -476q16 0 246 5q358 8 383 16q23 8 27 -2q4 -14 -9.5 -23.5t-13.5 -15.5q0 -4 2 -10q-2 -2 -6 -8q37 -10 34 -30t4 -48.5t7 -32.5 q0 -18 -35 -27q-199 4 -635 0q10 -219 35 -409q678 -23 891 12q25 4 27 -2q4 -12 -9.5 -21.5t-13.5 -15.5t2 -10q14 -10 15 -19l-21 -20q-2 -18 14.5 -25.5t15.5 -19.5t5 -31.5t6 -21.5q0 -12 -31 -9q-145 -2 -362 3q-268 4 -359 4q-246 0 -483 -17q-8 20 10 51h27 q14 2 16 15q-4 4 -35 16q-23 10 -22 25z" />
<glyph unicode="&#xa4;" d="M72 821q0 127 89 215t214 88q127 0 216 -89t89 -214t-89 -214t-216 -89q-125 0 -214 89t-89 214zM162 821q0 -88 62.5 -150.5t150.5 -62.5t150.5 62.5t62.5 150.5q0 90 -61.5 151.5t-151.5 61.5q-88 0 -150.5 -62.5t-62.5 -150.5z" />
<glyph unicode="&#xa5;" d="M72 821q0 127 89 215t214 88q127 0 216 -89t89 -214t-89 -214t-216 -89q-125 0 -214 89t-89 214zM162 821q0 -88 62.5 -150.5t150.5 -62.5t150.5 62.5t62.5 150.5q0 90 -61.5 151.5t-151.5 61.5q-88 0 -150.5 -62.5t-62.5 -150.5z" />
<glyph unicode="&#xa7;" horiz-adv-x="1308" d="M41 1366q-6 6 0 14q16 6 76 27q-4 43 -17 92q14 18 31 10q2 -6 13.5 -5t15.5 -3q29 -29 33 -26q2 10 14 24q8 -2 25.5 7.5t27.5 4.5q8 8 25 2q8 -10 6 -28q-2 -29 -2 -31h4q8 18 17 38.5t24 27.5q23 2 51 -15q-8 -16 -14 -35q231 45 481 46q197 0 387 -29q2 -6 2 -10 t-8 -9.5t-10 -11.5q-8 -2 -29 -2q-2 -8 -2 -22q18 -6 35 -11q18 -10 12 -30q-20 0 -20 -15v-10q2 -6 2 -8q0 -10 -17 -10q-2 -12 7.5 -31t9.5 -25q0 -10 -17 -16l-12 6q6 -45 27.5 -101.5t15.5 -76.5q-20 -14 -33 -6q-12 41 -26 41q-6 0 -15.5 -7.5t-13.5 -7.5q-2 0 -4 4 q-20 -25 -33 -22q-2 0 -14 24q-8 -4 -17.5 -30.5t-29.5 -22.5q-8 2 -9.5 16.5t-13.5 12.5l-4 10q16 94 20 205q-127 20 -303 20q-158 0 -323 -16q-53 -6 -84 -10q-23 -129 -23 -334q209 33 408 33q340 0 549 -90q4 -14 -11 -21q-20 -8 -22 -12h-25q-16 0 -20 -12q12 0 33 4 l-4 -21q35 -16 24 -39q-16 2 -22 -12q-8 -23 -13 -25v-6q23 -31 13 -45l-17 6q-4 -31 -8 -92q4 4 27 15q25 0 28 -13q-2 6 -2 -26q-14 -18 -14 -31q0 -12 11 -17.5t9 -5.5q-10 -4 -36 -26q0 -4 14 -21q20 -8 20 -12q0 -6 -14 -16q-4 -10 6 -14.5t10 -12.5q-8 -6 -34 -20 q-14 -4 -33 -15q0 -291 35 -416l20 -73q-29 -20 -49 -6q-4 4 -6 4q-6 -2 -19 -9q-328 -109 -596 -108q-211 0 -428 61q-12 0 -12 7q0 8 19.5 25.5t15.5 17.5q-14 4 -29.5 9t-17.5 19l18 12l6 7q-27 10 -32 16q-4 74 -29 256q0 33 12 25l23 -9q10 -2 12 -22q-4 -12 12 -19 q14 -2 24.5 16.5t18.5 18.5q14 0 29.5 -18.5t13.5 -32.5q4 -4 21 12q4 6 8 31q2 14 20 12q8 14 21 13q12 0 10 -23t-6 -47q-2 -43 4 -164q174 -68 350 -67q170 0 324 63q10 90 22 334q-166 -37 -352 -37q-266 0 -508 72q-10 0 -10 6t19 24q-12 -6 -17 0q-4 6 0 29 q-14 4 -14 19l18 12l6 6q6 43 6.5 46t2.5 9q2 10 -11.5 17.5t-15.5 13.5q2 4 2 8q0 6 -5 21.5t-5 21.5q0 14 22 10l15 -8v117q-10 -4 -35 -10q-14 -4 -37 41q-2 14 13.5 18t15.5 10q0 4 -2 9q-14 4 -15 12q0 4 8 14q4 4 9 8q0 12 -21.5 14.5t-21.5 12.5q-10 23 2 37 q53 12 82 18q0 35 -2 82q-4 84 -19 246q-33 -8 -43 -12q-25 -8 -29 2q-4 14 10.5 23t14.5 16q0 4 -2 10q4 4 4 22q-2 0 -25 2q-12 0 -10 13zM315 803q14 -78 31 -225q152 -39 320 -39q178 0 342 43q2 76 2 209q-197 39 -387 38q-156 0 -308 -26z" />
<glyph unicode="&#xa8;" horiz-adv-x="610" d="M20 1159q10 125 0 215q53 2 54 -22v-9q-2 -6 -2 -8q0 -16 28 -16q4 49 11 53h36q25 2 25 -7t6 -15q29 -2 35 8q8 2 8 10q2 2 12 -4q2 -27 -2 -78q-6 -57 -6 -74q0 -31 8 -45q-6 -4 -12 -4q-10 0 -25.5 9.5t-19.5 10.5t-10 25q-4 16 -19 15q-2 -2 -6 -39q-4 -25 -30 -23 q0 6 -5 6q-4 0 -13 -5t-13 -5q-14 0 -17 33q-10 0 -14 -17.5t-29 -13.5zM377 1352q14 8 22 6q10 -4 21 -8q8 -12 17 -27.5t24 -13.5q4 6 4 37q0 23 27 20q2 -8 32 -12q16 -2 25 -19q10 0 13 16.5t28 14.5q-12 -143 -4 -213q-51 -2 -51 10q0 4 3 9.5t3 7.5q0 8 -27 8 q-2 -45 -22 -45q-27 0 -29 26q0 12 -6 13q-2 0 -14.5 -12.5t-18.5 -12.5q-4 0 -7 6t-16 0q-10 -2 -16 -8q-2 -4 -4 0q-2 18 4 113q4 66 -8 84z" />
<glyph unicode="&#xa9;" horiz-adv-x="686" d="M41 829q0 2 4 5.5t2 7.5l4 2q4 -2 12 -2q6 72 7 200q0 129 -7 224l-16 -4q-2 4 0 12t6 16q-6 6 -6 10q4 4 6 5q-2 4 -8 6t-4 8q0 2 4 5t2 7l4 2q49 -10 266 -10q215 -2 322 8q4 -4 4 -8q-2 0 -2 -2t-4 -6t-4 -6q4 0 8 -7.5t2 -9.5v-6q-2 -2 -14 -2q6 -2 16 -10 q0 -6 -4 -14q-4 2 -14 2q-16 -176 -2 -420h14q4 -2 4 -6q-2 0 -2 -3.5t-4 -7.5t-4 -6q6 0 6 -4q0 -20 4 -12v-6q-6 -2 -12 0l-2 -2q6 -3 16 -11l-1 -6t-3 -6q-66 10 -285 12q-193 0 -290 -6l-19 -6q-2 4 0 12.5t6 18.5q-6 6 -6 8l6 6q-2 2 -8 4t-4 8zM125 838q84 -4 213 -4 t227 4q12 201 -2 430q-143 8 -436 2q-16 -182 -2 -432zM184 1190l19 6q0 10 -4 25q4 4 8 2q0 4 8 -1t6 -8q2 2 3 4.5t3 3.5t13 1q2 4 6 0v-15h2q2 8 10 17q6 2 12 -4l-2 -9q111 20 215 5l-4 -9h-4v-6q10 -4 8 -10q-4 2 -5 -4t-3 -6q4 -4 6 -11q-2 -4 -6 -8q4 -10 8 -23.5 t2 -17.5q-4 -4 -8 -2q-4 12 -8 8q-6 -2 -6 0q-2 -6 -8 -6q0 2 -4 6q-2 -2 -4.5 -9t-8.5 -5q-2 2 -2 5t-2 3l-2 2q2 18 6 52q-66 12 -159 0h-15q-10 -94 -2 -242q84 -23 174 4q2 20 2 47q-4 18 0 19q2 0 4 -2.5t7.5 -9.5t7.5 -7q-2 8 6 12q4 4 7 -2t7 -6q0 2 12 12q3 2 3 -6 q-2 -25 -7 -75l-8 -5l3 -4t3 -2l-12 -6q8 -8 4 -8q-115 -31 -239 -4h-3q-2 -2 -4 -2l-4 4q-2 0 -5 -6t-7 -4q-2 0 -6 3t-8 3v2l2 10l-4 2q-4 0 -9 4q0 2 2.5 3t2.5 3q-6 4 0 7.5t4 5.5q-2 4 -4.5 5t-4.5 3q8 2 5 12t4 10l10 -4q6 53 4 138q-2 35 -4 75q-6 -2 -10 -4 q-6 0 -9 2q6 2 7 11v6q-8 4 -9 7z" />
<glyph unicode="&#xaa;" d="M72 821q0 127 89 215t214 88q127 0 216 -89t89 -214t-89 -214t-216 -89q-125 0 -214 89t-89 214zM162 821q0 -88 62.5 -150.5t150.5 -62.5t150.5 62.5t62.5 150.5q0 90 -61.5 151.5t-151.5 61.5q-88 0 -150.5 -62.5t-62.5 -150.5z" />
<glyph unicode="&#xab;" d="M72 821q0 127 89 215t214 88q127 0 216 -89t89 -214t-89 -214t-216 -89q-125 0 -214 89t-89 214zM162 821q0 -88 62.5 -150.5t150.5 -62.5t150.5 62.5t62.5 150.5q0 90 -61.5 151.5t-151.5 61.5q-88 0 -150.5 -62.5t-62.5 -150.5z" />
<glyph unicode="&#xac;" d="M72 821q0 127 89 215t214 88q127 0 216 -89t89 -214t-89 -214t-216 -89q-125 0 -214 89t-89 214zM162 821q0 -88 62.5 -150.5t150.5 -62.5t150.5 62.5t62.5 150.5q0 90 -61.5 151.5t-151.5 61.5q-88 0 -150.5 -62.5t-62.5 -150.5z" />
<glyph unicode="&#xad;" horiz-adv-x="593" d="M10 664q0 6 2 12q16 -2 22.5 17.5t14.5 23.5q-27 37 -18 47q154 -20 256 -21q106 0 250 21q25 4 26 -4q4 -12 -9 -21.5t-13 -15.5q0 -4 2 -10q-4 -4 -4 -8q36 -17 34 -29q-4 -20 3.5 -49t7.5 -33q0 -20 -35 -27q-299 14 -535 -10q-6 20 11 53h26t17 15q-6 6 -32 15 t-26 24z" />
<glyph unicode="&#xae;" horiz-adv-x="686" d="M41 829q0 2 4 5.5t2 7.5l4 2q4 -2 12 -2q6 72 7 200q0 129 -7 224l-16 -4q-2 4 0 12t6 16q-6 6 -6 10q4 4 6 5q-2 4 -8 6t-4 8q0 2 4 5t2 7l4 2q49 -10 266 -10q215 -2 322 8q4 -4 4 -8q-2 0 -2 -2t-4 -6t-4 -6q4 0 8 -7.5t2 -9.5v-6q-2 -2 -14 -2q6 -2 16 -10 q0 -6 -4 -14q-4 2 -14 2q-16 -176 -2 -420h14q4 -2 4 -6q-2 0 -2 -3.5t-4 -7.5t-4 -6q6 0 6 -4q0 -20 4 -12v-6q-6 -2 -12 0l-2 -2q6 -3 16 -11l-1 -6t-3 -6q-66 10 -285 12q-193 0 -290 -6l-19 -6q-2 4 0 12.5t6 18.5q-6 6 -6 8l6 6q-2 2 -8 4t-4 8zM125 838q84 -4 213 -4 t227 4q12 201 -2 430q-143 8 -436 2q-16 -182 -2 -432zM184 1188q0 -2 11 8q2 0 -5 4q-4 2 0 2q102 35 205 15h6l5 -3q-6 8 -3 9q4 2 5 8q6 2 9 -4t5 -6q2 2 2 12q4 2 8 -2t6 -4q0 12 8 2q18 -18 25 -39q20 -63 0 -141q0 8 8 -9q0 -2 -5 -5t-5 -7l9 -1t9 -5l-10 -6 q8 -2 4 -8q-66 -25 -135 -29q31 -51 100 -51q33 0 72 12q2 0 6 -2q-2 4 -8 -8q10 0 12 -6q-2 -2 -4 -3t-7 -2t-7 -4q2 -2 7 -4t5 -4q-4 -6 0 -6q6 0 6 -2q8 -8 -12 -10q-27 -2 -49 -2q-131 0 -170 92q-14 0 -39 4q2 -23 10 -72v-12h-8q-2 10 -4 2l-6 -4l-8 14q-4 8 -4 -2 t-5 -14q-2 -4 -6 4q-2 6 -14 -8q-16 0 -14 8q25 111 10 260q-2 -2 -8 -5t-11 -5l-4 4q2 8 0 10q0 2 3.5 4t2 6.5t4.5 6.5l7 2q-4 0 -15 4q-2 0 -4 2zM254 1028q8 -2 29 -6q0 4 -4 20q4 4 7 -3t5 -1q4 4 6 4l10 -10q2 16 8 10q4 4 11 -2v-6q2 -2 3 -7t1 -7q45 0 94 16 q12 35 10 103q0 10 -4 24q-80 39 -172 15q-6 -70 -4 -150z" />
<glyph unicode="&#xaf;" d="M72 821q0 127 89 215t214 88q127 0 216 -89t89 -214t-89 -214t-216 -89q-125 0 -214 89t-89 214zM162 821q0 -88 62.5 -150.5t150.5 -62.5t150.5 62.5t62.5 150.5q0 90 -61.5 151.5t-151.5 61.5q-88 0 -150.5 -62.5t-62.5 -150.5z" />
<glyph unicode="&#xb0;" horiz-adv-x="389" d="M16 1102q-4 4 0 5t0 11q4 2 9 4q-6 6 -7 8h5q4 -2 12 0q2 2 2 5q4 -8 12 -11q-29 113 0 199q-12 -4 -16 -4q-6 -2 -6 0q4 2 6 12v6q-8 0 -8 4q6 4 2 7q-6 2 -7 6q33 12 52 16q10 16 24 25q2 -4 4 0q4 4 9 4q-2 -4 4 -13q12 6 10 7v-4q-4 8 -4 -11q41 4 80 4t73 -4 q2 0 2 2l-2 2q2 6 7 4q8 -2 10 0q-4 4 0 11q4 -4 16 2q2 2 6 -3t9.5 -13.5t7.5 -12.5q16 -4 45 -12q0 4 -6 -8q-12 0 -13 -2q4 -2 10.5 -5.5t2.5 -9.5q-6 2 -13 0q-6 -2 2 -8l4 -8q-2 -2 -6 -2v-8l-6 4q20 -82 0 -172q2 -2 6 0v-9l4 -6q2 2 11 -2q0 -4 4 -12l-2 -6 q-18 -18 -45 -31q-6 -12 -25 -37q-16 0 -8 -4q0 4 -8 6q-6 -6 -9 -6v4q0 6 -4 13q-14 0 -10 6q-68 -12 -137 -2l2 -2q-2 -2 -4 0q-4 0 -6 -3.5t0 -5.5q-2 -4 -9 0l-6 5q2 -6 -2 -11q-2 -4 -5 0t-11 0l-4 6q-4 5 -8 14t-6 13q-33 12 -50 33zM96 1331q-37 -113 2 -227 q109 -27 195 4q20 55 20 121q0 57 -16 98q-98 20 -201 4z" />
<glyph unicode="&#xb1;" d="M72 821q0 127 89 215t214 88q127 0 216 -89t89 -214t-89 -214t-216 -89q-125 0 -214 89t-89 214zM162 821q0 -88 62.5 -150.5t150.5 -62.5t150.5 62.5t62.5 150.5q0 90 -61.5 151.5t-151.5 61.5q-88 0 -150.5 -62.5t-62.5 -150.5z" />
<glyph unicode="&#xb4;" horiz-adv-x="333" d="M20 1130q66 102 130 269q12 2 47 -60q18 6 43 35q14 -2 14 -10q0 -4 -7 -21.5t-3 -25.5q18 -6 37 16q4 0 16 6q8 4 16 -6q-43 -76 -86 -151q-55 -98 -61 -133q-8 -10 -16 -23q0 10 -31 31q-10 4 0 78q-8 4 -53 -41q-8 12 -20.5 6t-20.5 2q-12 16 -5 28z" />
<glyph unicode="&#xb6;" horiz-adv-x="1372" d="M33 729q0 2 20 12q8 12 25 9v16q-2 10 -2 16q-10 8 -8 19q2 2 4 5t2 5q-20 309 110 543q10 18 21 18q12 0 18 -31q10 0 15.5 21.5t23.5 15.5q0 -47 14 -55q6 4 21 33q12 20 33 14q2 -20 16 -25.5t14 -7.5q0 -8 -16 -30h6q12 4 17 4q188 47 401 47q268 0 532 -74 q12 0 13 -4q0 -4 -17.5 -15.5t-13.5 -11.5q14 -4 29.5 -9t17.5 -19l-18 -13q-8 -12 -29.5 -11t-28.5 -9q0 -8 9 -10l8 -2q33 -10 28 -29q-2 -10 11.5 -16.5t13.5 -14.5q-2 -2 -2 -8t5 -21.5t5 -21.5q0 -12 -20 -10q-35 18 -70 35q-18 -260 -18 -457q0 -307 49 -629 q2 -18 6 -35q-4 -4 -8 -4t-16.5 7.5t-20.5 7.5q-14 0 -29 -17q-6 0 -16 14.5t-23 10.5q-18 -6 -26 16q-6 8 -23 2q-10 -8 -8 -18t-10 -21q-2 -6 -19 -10q-18 0 -22 12.5t-8 24.5q-4 -4 -10.5 -24.5t-20.5 -18.5q-16 0 -17 10q-2 4 0 45q51 207 52 541q0 289 -41 618 q-94 20 -203 27q-31 -201 -31 -477q0 -362 56 -748q-4 -6 -9 -14q-8 10 -18 20q0 -12 -3 -19t-7 -7t-11.5 5t-11.5 5t-10 -4q-6 2 -14.5 16.5t-20.5 12.5q-23 -4 -33 32l-2 10q-2 9 -10 9q-12 -8 -12 -32.5t-13 -33.5q0 -10 -14 -20q-18 2 -22.5 19.5t-8.5 33.5 q-2 4 -14 -15.5t-16 -19.5q-6 0 -6 15q29 367 30 583q-266 6 -549 101q-12 2 -12 6t17.5 14t13.5 10q-14 4 -28.5 10.5t-16.5 20.5zM244 811q178 -62 364 -70q-4 229 -33 443q-174 -25 -305 -88q-31 -125 -26 -285z" />
<glyph unicode="&#xb7;" d="M72 821q0 127 89 215t214 88q127 0 216 -89t89 -214t-89 -214t-216 -89q-125 0 -214 89t-89 214zM162 821q0 -88 62.5 -150.5t150.5 -62.5t150.5 62.5t62.5 150.5q0 90 -61.5 151.5t-151.5 61.5q-88 0 -150.5 -62.5t-62.5 -150.5z" />
<glyph unicode="&#xb8;" d="M72 821q0 127 89 215t214 88q127 0 216 -89t89 -214t-89 -214t-216 -89q-125 0 -214 89t-89 214zM162 821q0 -88 62.5 -150.5t150.5 -62.5t150.5 62.5t62.5 150.5q0 90 -61.5 151.5t-151.5 61.5q-88 0 -150.5 -62.5t-62.5 -150.5z" />
<glyph unicode="&#xba;" d="M72 821q0 127 89 215t214 88q127 0 216 -89t89 -214t-89 -214t-216 -89q-125 0 -214 89t-89 214zM162 821q0 -88 62.5 -150.5t150.5 -62.5t150.5 62.5t62.5 150.5q0 90 -61.5 151.5t-151.5 61.5q-88 0 -150.5 -62.5t-62.5 -150.5z" />
<glyph unicode="&#xbb;" d="M72 821q0 127 89 215t214 88q127 0 216 -89t89 -214t-89 -214t-216 -89q-125 0 -214 89t-89 214zM162 821q0 -88 62.5 -150.5t150.5 -62.5t150.5 62.5t62.5 150.5q0 90 -61.5 151.5t-151.5 61.5q-88 0 -150.5 -62.5t-62.5 -150.5z" />
<glyph unicode="&#xbf;" horiz-adv-x="1476" d="M41 487q37 23 106 66l3 8q-4 16 17 50t34 34q6 0 6 -14q16 -16 20 -15q0 16 15.5 34t29.5 18q2 0 23 -29q201 115 385 184q16 115 8 219q20 20 55 21q47 0 91 -35q14 2 14 18.5t12 16.5q47 -2 90 -23q-16 -135 2 -342q0 -2 9 -28q4 -12 -7 -21q-4 -6 -32 0q-14 23 -17 23 q-4 -2 -9 -9.5t-10 -17.5t-18 -6q-10 20 -18 45l-29 -10q-8 -41 -24 -41q-12 0 -21 24q-18 -6 -51 -18q-10 -14 -14 -10h-15q-209 -80 -399 -201q0 -109 8 -162q254 -113 529 -112q168 0 319 45q29 117 27 209q0 20 26 26q14 0 20.5 -17.5t20.5 -13.5q4 -6 8 -6q20 31 37 27 q4 -4 8 -4q8 0 20.5 10t18.5 10q2 0 4 -2q8 -82 7 -157q12 6 36 22q29 4 33 -24q4 -41 6 -43q-2 -6 -14 -13.5t-10 -17.5q4 -18 -27 -31q-16 -6 -16 -12q6 -10 27.5 -8t29.5 -11q9 0 21 -10q-2 -16 -17.5 -21.5t-29.5 -9.5q-4 0 13 -11t17 -15q-2 -4 -12 -4 q-53 -18 -107 -31q-29 -78 -47 -117q-14 -2 -17 16.5t-9 22.5q0 -6 6 25q2 16 -10 20q-8 -4 -21.5 -25.5t-25.5 -21.5q-8 0 -17 6q2 6 2 10q0 8 -10 15.5t-12 15.5q-37 -16 -56 -8q-141 -18 -278 -18q-250 0 -428 59q12 -16 20 -23q8 -14 9 -20q0 -12 -58 8q12 -18 12 -29 q0 -8 -12 -6q-41 2 -18 2q-10 0 -6 -10q-10 -2 -15 -2q-10 0 -15 12.5t-13 18.5q-23 -6 -17 -19.5t-16 -17.5q-25 -4 -35 8q-94 152 -94 356q0 39 4 78q-6 6 -17 0q-8 8 -8 17q0 6 31 32l2 23q-6 2 -20.5 -7t-18.5 -9q-14 6 -31.5 13t-19.5 21zM670 1153q0 37 6 98.5t6 81.5 q0 39 -12 58q10 6 20 6q14 0 36 -11.5t30 -13.5q0 -2 8 -37q6 -23 27 -20q4 6 10 55q4 35 39 31q2 -8 8 -8q4 0 17.5 8t19.5 8q18 0 22 -47q14 0 19.5 22.5t40.5 18.5q-14 -121 0 -262q-76 -2 -76 30q0 4 2 13v10q0 23 -39 23q-6 -68 -12 -74h-51q-33 -2 -33 2q-2 23 -8 31 q-41 2 -52 -13q-10 -2 -11 -9t-3 -7q-4 0 -14 6z" />
<glyph unicode="&#xc0;" horiz-adv-x="1378" d="M14 -25q74 94 195 312q-68 6 -109 14q-4 14 13.5 21.5t19.5 11.5h27q14 0 16 14q-4 4 -33 19q-23 8 -22 22q0 6 2 12q16 -2 23.5 17.5t15.5 21.5q-25 39 -17 49q88 -27 150 -40q143 279 274 591q-72 197 -112 324q6 10 28.5 10t31.5 3t9 9q0 4 -2 9.5t-2 7.5q0 4 8 6 q8 4 25.5 -3t19.5 -7q6 0 9 4q-4 10 8 21.5t22 11.5q4 0 4 -2q20 -88 44 -162q16 47 47 133q8 14 16 16q14 -2 14 -20.5t4 -22.5q8 12 18.5 24.5t24.5 8.5q4 -2 5 -22q4 -6 4 -11q0 -6 -5.5 -15t-5.5 -15q0 -4 4 -11q6 -2 17 2q25 29 26 29q2 0 6.5 -2t8.5 -2t11 6t15 6 q14 -14 -2 -43q-41 -113 -129 -305q123 -326 279 -598q47 12 104 25q25 8 29 -2q2 -14 -17.5 -21.5t-13.5 -21.5l12 -2q11 -2 9 -5q20 -8 14 -36q-8 -8 -8 -15q0 -6 11 -16t7 -14q-37 -14 -67 -23q147 -227 258 -295q4 -4 4 -8q0 -12 -19 -12q-18 0 -32.5 17t-24.5 1 q8 -10 0 -25l-8 -4q-6 0 -15.5 12.5t-21.5 10.5q-2 2 -4 10t-4 8q-4 0 -6 -2q-4 -23 -8 -30q-8 -16 -29 -23q6 -18 -4 -37q-8 0 -19.5 8.5t-17.5 8.5q-8 0 -16 -7q-94 88 -226 334q-217 -20 -491 0q-59 -160 -90 -297q-39 6 -97 2q-6 -4 -8 -4q-6 0 -10 11.5t-10 15.5 q0 -2 4 26q2 16 -12 21q-4 -2 -27 -43q-16 -31 -39 -27q-2 16 -14 19q-18 2 -23 10q-29 -35 -43 -29q-6 8 -18.5 3t-14.5 1zM473 418q183 -24 365 -12q-90 188 -187 425q-61 -135 -178 -413zM487 1800q8 10 17 6q14 -6 16 -6q20 -20 39 -14q2 8 -5 24.5t-7 20.5q0 8 14 10 q4 -12 22.5 -22.5t20.5 -12.5q35 61 47 60q53 -137 129 -266q6 -12 0 -23q-4 -12 -16 -12q2 0 -12 6q-8 2 -15 -8q4 0 -53 41q10 -76 0 -80q-20 -6 -33 -29l-16 23q-6 31 -148 282z" />
<glyph unicode="&#xc1;" horiz-adv-x="1378" d="M14 -25q74 94 195 312q-68 6 -109 14q-4 14 13.5 21.5t19.5 11.5h27q14 0 16 14q-4 4 -33 19q-23 8 -22 22q0 6 2 12q16 -2 23.5 17.5t15.5 21.5q-25 39 -17 49q88 -27 150 -40q143 279 274 591q-72 197 -112 324q6 10 28.5 10t31.5 3t9 9q0 4 -2 9.5t-2 7.5q0 4 8 6 q8 4 25.5 -3t19.5 -7q6 0 9 4q-4 10 8 21.5t22 11.5q4 0 4 -2q20 -88 44 -162q16 47 47 133q8 14 16 16q14 -2 14 -20.5t4 -22.5q8 12 18.5 24.5t24.5 8.5q4 -2 5 -22q4 -6 4 -11q0 -6 -5.5 -15t-5.5 -15q0 -4 4 -11q6 -2 17 2q25 29 26 29q2 0 6.5 -2t8.5 -2t11 6t15 6 q14 -14 -2 -43q-41 -113 -129 -305q123 -326 279 -598q47 12 104 25q25 8 29 -2q2 -14 -17.5 -21.5t-13.5 -21.5l12 -2q11 -2 9 -5q20 -8 14 -36q-8 -8 -8 -15q0 -6 11 -16t7 -14q-37 -14 -67 -23q147 -227 258 -295q4 -4 4 -8q0 -12 -19 -12q-18 0 -32.5 17t-24.5 1 q8 -10 0 -25l-8 -4q-6 0 -15.5 12.5t-21.5 10.5q-2 2 -4 10t-4 8q-4 0 -6 -2q-4 -23 -8 -30q-8 -16 -29 -23q6 -18 -4 -37q-8 0 -19.5 8.5t-17.5 8.5q-8 0 -16 -7q-94 88 -226 334q-217 -20 -491 0q-59 -160 -90 -297q-39 6 -97 2q-6 -4 -8 -4q-6 0 -10 11.5t-10 15.5 q0 -2 4 26q2 16 -12 21q-4 -2 -27 -43q-16 -31 -39 -27q-2 16 -14 19q-18 2 -23 10q-29 -35 -43 -29q-6 8 -18.5 3t-14.5 1zM473 418q183 -24 365 -12q-90 188 -187 425q-61 -135 -178 -413zM634 1593q66 102 130 269q12 2 47 -60q18 6 43 35q14 -2 14 -10q0 -4 -7 -21.5 t-3 -25.5q18 -6 37 16q4 0 16 6q8 4 16 -6q-43 -76 -86 -151q-55 -98 -61 -133q-8 -10 -16 -23q0 10 -31 31q-10 4 0 78q-8 4 -53 -41q-8 12 -20.5 6t-20.5 2q-12 16 -5 28z" />
<glyph unicode="&#xc2;" horiz-adv-x="1378" d="M14 -25q74 94 195 312q-68 6 -109 14q-4 14 13.5 21.5t19.5 11.5h27q14 0 16 14q-4 4 -33 19q-23 8 -22 22q0 6 2 12q16 -2 23.5 17.5t15.5 21.5q-25 39 -17 49q88 -27 150 -40q143 279 274 591q-72 197 -112 324q6 10 28.5 10t31.5 3t9 9q0 4 -2 9.5t-2 7.5q0 4 8 6 q8 4 25.5 -3t19.5 -7q6 0 9 4q-4 10 8 21.5t22 11.5q4 0 4 -2q20 -88 44 -162q16 47 47 133q8 14 16 16q14 -2 14 -20.5t4 -22.5q8 12 18.5 24.5t24.5 8.5q4 -2 5 -22q4 -6 4 -11q0 -6 -5.5 -15t-5.5 -15q0 -4 4 -11q6 -2 17 2q25 29 26 29q2 0 6.5 -2t8.5 -2t11 6t15 6 q14 -14 -2 -43q-41 -113 -129 -305q123 -326 279 -598q47 12 104 25q25 8 29 -2q2 -14 -17.5 -21.5t-13.5 -21.5l12 -2q11 -2 9 -5q20 -8 14 -36q-8 -8 -8 -15q0 -6 11 -16t7 -14q-37 -14 -67 -23q147 -227 258 -295q4 -4 4 -8q0 -12 -19 -12q-18 0 -32.5 17t-24.5 1 q8 -10 0 -25l-8 -4q-6 0 -15.5 12.5t-21.5 10.5q-2 2 -4 10t-4 8q-4 0 -6 -2q-4 -23 -8 -30q-8 -16 -29 -23q6 -18 -4 -37q-8 0 -19.5 8.5t-17.5 8.5q-8 0 -16 -7q-94 88 -226 334q-217 -20 -491 0q-59 -160 -90 -297q-39 6 -97 2q-6 -4 -8 -4q-6 0 -10 11.5t-10 15.5 q0 -2 4 26q2 16 -12 21q-4 -2 -27 -43q-16 -31 -39 -27q-2 16 -14 19q-18 2 -23 10q-29 -35 -43 -29q-6 8 -18.5 3t-14.5 1zM380 1542q-10 0 0 14q147 131 238 310l-29 28l-10 15q14 4 31 18q8 -6 24 -4q6 6 19 -2q8 4 14 10q-10 10 -6 17v12q6 2 29 -14q-4 10 4 26 q10 4 18 -22q4 -6 10.5 -19.5t8.5 -19.5q6 6 8 6q6 0 12 -10q4 -4 19 6q4 -4 3 -11.5t11 -7.5q20 -6 14 -12q-12 -10 -37 -35q72 -131 217 -309q4 -4 5 -6q0 -2 -2 -2t-7.5 2t-7.5 2h-2q0 -4 6 -10l-2 -2q-6 2 -18 -6q-6 6 -23 6q-10 -8 -20 8l-10 4q-4 -6 2 -16 q4 -10 0 -17q0 -12 -2 -14q-2 0 -27 18q-2 2 -3 -10t-3 -12q-4 2 -6 6q-57 104 -166 283q-111 -133 -174 -295q-10 -2 -29 0q-6 2 -6 10q-12 6 -12 39q-6 10 -7 10q-8 -12 -24 -12q-10 -2 -10 4t-1 12t-8 8q-10 6 -12 -3t-12 -7q-14 4 -17 4zM473 418q183 -24 365 -12 q-90 188 -187 425q-61 -135 -178 -413z" />
<glyph unicode="&#xc3;" horiz-adv-x="1378" d="M14 -25q74 94 195 312q-68 6 -109 14q-4 14 13.5 21.5t19.5 11.5h27q14 0 16 14q-4 4 -33 19q-23 8 -22 22q0 6 2 12q16 -2 23.5 17.5t15.5 21.5q-25 39 -17 49q88 -27 150 -40q143 279 274 591q-72 197 -112 324q6 10 28.5 10t31.5 3t9 9q0 4 -2 9.5t-2 7.5q0 4 8 6 q8 4 25.5 -3t19.5 -7q6 0 9 4q-4 10 8 21.5t22 11.5q4 0 4 -2q20 -88 44 -162q16 47 47 133q8 14 16 16q14 -2 14 -20.5t4 -22.5q8 12 18.5 24.5t24.5 8.5q4 -2 5 -22q4 -6 4 -11q0 -6 -5.5 -15t-5.5 -15q0 -4 4 -11q6 -2 17 2q25 29 26 29q2 0 6.5 -2t8.5 -2t11 6t15 6 q14 -14 -2 -43q-41 -113 -129 -305q123 -326 279 -598q47 12 104 25q25 8 29 -2q2 -14 -17.5 -21.5t-13.5 -21.5l12 -2q11 -2 9 -5q20 -8 14 -36q-8 -8 -8 -15q0 -6 11 -16t7 -14q-37 -14 -67 -23q147 -227 258 -295q4 -4 4 -8q0 -12 -19 -12q-18 0 -32.5 17t-24.5 1 q8 -10 0 -25l-8 -4q-6 0 -15.5 12.5t-21.5 10.5q-2 2 -4 10t-4 8q-4 0 -6 -2q-4 -23 -8 -30q-8 -16 -29 -23q6 -18 -4 -37q-8 0 -19.5 8.5t-17.5 8.5q-8 0 -16 -7q-94 88 -226 334q-217 -20 -491 0q-59 -160 -90 -297q-39 6 -97 2q-6 -4 -8 -4q-6 0 -10 11.5t-10 15.5 q0 -2 4 26q2 16 -12 21q-4 -2 -27 -43q-16 -31 -39 -27q-2 16 -14 19q-18 2 -23 10q-29 -35 -43 -29q-6 8 -18.5 3t-14.5 1zM405 1653q70 37 218 127q12 8 22 -11q4 -8 -2 -16q-4 -8 0 -14v-6q16 0 18.5 -11.5t10.5 -27.5q47 -25 114 -51q86 33 164 92q10 6 13 4 q4 -10 4 -17q0 -6 -4.5 -13t-4.5 -9q0 -4 2.5 -6t4.5 -4l4 -4q14 0 14 -7q2 -16 16.5 -27.5t14.5 -13.5q-2 -4 -8 -10q-70 -35 -228 -127q-12 12 -12 37q-49 31 -96 47.5t-95 32.5q-59 -33 -122 -78q-4 8 -5 31q16 16 17 18l-16 1q-15 1 -15 16q4 8 17 24q-2 2 -25 9.5 t-21 13.5zM473 418q183 -24 365 -12q-90 188 -187 425q-61 -135 -178 -413z" />
<glyph unicode="&#xc4;" horiz-adv-x="1378" d="M14 -25q74 94 195 312q-68 6 -109 14q-4 14 13.5 21.5t19.5 11.5h27q14 0 16 14q-4 4 -33 19q-23 8 -22 22q0 6 2 12q16 -2 23.5 17.5t15.5 21.5q-25 39 -17 49q88 -27 150 -40q143 279 274 591q-72 197 -112 324q6 10 28.5 10t31.5 3t9 9q0 4 -2 9.5t-2 7.5q0 4 8 6 q8 4 25.5 -3t19.5 -7q6 0 9 4q-4 10 8 21.5t22 11.5q4 0 4 -2q20 -88 44 -162q16 47 47 133q8 14 16 16q14 -2 14 -20.5t4 -22.5q8 12 18.5 24.5t24.5 8.5q4 -2 5 -22q4 -6 4 -11q0 -6 -5.5 -15t-5.5 -15q0 -4 4 -11q6 -2 17 2q25 29 26 29q2 0 6.5 -2t8.5 -2t11 6t15 6 q14 -14 -2 -43q-41 -113 -129 -305q123 -326 279 -598q47 12 104 25q25 8 29 -2q2 -14 -17.5 -21.5t-13.5 -21.5l12 -2q11 -2 9 -5q20 -8 14 -36q-8 -8 -8 -15q0 -6 11 -16t7 -14q-37 -14 -67 -23q147 -227 258 -295q4 -4 4 -8q0 -12 -19 -12q-18 0 -32.5 17t-24.5 1 q8 -10 0 -25l-8 -4q-6 0 -15.5 12.5t-21.5 10.5q-2 2 -4 10t-4 8q-4 0 -6 -2q-4 -23 -8 -30q-8 -16 -29 -23q6 -18 -4 -37q-8 0 -19.5 8.5t-17.5 8.5q-8 0 -16 -7q-94 88 -226 334q-217 -20 -491 0q-59 -160 -90 -297q-39 6 -97 2q-6 -4 -8 -4q-6 0 -10 11.5t-10 15.5 q0 -2 4 26q2 16 -12 21q-4 -2 -27 -43q-16 -31 -39 -27q-2 16 -14 19q-18 2 -23 10q-29 -35 -43 -29q-6 8 -18.5 3t-14.5 1zM405 1548q10 125 0 215q53 2 54 -22v-9q-2 -6 -2 -8q0 -16 28 -16q4 49 11 53h36q25 2 25 -7t6 -15q29 -2 35 8q8 2 8 10q2 2 12 -4q2 -27 -2 -78 q-6 -57 -6 -74q0 -31 8 -45q-6 -4 -12 -4q-10 0 -25.5 9.5t-19.5 10.5t-10 25q-4 16 -19 15q-2 -2 -6 -39q-4 -25 -30 -23q0 6 -5 6q-4 0 -13 -5t-13 -5q-14 0 -17 33q-10 0 -14 -17.5t-29 -13.5zM473 418q183 -24 365 -12q-90 188 -187 425q-61 -135 -178 -413zM762 1741 q14 8 22 6q10 -4 21 -8q8 -12 17 -27.5t24 -13.5q4 6 4 37q0 23 27 20q2 -8 32 -12q16 -2 25 -19q10 0 13 16.5t28 14.5q-12 -143 -4 -213q-51 -2 -51 10q0 4 3 9.5t3 7.5q0 8 -27 8q-2 -45 -22 -45q-27 0 -29 26q0 12 -6 13q-2 0 -14.5 -12.5t-18.5 -12.5q-4 0 -7 6t-16 0 q-10 -2 -16 -8q-2 -4 -4 0q-2 18 4 113q4 66 -8 84z" />
<glyph unicode="&#xc5;" horiz-adv-x="1378" d="M14 -25q74 94 195 312q-68 6 -109 14q-4 14 13.5 21.5t19.5 11.5h27q14 0 16 14q-4 4 -33 19q-23 8 -22 22q0 6 2 12q16 -2 23.5 17.5t15.5 21.5q-25 39 -17 49q88 -27 150 -40q143 279 274 591q-72 197 -112 324q6 10 28.5 10t31.5 3t9 9q0 4 -2 9.5t-2 7.5q0 4 8 6 q8 4 25.5 -3t19.5 -7q6 0 9 4q-4 10 8 21.5t22 11.5q4 0 4 -2q20 -88 44 -162q16 47 47 133q8 14 16 16q14 -2 14 -20.5t4 -22.5q8 12 18.5 24.5t24.5 8.5q4 -2 5 -22q4 -6 4 -11q0 -6 -5.5 -15t-5.5 -15q0 -4 4 -11q6 -2 17 2q25 29 26 29q2 0 6.5 -2t8.5 -2t11 6t15 6 q14 -14 -2 -43q-41 -113 -129 -305q123 -326 279 -598q47 12 104 25q25 8 29 -2q2 -14 -17.5 -21.5t-13.5 -21.5l12 -2q11 -2 9 -5q20 -8 14 -36q-8 -8 -8 -15q0 -6 11 -16t7 -14q-37 -14 -67 -23q147 -227 258 -295q4 -4 4 -8q0 -12 -19 -12q-18 0 -32.5 17t-24.5 1 q8 -10 0 -25l-8 -4q-6 0 -15.5 12.5t-21.5 10.5q-2 2 -4 10t-4 8q-4 0 -6 -2q-4 -23 -8 -30q-8 -16 -29 -23q6 -18 -4 -37q-8 0 -19.5 8.5t-17.5 8.5q-8 0 -16 -7q-94 88 -226 334q-217 -20 -491 0q-59 -160 -90 -297q-39 6 -97 2q-6 -4 -8 -4q-6 0 -10 11.5t-10 15.5 q0 -2 4 26q2 16 -12 21q-4 -2 -27 -43q-16 -31 -39 -27q-2 16 -14 19q-18 2 -23 10q-29 -35 -43 -29q-6 8 -18.5 3t-14.5 1zM473 418q183 -24 365 -12q-90 188 -187 425q-61 -135 -178 -413zM477 1608q-4 6 0 8t0 14q0 -2 10 2q-8 8 -8 10l4 2q4 1 8.5 -1.5t6.5 -0.5 q-2 2 2 7q6 -8 14 -15q-31 133 0 236l-18 -6q-6 -2 -9 2q6 2 9 12v8q-10 0 -11 4q8 6 4 8q-8 2 -8 9q18 6 60 18q12 16 28 29q4 4 15 4q-2 -4 6 -12q12 6 10 6l1 -4q1 -4 -1 -6q-2 -4 -2 -7q47 4 92 4q47 0 88 -4l-2 4q-6 8 0 11q6 2 11.5 -4.5t9.5 -1.5q-4 4 0 12 q6 -4 18 2q-2 -2 8 -2l19 -31q18 -4 53 -14q0 2 -6 -8q-6 2 -15 -5q6 -4 12.5 -7t2.5 -9q-18 4 -19 -4q0 -2 5.5 -6t5.5 -10h-2q-2 0 -5 -2q0 -8 -2 -9l-6 2q12 -49 13 -102q0 -51 -13 -98q4 -4 6 2q10 0 0 -13q2 -2 6.5 -3t11.5 -4t5 -7q-4 -6 0 -8q2 -2 -2 -8 q-23 -23 -53 -35q-12 -27 -31 -45q4 0 -6 -6q-2 0 -4 6t-8 4q-4 -10 -9 -8q0 2 -1 6t-5 14q-6 0 -12 4q-39 -6 -80 -6t-80 6l2 -2q-4 2 -10 -2v-8q-2 -4 -9 1t-9 3q2 -8 -3 -12q-2 -4 -6 0q-4 6 -12 2l-8 4l-17 33q-39 18 -55 37zM553 1747q0 -78 20 -135q119 -33 228 4 q25 68 24 147q0 64 -18 111q-102 25 -236 6q-18 -55 -18 -133z" />
<glyph unicode="&#xc6;" horiz-adv-x="1921" d="M14 -4q94 109 226 317q-57 8 -84 15q-4 12 13 20t19 12h25q16 0 18 13q-6 6 -34 18q-20 10 -21 25q0 6 2 12q16 -2 23.5 16.5t15.5 22.5q-27 37 -16 49q55 -18 137 -39q270 465 448 887q10 10 50 20q12 -2 10 -20t2 -25q10 12 21.5 23.5t25.5 7.5q2 -2 2 -22q6 -10 0 -23 q-8 -20 -8 -22l22 -5q12 16 27 15l-6 114q29 16 63 -10q12 0 18.5 15.5t18.5 11.5q6 -2 13.5 -11.5t13.5 -9.5q4 0 8 2q6 0 11 -12t14 -8q0 14 22 20q12 -2 23 -4l-2 -139q61 -2 129 -2q373 0 571 47q35 2 37 2q10 -2 10 -14q0 -14 -14 -19q-20 -4 -23 -10q14 -4 28.5 -11.5 t14.5 -21.5l-20 -10q-8 -10 -29.5 -7t-28.5 -7q-2 -8 4.5 -10t10.5 -5q33 -8 24 -30q-4 -10 9.5 -18.5t13.5 -14.5q-8 -8 -4 -32.5t-2 -31.5q-6 0 -29 5q-295 47 -567 47q-70 0 -140 -4q-4 -254 -2 -383q166 51 371 51q94 0 211 -10q2 -4 2 -9q0 -8 -14.5 -15t-15.5 -10 t-27 -5q-14 -2 -17 -17l41 -16q25 -8 17 -31q-16 0 -20.5 -14t-12.5 -19q35 -35 20 -57q-209 29 -327 29q-115 0 -226 -25q6 -248 29 -405q88 -6 174 -6q301 0 482 59q8 2 14 2q14 0 14 -14q0 -25 -24 -60q8 -4 13 -23.5t21 -17.5q8 -23 -14 -32t-43 -17q2 -14 16.5 -15 t26.5 -1q4 -6 12.5 -10.5t8.5 -10.5q0 -4 -5 -10q-299 -25 -397 -25q-117 0 -268 23q25 -96 61 -158q-14 -18 -20 -18t-17 12q-4 20 -18 10q-16 -20 -37 -20q-14 -4 -26.5 12.5t-22.5 18.5v14q0 10 -10 8q-23 -39 -53 -37q-23 -23 -54 -14q-4 29 -18 29q-10 0 -29 -11 q0 55 2 191v211q-96 -18 -223 -19q-121 0 -270 17q-74 -158 -142 -324q-4 -4 -38.5 7.5t-45.5 6.5q-6 -2 -10 -2q-6 0 -9 11.5t-7 15.5q0 2 4 27q4 14 -8 18q-4 -2 -31 -39q-20 -29 -43 -24q0 16 -14.5 21t-18.5 11q-31 -31 -45 -24q-4 8 -17.5 3t-15.5 1zM530 444 q190 -25 369 -12q18 2 49 4q0 471 -4 682q-10 -2 -32.5 -5t-34.5 -5q-115 -213 -347 -664z" />
<glyph unicode="&#xc7;" horiz-adv-x="1294" d="M33 1192q-6 6 0 14q25 10 76 27q-4 33 -17 92q14 18 31 10q2 -6 13 -5t16 -3q29 -29 32 -29q4 20 15 25q8 -2 25.5 7t27.5 5q8 10 24 4q8 -10 7 -30q-2 -27 -2 -29h4q8 18 17 38.5t24 27.5q25 2 51 -17q-8 -12 -15 -33q227 45 478 45q197 0 391 -28q2 -6 2 -10t-8 -9.5 t-11.5 -9.5t-15.5 -4v-12q-2 -8 -2 -15q43 -12 35 -36q-16 0 -21.5 -19.5t-13.5 -23.5q29 -33 29 -58q0 -18 -27 -14q6 -47 27 -94q23 -59 14 -78q-20 -16 -33 -6q-12 41 -26 41q-6 0 -15.5 -7.5t-11.5 -7.5q-4 0 -6 4q-20 -25 -33 -22l-14 22q-8 -4 -17.5 -29.5 t-29.5 -21.5q-8 2 -9.5 16.5t-13.5 12.5l-4 10q20 117 21 203q-125 20 -302 20q-96 0 -421 -24q-33 -188 -33 -447q0 -303 43 -530q160 -39 334 -39q201 0 374 53q6 158 5 207q-4 25 -7 47q-2 23 11 25q12 2 20 -15q20 2 23 -12q2 -23 6 -29q12 -20 20 -14q-2 16 14.5 33.5 t30.5 17.5q6 0 16.5 -18.5t24.5 -16.5q16 6 15.5 22.5t9.5 18.5q20 6 22 9q13 8 13 -23q-12 -63 -17 -160q-8 -115 -12 -149q-2 -2 -33 -17q4 -4 9.5 -6t15.5 -12q-2 -14 -17.5 -19.5t-29.5 -9.5q-4 0 13 -11t17 -15q-2 -4 -12 -6q-223 -61 -463 -66q-47 -33 -65 -68 q86 0 151 11q4 -6 -1 -19.5t1 -19.5q6 6 27 4q-8 -195 10 -291q-8 -4 -20 0q-8 4 -17 8q0 2 -4 14.5t-12 10.5l-3 -23q-3 -22 -20 -24q0 -6 10.5 -8.5t8.5 -16.5q-78 4 -156 6q-92 4 -166 -4q10 35 27.5 34t23.5 17q-29 2 -30 7q0 -2 6 22q0 6 10 14q6 2 10 5q8 16 2 22 q0 4 -4 4q-2 2 4 8q109 -25 218 -10q14 61 2 127q-8 2 -76 -8q-74 -12 -103 -12t-28 10q0 31 12 31q2 0 6 -3h8q8 0 9 17q-31 2 -33 6v23v2q-6 0 -27 14q27 31 100 90q-188 8 -376 51q-14 -10 -25 -10q-8 2 -20 18q-10 -4 -19.5 -27.5t-32.5 -19.5q-8 2 -22 16.5t-29 12.5 l-6 10q4 14 8 39l-14 6q-16 6 -33 21q0 8 9.5 12t4.5 14q-14 10 -14 17q0 2 23 12q14 14 14 19q-8 10 -18.5 14t-18.5 14l11 5q10 5 10 18q0 12 -15 30q0 29 0 27q4 12 29 10q12 -8 41 -24q27 258 16 561q-4 123 -20 299q-37 -10 -41 -12q-25 -8 -29 2q-4 12 10.5 21 t14.5 15t-2 11q4 8 4 24h-25q-12 0 -10 15z" />
<glyph unicode="&#xc8;" horiz-adv-x="1280" d="M29 1139l18 12q8 12 29.5 11t27.5 9q0 6 -8 9l-8 4q-31 8 -29 26q2 12 -10 19.5t-14 13.5q4 4 4 8t-5 10.5t-5 8.5l4 8q10 2 18 2q-8 8 -16 18q6 2 12 7q43 -12 92 -19q-4 20 -14 57q31 20 53 9q2 -8 19 -23q6 2 18 18.5t29 12.5q4 -16 30.5 -20.5t26.5 -16.5 q0 -6 -2 -12q10 2 26.5 22.5t28.5 20.5q8 0 19 -6q4 2 16 11t21 9q6 0 14 -6q0 -4 10 -15.5t6 -25.5q-6 -18 -18 -59q94 -4 196 -5q414 0 582 41q35 2 39 2q8 -2 8 -16q2 -12 -12 -16q-20 -4 -25 -11q14 -4 29.5 -11t15.5 -21q-2 -6 -20 -11q-8 -10 -29.5 -8t-27.5 -6 q-2 -8 3 -10t9 -4q31 -14 27.5 -27.5t9 -23t12.5 -15.5q-8 -8 -4 -32.5t-2 -30.5q-8 2 -31 6q-338 51 -672 51q-72 0 -137 -2q-20 -150 -31 -358q160 31 345 30q109 0 225 -10q2 -4 2 -8q0 -8 -13.5 -15.5t-17.5 -13.5q-12 0 -26.5 -1t-16.5 -15q2 -2 41 -16q25 -10 19 -33 q-16 2 -21.5 -12.5t-13.5 -18.5q33 -39 22 -59q-211 31 -377 30q-92 0 -172 -10q-4 -231 15 -418l22 -2q100 -8 217 -8q354 0 545 59q8 2 17 3q14 0 14 -15q0 -27 -27 -57q8 -4 13.5 -23.5t21.5 -19.5q8 -23 -16 -31q-37 -16 -39 -18q2 -14 16 -15q25 -2 27 -2q2 -6 10 -11 t8 -9t-2 -10q-225 -41 -440 -41q-186 0 -367 30l2 -8q-10 -2 -15 -16.5t-13 -16.5q-14 -4 -21.5 13.5t-13.5 19.5q-2 -14 -6 -30.5t-19 -18.5l-12 18q-12 6 -13 21.5t-12 21.5q-8 0 -10 -8l-2 -8q-2 -20 -27 -18q-10 2 -16 -9.5t-12 -13.5q-12 4 -43 21q-4 -18 -33 -19 q-12 0 -6 19q18 57 26 90q-14 2 -84 24q-8 8 -2 15q6 6 13 12q-2 14 10 14q23 2 22 2q0 18 -4 23q2 4 2 10t-14 15.5t-12 21.5q4 12 28 4q12 -4 70 -12q33 180 37 374q-23 -2 -61 -12q-23 -8 -27 2q-4 12 9 22.5t13 16.5q0 4 -4 10l4 9q-37 10 -36 28q2 4 2 8t-9.5 7.5 t-5.5 9.5q37 16 115 41q-6 186 -35 379q-63 -6 -119 -19q-12 2 -12 6t16.5 15.5t12.5 11.5q-14 4 -29.5 9t-17.5 20zM442 1685q8 10 17 6q14 -6 16 -6q20 -20 39 -14q2 8 -5 24.5t-7 20.5q0 8 14 10q4 -12 22.5 -22.5t20.5 -12.5q35 61 47 60q53 -137 129 -266q6 -12 0 -23 q-4 -12 -16 -12q2 0 -12 6q-8 2 -15 -8q4 0 -53 41q10 -76 0 -80q-20 -6 -33 -29l-16 23q-6 31 -148 282z" />
<glyph unicode="&#xc9;" horiz-adv-x="1280" d="M29 1139l18 12q8 12 29.5 11t27.5 9q0 6 -8 9l-8 4q-31 8 -29 26q2 12 -10 19.5t-14 13.5q4 4 4 8t-5 10.5t-5 8.5l4 8q10 2 18 2q-8 8 -16 18q6 2 12 7q43 -12 92 -19q-4 20 -14 57q31 20 53 9q2 -8 19 -23q6 2 18 18.5t29 12.5q4 -16 30.5 -20.5t26.5 -16.5 q0 -6 -2 -12q10 2 26.5 22.5t28.5 20.5q8 0 19 -6q4 2 16 11t21 9q6 0 14 -6q0 -4 10 -15.5t6 -25.5q-6 -18 -18 -59q94 -4 196 -5q414 0 582 41q35 2 39 2q8 -2 8 -16q2 -12 -12 -16q-20 -4 -25 -11q14 -4 29.5 -11t15.5 -21q-2 -6 -20 -11q-8 -10 -29.5 -8t-27.5 -6 q-2 -8 3 -10t9 -4q31 -14 27.5 -27.5t9 -23t12.5 -15.5q-8 -8 -4 -32.5t-2 -30.5q-8 2 -31 6q-338 51 -672 51q-72 0 -137 -2q-20 -150 -31 -358q160 31 345 30q109 0 225 -10q2 -4 2 -8q0 -8 -13.5 -15.5t-17.5 -13.5q-12 0 -26.5 -1t-16.5 -15q2 -2 41 -16q25 -10 19 -33 q-16 2 -21.5 -12.5t-13.5 -18.5q33 -39 22 -59q-211 31 -377 30q-92 0 -172 -10q-4 -231 15 -418l22 -2q100 -8 217 -8q354 0 545 59q8 2 17 3q14 0 14 -15q0 -27 -27 -57q8 -4 13.5 -23.5t21.5 -19.5q8 -23 -16 -31q-37 -16 -39 -18q2 -14 16 -15q25 -2 27 -2q2 -6 10 -11 t8 -9t-2 -10q-225 -41 -440 -41q-186 0 -367 30l2 -8q-10 -2 -15 -16.5t-13 -16.5q-14 -4 -21.5 13.5t-13.5 19.5q-2 -14 -6 -30.5t-19 -18.5l-12 18q-12 6 -13 21.5t-12 21.5q-8 0 -10 -8l-2 -8q-2 -20 -27 -18q-10 2 -16 -9.5t-12 -13.5q-12 4 -43 21q-4 -18 -33 -19 q-12 0 -6 19q18 57 26 90q-14 2 -84 24q-8 8 -2 15q6 6 13 12q-2 14 10 14q23 2 22 2q0 18 -4 23q2 4 2 10t-14 15.5t-12 21.5q4 12 28 4q12 -4 70 -12q33 180 37 374q-23 -2 -61 -12q-23 -8 -27 2q-4 12 9 22.5t13 16.5q0 4 -4 10l4 9q-37 10 -36 28q2 4 2 8t-9.5 7.5 t-5.5 9.5q37 16 115 41q-6 186 -35 379q-63 -6 -119 -19q-12 2 -12 6t16.5 15.5t12.5 11.5q-14 4 -29.5 9t-17.5 20zM557 1454q66 102 130 269q12 2 47 -60q18 6 43 35q14 -2 14 -10q0 -4 -7 -21.5t-3 -25.5q18 -6 37 16q4 0 16 6q8 4 16 -6q-43 -76 -86 -151 q-55 -98 -61 -133q-8 -10 -16 -23q0 10 -31 31q-10 4 0 78q-8 4 -53 -41q-8 12 -20.5 6t-20.5 2q-12 16 -5 28z" />
<glyph unicode="&#xca;" horiz-adv-x="1280" d="M29 1139l18 12q8 12 29.5 11t27.5 9q0 6 -8 9l-8 4q-31 8 -29 26q2 12 -10 19.5t-14 13.5q4 4 4 8t-5 10.5t-5 8.5l4 8q10 2 18 2q-8 8 -16 18q6 2 12 7q43 -12 92 -19q-4 20 -14 57q31 20 53 9q2 -8 19 -23q6 2 18 18.5t29 12.5q4 -16 30.5 -20.5t26.5 -16.5 q0 -6 -2 -12q10 2 26.5 22.5t28.5 20.5q8 0 19 -6q4 2 16 11t21 9q6 0 14 -6q0 -4 10 -15.5t6 -25.5q-6 -18 -18 -59q94 -4 196 -5q414 0 582 41q35 2 39 2q8 -2 8 -16q2 -12 -12 -16q-20 -4 -25 -11q14 -4 29.5 -11t15.5 -21q-2 -6 -20 -11q-8 -10 -29.5 -8t-27.5 -6 q-2 -8 3 -10t9 -4q31 -14 27.5 -27.5t9 -23t12.5 -15.5q-8 -8 -4 -32.5t-2 -30.5q-8 2 -31 6q-338 51 -672 51q-72 0 -137 -2q-20 -150 -31 -358q160 31 345 30q109 0 225 -10q2 -4 2 -8q0 -8 -13.5 -15.5t-17.5 -13.5q-12 0 -26.5 -1t-16.5 -15q2 -2 41 -16q25 -10 19 -33 q-16 2 -21.5 -12.5t-13.5 -18.5q33 -39 22 -59q-211 31 -377 30q-92 0 -172 -10q-4 -231 15 -418l22 -2q100 -8 217 -8q354 0 545 59q8 2 17 3q14 0 14 -15q0 -27 -27 -57q8 -4 13.5 -23.5t21.5 -19.5q8 -23 -16 -31q-37 -16 -39 -18q2 -14 16 -15q25 -2 27 -2q2 -6 10 -11 t8 -9t-2 -10q-225 -41 -440 -41q-186 0 -367 30l2 -8q-10 -2 -15 -16.5t-13 -16.5q-14 -4 -21.5 13.5t-13.5 19.5q-2 -14 -6 -30.5t-19 -18.5l-12 18q-12 6 -13 21.5t-12 21.5q-8 0 -10 -8l-2 -8q-2 -20 -27 -18q-10 2 -16 -9.5t-12 -13.5q-12 4 -43 21q-4 -18 -33 -19 q-12 0 -6 19q18 57 26 90q-14 2 -84 24q-8 8 -2 15q6 6 13 12q-2 14 10 14q23 2 22 2q0 18 -4 23q2 4 2 10t-14 15.5t-12 21.5q4 12 28 4q12 -4 70 -12q33 180 37 374q-23 -2 -61 -12q-23 -8 -27 2q-4 12 9 22.5t13 16.5q0 4 -4 10l4 9q-37 10 -36 28q2 4 2 8t-9.5 7.5 t-5.5 9.5q37 16 115 41q-6 186 -35 379q-63 -6 -119 -19q-12 2 -12 6t16.5 15.5t12.5 11.5q-14 4 -29.5 9t-17.5 20zM372 1505q-10 0 0 14q147 131 238 310l-29 28l-10 15q14 4 31 18q8 -6 24 -4q6 6 19 -2q8 4 14 10q-10 10 -6 17v12q6 2 29 -14q-4 10 4 26q10 4 18 -22 q4 -6 10.5 -19.5t8.5 -19.5q6 6 8 6q6 0 12 -10q4 -4 19 6q4 -4 3 -11.5t11 -7.5q20 -6 14 -12q-12 -10 -37 -35q72 -131 217 -309q4 -4 5 -6q0 -2 -2 -2t-7.5 2t-7.5 2h-2q0 -4 6 -10l-2 -2q-6 2 -18 -6q-6 6 -23 6q-10 -8 -20 8l-10 4q-4 -6 2 -16q4 -10 0 -17 q0 -12 -2 -14q-2 0 -27 18q-2 2 -3 -10t-3 -12q-4 2 -6 6q-57 104 -166 283q-111 -133 -174 -295q-10 -2 -29 0q-6 2 -6 10q-12 6 -12 39q-6 10 -7 10q-8 -12 -24 -12q-10 -2 -10 4t-1 12t-8 8q-10 6 -12 -3t-12 -7q-14 4 -17 4z" />
<glyph unicode="&#xcb;" horiz-adv-x="1280" d="M29 1139l18 12q8 12 29.5 11t27.5 9q0 6 -8 9l-8 4q-31 8 -29 26q2 12 -10 19.5t-14 13.5q4 4 4 8t-5 10.5t-5 8.5l4 8q10 2 18 2q-8 8 -16 18q6 2 12 7q43 -12 92 -19q-4 20 -14 57q31 20 53 9q2 -8 19 -23q6 2 18 18.5t29 12.5q4 -16 30.5 -20.5t26.5 -16.5 q0 -6 -2 -12q10 2 26.5 22.5t28.5 20.5q8 0 19 -6q4 2 16 11t21 9q6 0 14 -6q0 -4 10 -15.5t6 -25.5q-6 -18 -18 -59q94 -4 196 -5q414 0 582 41q35 2 39 2q8 -2 8 -16q2 -12 -12 -16q-20 -4 -25 -11q14 -4 29.5 -11t15.5 -21q-2 -6 -20 -11q-8 -10 -29.5 -8t-27.5 -6 q-2 -8 3 -10t9 -4q31 -14 27.5 -27.5t9 -23t12.5 -15.5q-8 -8 -4 -32.5t-2 -30.5q-8 2 -31 6q-338 51 -672 51q-72 0 -137 -2q-20 -150 -31 -358q160 31 345 30q109 0 225 -10q2 -4 2 -8q0 -8 -13.5 -15.5t-17.5 -13.5q-12 0 -26.5 -1t-16.5 -15q2 -2 41 -16q25 -10 19 -33 q-16 2 -21.5 -12.5t-13.5 -18.5q33 -39 22 -59q-211 31 -377 30q-92 0 -172 -10q-4 -231 15 -418l22 -2q100 -8 217 -8q354 0 545 59q8 2 17 3q14 0 14 -15q0 -27 -27 -57q8 -4 13.5 -23.5t21.5 -19.5q8 -23 -16 -31q-37 -16 -39 -18q2 -14 16 -15q25 -2 27 -2q2 -6 10 -11 t8 -9t-2 -10q-225 -41 -440 -41q-186 0 -367 30l2 -8q-10 -2 -15 -16.5t-13 -16.5q-14 -4 -21.5 13.5t-13.5 19.5q-2 -14 -6 -30.5t-19 -18.5l-12 18q-12 6 -13 21.5t-12 21.5q-8 0 -10 -8l-2 -8q-2 -20 -27 -18q-10 2 -16 -9.5t-12 -13.5q-12 4 -43 21q-4 -18 -33 -19 q-12 0 -6 19q18 57 26 90q-14 2 -84 24q-8 8 -2 15q6 6 13 12q-2 14 10 14q23 2 22 2q0 18 -4 23q2 4 2 10t-14 15.5t-12 21.5q4 12 28 4q12 -4 70 -12q33 180 37 374q-23 -2 -61 -12q-23 -8 -27 2q-4 12 9 22.5t13 16.5q0 4 -4 10l4 9q-37 10 -36 28q2 4 2 8t-9.5 7.5 t-5.5 9.5q37 16 115 41q-6 186 -35 379q-63 -6 -119 -19q-12 2 -12 6t16.5 15.5t12.5 11.5q-14 4 -29.5 9t-17.5 20zM380 1450q10 125 0 215q53 2 54 -22v-9q-2 -6 -2 -8q0 -16 28 -16q4 49 11 53h36q25 2 25 -7t6 -15q29 -2 35 8q8 2 8 10q2 2 12 -4q2 -27 -2 -78 q-6 -57 -6 -74q0 -31 8 -45q-6 -4 -12 -4q-10 0 -25.5 9.5t-19.5 10.5t-10 25q-4 16 -19 15q-2 -2 -6 -39q-4 -25 -30 -23q0 6 -5 6q-4 0 -13 -5t-13 -5q-14 0 -17 33q-10 0 -14 -17.5t-29 -13.5zM737 1643q14 8 22 6q10 -4 21 -8q8 -12 17 -27.5t24 -13.5q4 6 4 37 q0 23 27 20q2 -8 32 -12q16 -2 25 -19q10 0 13 16.5t28 14.5q-12 -143 -4 -213q-51 -2 -51 10q0 4 3 9.5t3 7.5q0 8 -27 8q-2 -45 -22 -45q-27 0 -29 26q0 12 -6 13q-2 0 -14.5 -12.5t-18.5 -12.5q-4 0 -7 6t-16 0q-10 -2 -16 -8q-2 -4 -4 0q-2 18 4 113q4 66 -8 84z" />
<glyph unicode="&#xcc;" horiz-adv-x="368" d="M-29 1726q8 10 17 6q14 -6 16 -6q20 -20 39 -14q2 8 -5 24.5t-7 20.5q0 8 14 10q4 -12 22.5 -22.5t20.5 -12.5q35 61 47 60q53 -137 129 -266q6 -12 0 -23q-4 -12 -16 -12q2 0 -12 6q-8 2 -15 -8q4 0 -53 41q10 -76 0 -80q-20 -6 -33 -29l-16 23q-6 31 -148 282zM41 0 q57 274 57 623q0 84 -4 172q-14 360 -49 518q14 18 29 12q4 -8 15 -7t15 -3q29 -29 33 -27q2 10 15 25q8 -2 25.5 7t27.5 5q6 6 24 2q2 -4 2 -59h5q10 29 43 65q22 2 49 -14q-86 -186 -86 -645q0 -383 63 -613l21 -73q-31 -18 -50 -6q-23 31 -47 30q-12 0 -20 -8 q-12 -18 -39 -14q-2 0 -18 22q-10 -4 -23 -32q-8 -20 -31 -19q-10 2 -24.5 16.5t-28.5 12.5z" />
<glyph unicode="&#xcd;" horiz-adv-x="368" d="M41 0q57 274 57 623q0 84 -4 172q-14 360 -49 518q14 18 29 12q4 -8 15 -7t15 -3q29 -29 33 -27q2 10 15 25q8 -2 25.5 7t27.5 5q6 6 24 2q2 -4 2 -59h5q10 29 43 65q22 2 49 -14q-86 -186 -86 -645q0 -383 63 -613l21 -73q-31 -18 -50 -6q-23 31 -47 30q-12 0 -20 -8 q-12 -18 -39 -14q-2 0 -18 22q-10 -4 -23 -32q-8 -20 -31 -19q-10 2 -24.5 16.5t-28.5 12.5zM122 1519q66 102 130 269q12 2 47 -60q18 6 43 35q14 -2 14 -10q0 -4 -7 -21.5t-3 -25.5q18 -6 37 16q4 0 16 6q8 4 16 -6q-43 -76 -86 -151q-55 -98 -61 -133q-8 -10 -16 -23 q0 10 -31 31q-10 4 0 78q-8 4 -53 -41q-8 12 -20.5 6t-20.5 2q-12 16 -5 28z" />
<glyph unicode="&#xce;" horiz-adv-x="368" d="M-123 1440q-10 0 0 14q147 131 238 310l-29 28l-10 15q14 4 31 18q8 -6 24 -4q6 6 19 -2q8 4 14 10q-10 10 -6 17v12q6 2 29 -14q-4 10 4 26q10 4 18 -22q4 -6 10.5 -19.5t8.5 -19.5q6 6 8 6q6 0 12 -10q4 -4 19 6q4 -4 3 -11.5t11 -7.5q20 -6 14 -12q-12 -10 -37 -35 q72 -131 217 -309q4 -4 5 -6q0 -2 -2 -2t-7.5 2t-7.5 2h-2q0 -4 6 -10l-2 -2q-6 2 -18 -6q-6 6 -23 6q-10 -8 -20 8l-10 4q-4 -6 2 -16q4 -10 0 -17q0 -12 -2 -14q-2 0 -27 18q-2 2 -3 -10t-3 -12q-4 2 -6 6q-57 104 -166 283q-111 -133 -174 -295q-10 -2 -29 0q-6 2 -6 10 q-12 6 -12 39q-6 10 -7 10q-8 -12 -24 -12q-10 -2 -10 4t-1 12t-8 8q-10 6 -12 -3t-12 -7q-14 4 -17 4zM41 0q57 274 57 623q0 84 -4 172q-14 360 -49 518q14 18 29 12q4 -8 15 -7t15 -3q29 -29 33 -27q2 10 15 25q8 -2 25.5 7t27.5 5q6 6 24 2q2 -4 2 -59h5q10 29 43 65 q22 2 49 -14q-86 -186 -86 -645q0 -383 63 -613l21 -73q-31 -18 -50 -6q-23 31 -47 30q-12 0 -20 -8q-12 -18 -39 -14q-2 0 -18 22q-10 -4 -23 -32q-8 -20 -31 -19q-10 2 -24.5 16.5t-28.5 12.5z" />
<glyph unicode="&#xcf;" horiz-adv-x="368" d="M-66 1433q10 125 0 215q53 2 54 -22v-9q-2 -6 -2 -8q0 -16 28 -16q4 49 11 53h36q25 2 25 -7t6 -15q29 -2 35 8q8 2 8 10q2 2 12 -4q2 -27 -2 -78q-6 -57 -6 -74q0 -31 8 -45q-6 -4 -12 -4q-10 0 -25.5 9.5t-19.5 10.5t-10 25q-4 16 -19 15q-2 -2 -6 -39q-4 -25 -30 -23 q0 6 -5 6q-4 0 -13 -5t-13 -5q-14 0 -17 33q-10 0 -14 -17.5t-29 -13.5zM41 0q57 274 57 623q0 84 -4 172q-14 360 -49 518q14 18 29 12q4 -8 15 -7t15 -3q29 -29 33 -27q2 10 15 25q8 -2 25.5 7t27.5 5q6 6 24 2q2 -4 2 -59h5q10 29 43 65q22 2 49 -14q-86 -186 -86 -645 q0 -383 63 -613l21 -73q-31 -18 -50 -6q-23 31 -47 30q-12 0 -20 -8q-12 -18 -39 -14q-2 0 -18 22q-10 -4 -23 -32q-8 -20 -31 -19q-10 2 -24.5 16.5t-28.5 12.5zM291 1626q14 8 22 6q10 -4 21 -8q8 -12 17 -27.5t24 -13.5q4 6 4 37q0 23 27 20q2 -8 32 -12q16 -2 25 -19 q10 0 13 16.5t28 14.5q-12 -143 -4 -213q-51 -2 -51 10q0 4 3 9.5t3 7.5q0 8 -27 8q-2 -45 -22 -45q-27 0 -29 26q0 12 -6 13q-2 0 -14.5 -12.5t-18.5 -12.5q-4 0 -7 6t-16 0q-10 -2 -16 -8q-2 -4 -4 0q-2 18 4 113q4 66 -8 84z" />
<glyph unicode="&#xd1;" horiz-adv-x="1400" d="M43 1290q-6 6 8.5 13.5t22.5 5.5q39 0 63 -23q0 -14 13 -35l16 29q10 18 27 16q4 8 16 21q20 -2 55 -41q4 4 5 24.5t12 20.5q4 0 12 -4l10 -14q2 -2 14.5 3t24.5 5q16 -2 10 -17q-39 -68 -59 -233q18 10 18 16q-2 16 21 39q20 -18 28 -18q6 0 7 6q0 10 -9 26q-4 12 11 17 q16 4 22 -4q59 -303 258 -527q193 -215 449 -290q10 143 10 299q0 381 -59 702q59 8 63 -17.5t21 -25.5q14 0 20 12q14 25 21 25q8 2 10 -23.5t26 -29.5q2 18 4.5 34.5t30.5 12.5q12 29 31 20q4 -4 9 -21.5t18 -13.5q25 29 51 29q6 0 6 -6q-74 -283 -74 -793q0 -373 60 -544 q0 -2 -7.5 -7.5t-5.5 -11.5q6 -8 2 -14t-10 -4q-55 -6 -63 22v25q-2 14 -13 10q-18 -8 -23 -24.5t-9 -16.5t-19 8q-16 -4 -19 -17t-5 -15q-14 2 -23 14q-14 20 -18 25q-2 -4 0 -27q2 -18 -11 -19q-6 0 -16 5l-10 16q-2 4 -15.5 -2t-25.5 -4q-14 0 -8 14l4 10q14 66 24 140 q-272 117 -483 327q-201 203 -313 457q-2 -68 -3 -141q0 -457 78 -715q10 -37 6 -51q-6 -10 -14 -23q-6 -8 -35 4q-14 20 -16 21q-4 0 -9 -7.5t-11.5 -15.5t-18.5 -4q-4 4 -20 37q-14 23 -21 23q-4 0 -6 -13q-4 -23 -31.5 -34t-34 -25t-10.5 -14q-6 0 -13 12t-9 14 q-6 -4 -17 -4q-35 0 -26 33q37 252 36 569q0 422 -61 727zM405 1506q70 37 218 127q12 8 22 -11q4 -8 -2 -16q-4 -8 0 -14v-6q16 0 18.5 -11.5t10.5 -27.5q47 -25 114 -51q86 33 164 92q10 6 13 4q4 -10 4 -17q0 -6 -4.5 -13t-4.5 -9q0 -4 2.5 -6t4.5 -4l4 -4q14 0 14 -7 q2 -16 16.5 -27.5t14.5 -13.5q-2 -4 -8 -10q-70 -35 -228 -127q-12 12 -12 37q-49 31 -96 47.5t-95 32.5q-59 -33 -122 -78q-4 8 -5 31q16 16 17 18l-16 1q-15 1 -15 16q4 8 17 24q-2 2 -25 9.5t-21 13.5z" />
<glyph unicode="&#xd2;" horiz-adv-x="1458" d="M37 201q0 2 9 6t9 18q0 12 -6 31q2 10 14.5 10t16.5 2q-25 25 -23 33q2 2 17 2q4 2 8 2t12 -4t15 -4q4 0 8 2q-6 10 -6 16t8 4h6q27 -31 47 -45q-47 203 -47 416q0 215 49 381q-31 -6 -61 -16q-23 -8 -27 2q-4 14 10.5 23.5t14.5 15.5q0 4 -2 10q2 10 4 22q-12 0 -24.5 1 t-10.5 14q18 14 18 20q0 4 -19.5 11.5t-17.5 23.5q90 37 205 64q49 68 98 98q6 -8 11 -8q2 0 13 12t26 8q6 -2 2 -18.5t18 -22.5q27 23 35 19v-15q4 -8 -2 -21.5t-6 -17.5q131 16 272 17q143 0 291 -17v2q8 0 -4 16.5t-12 18.5q0 12 12 13q18 0 24 -17q35 -12 39 0 q-12 18 -2 39q4 10 11 10q4 0 16 -9t18 -9q10 0 21 14q4 4 12 0l14 -10q37 -49 64 -102q96 -20 180 -50q4 -14 -4 -18q-16 -6 -18 -10q2 0 -25 2q-16 2 -20 -10q6 -8 32 -21q20 -12 21 -25q0 -6 -4 -14q-18 4 -39 0q-23 -4 -23 -12q0 -10 21 -23q4 -10 12 -32q0 -4 -11 -6.5 t-11 -4.5q4 -31 6 -30q-4 0 -8.5 3t-10.5 6t-10 3q37 -162 37 -338q0 -182 -39 -350q8 0 20 8q16 0 17 -10q0 -4 -17 -29q-4 -14 23 -18q6 4 12 4q4 0 13.5 -7.5t15.5 -9.5q16 -4 16 -10q0 -4 -6 -10t-6 -12t7 -11.5t3 -15.5q-6 -6 -10 -14q-68 -68 -178 -121 q-47 -90 -103 -152q-8 2 -15 -8t-13 -10t-13.5 17.5t-23.5 15.5q-6 -10 -11 -20.5t-18 -8.5q-4 2 -4 14q-18 10 -18 23q0 6 3 14t3 12t-2 7q-20 -4 -35 -3q-14 6 -10 19q-123 -25 -254 -25q-119 0 -234 21l6 -6q-4 -12 -20 -6q-14 4 -16 0q-6 -20 -2 -31q-6 -14 -13 -15 q4 0 -26 25q-18 14 -25 6q10 -20 -4 -41q-6 -10 -12 -10q-2 0 -11.5 11.5t-19.5 11.5q-8 0 -21 -7q-8 -4 -26 15q-33 63 -53 112q-135 57 -195 129q-8 10 -8 15zM305 662q0 -272 68 -469q162 -41 348 -41q217 0 375 57q82 225 82 502q-1 223 -60 379q-182 43 -411 43 q-172 0 -340 -25q-61 -182 -62 -446zM577 1706q8 10 17 6q14 -6 16 -6q20 -20 39 -14q2 8 -5 24.5t-7 20.5q0 8 14 10q4 -12 22.5 -22.5t20.5 -12.5q35 61 47 60q53 -137 129 -266q6 -12 0 -23q-4 -12 -16 -12q2 0 -12 6q-8 2 -15 -8q4 0 -53 41q10 -76 0 -80 q-20 -6 -33 -29l-16 23q-6 31 -148 282z" />
<glyph unicode="&#xd3;" horiz-adv-x="1458" d="M37 201q0 2 9 6t9 18q0 12 -6 31q2 10 14.5 10t16.5 2q-25 25 -23 33q2 2 17 2q4 2 8 2t12 -4t15 -4q4 0 8 2q-6 10 -6 16t8 4h6q27 -31 47 -45q-47 203 -47 416q0 215 49 381q-31 -6 -61 -16q-23 -8 -27 2q-4 14 10.5 23.5t14.5 15.5q0 4 -2 10q2 10 4 22q-12 0 -24.5 1 t-10.5 14q18 14 18 20q0 4 -19.5 11.5t-17.5 23.5q90 37 205 64q49 68 98 98q6 -8 11 -8q2 0 13 12t26 8q6 -2 2 -18.5t18 -22.5q27 23 35 19v-15q4 -8 -2 -21.5t-6 -17.5q131 16 272 17q143 0 291 -17v2q8 0 -4 16.5t-12 18.5q0 12 12 13q18 0 24 -17q35 -12 39 0 q-12 18 -2 39q4 10 11 10q4 0 16 -9t18 -9q10 0 21 14q4 4 12 0l14 -10q37 -49 64 -102q96 -20 180 -50q4 -14 -4 -18q-16 -6 -18 -10q2 0 -25 2q-16 2 -20 -10q6 -8 32 -21q20 -12 21 -25q0 -6 -4 -14q-18 4 -39 0q-23 -4 -23 -12q0 -10 21 -23q4 -10 12 -32q0 -4 -11 -6.5 t-11 -4.5q4 -31 6 -30q-4 0 -8.5 3t-10.5 6t-10 3q37 -162 37 -338q0 -182 -39 -350q8 0 20 8q16 0 17 -10q0 -4 -17 -29q-4 -14 23 -18q6 4 12 4q4 0 13.5 -7.5t15.5 -9.5q16 -4 16 -10q0 -4 -6 -10t-6 -12t7 -11.5t3 -15.5q-6 -6 -10 -14q-68 -68 -178 -121 q-47 -90 -103 -152q-8 2 -15 -8t-13 -10t-13.5 17.5t-23.5 15.5q-6 -10 -11 -20.5t-18 -8.5q-4 2 -4 14q-18 10 -18 23q0 6 3 14t3 12t-2 7q-20 -4 -35 -3q-14 6 -10 19q-123 -25 -254 -25q-119 0 -234 21l6 -6q-4 -12 -20 -6q-14 4 -16 0q-6 -20 -2 -31q-6 -14 -13 -15 q4 0 -26 25q-18 14 -25 6q10 -20 -4 -41q-6 -10 -12 -10q-2 0 -11.5 11.5t-19.5 11.5q-8 0 -21 -7q-8 -4 -26 15q-33 63 -53 112q-135 57 -195 129q-8 10 -8 15zM305 662q0 -272 68 -469q162 -41 348 -41q217 0 375 57q82 225 82 502q-1 223 -60 379q-182 43 -411 43 q-172 0 -340 -25q-61 -182 -62 -446zM684 1507q66 102 130 269q12 2 47 -60q18 6 43 35q14 -2 14 -10q0 -4 -7 -21.5t-3 -25.5q18 -6 37 16q4 0 16 6q8 4 16 -6q-43 -76 -86 -151q-55 -98 -61 -133q-8 -10 -16 -23q0 10 -31 31q-10 4 0 78q-8 4 -53 -41q-8 12 -20.5 6 t-20.5 2q-12 16 -5 28z" />
<glyph unicode="&#xd4;" horiz-adv-x="1458" d="M37 201q0 2 9 6t9 18q0 12 -6 31q2 10 14.5 10t16.5 2q-25 25 -23 33q2 2 17 2q4 2 8 2t12 -4t15 -4q4 0 8 2q-6 10 -6 16t8 4h6q27 -31 47 -45q-47 203 -47 416q0 215 49 381q-31 -6 -61 -16q-23 -8 -27 2q-4 14 10.5 23.5t14.5 15.5q0 4 -2 10q2 10 4 22q-12 0 -24.5 1 t-10.5 14q18 14 18 20q0 4 -19.5 11.5t-17.5 23.5q90 37 205 64q49 68 98 98q6 -8 11 -8q2 0 13 12t26 8q6 -2 2 -18.5t18 -22.5q27 23 35 19v-15q4 -8 -2 -21.5t-6 -17.5q131 16 272 17q143 0 291 -17v2q8 0 -4 16.5t-12 18.5q0 12 12 13q18 0 24 -17q35 -12 39 0 q-12 18 -2 39q4 10 11 10q4 0 16 -9t18 -9q10 0 21 14q4 4 12 0l14 -10q37 -49 64 -102q96 -20 180 -50q4 -14 -4 -18q-16 -6 -18 -10q2 0 -25 2q-16 2 -20 -10q6 -8 32 -21q20 -12 21 -25q0 -6 -4 -14q-18 4 -39 0q-23 -4 -23 -12q0 -10 21 -23q4 -10 12 -32q0 -4 -11 -6.5 t-11 -4.5q4 -31 6 -30q-4 0 -8.5 3t-10.5 6t-10 3q37 -162 37 -338q0 -182 -39 -350q8 0 20 8q16 0 17 -10q0 -4 -17 -29q-4 -14 23 -18q6 4 12 4q4 0 13.5 -7.5t15.5 -9.5q16 -4 16 -10q0 -4 -6 -10t-6 -12t7 -11.5t3 -15.5q-6 -6 -10 -14q-68 -68 -178 -121 q-47 -90 -103 -152q-8 2 -15 -8t-13 -10t-13.5 17.5t-23.5 15.5q-6 -10 -11 -20.5t-18 -8.5q-4 2 -4 14q-18 10 -18 23q0 6 3 14t3 12t-2 7q-20 -4 -35 -3q-14 6 -10 19q-123 -25 -254 -25q-119 0 -234 21l6 -6q-4 -12 -20 -6q-14 4 -16 0q-6 -20 -2 -31q-6 -14 -13 -15 q4 0 -26 25q-18 14 -25 6q10 -20 -4 -41q-6 -10 -12 -10q-2 0 -11.5 11.5t-19.5 11.5q-8 0 -21 -7q-8 -4 -26 15q-33 63 -53 112q-135 57 -195 129q-8 10 -8 15zM305 662q0 -272 68 -469q162 -41 348 -41q217 0 375 57q82 225 82 502q-1 223 -60 379q-182 43 -411 43 q-172 0 -340 -25q-61 -182 -62 -446zM454 1501q-10 0 0 14q147 131 238 310l-29 28l-10 15q14 4 31 18q8 -6 24 -4q6 6 19 -2q8 4 14 10q-10 10 -6 17v12q6 2 29 -14q-4 10 4 26q10 4 18 -22q4 -6 10.5 -19.5t8.5 -19.5q6 6 8 6q6 0 12 -10q4 -4 19 6q4 -4 3 -11.5t11 -7.5 q20 -6 14 -12q-12 -10 -37 -35q72 -131 217 -309q4 -4 5 -6q0 -2 -2 -2t-7.5 2t-7.5 2h-2q0 -4 6 -10l-2 -2q-6 2 -18 -6q-6 6 -23 6q-10 -8 -20 8l-10 4q-4 -6 2 -16q4 -10 0 -17q0 -12 -2 -14q-2 0 -27 18q-2 2 -3 -10t-3 -12q-4 2 -6 6q-57 104 -166 283 q-111 -133 -174 -295q-10 -2 -29 0q-6 2 -6 10q-12 6 -12 39q-6 10 -7 10q-8 -12 -24 -12q-10 -2 -10 4t-1 12t-8 8q-10 6 -12 -3t-12 -7q-14 4 -17 4z" />
<glyph unicode="&#xd5;" horiz-adv-x="1458" d="M37 201q0 2 9 6t9 18q0 12 -6 31q2 10 14.5 10t16.5 2q-25 25 -23 33q2 2 17 2q4 2 8 2t12 -4t15 -4q4 0 8 2q-6 10 -6 16t8 4h6q27 -31 47 -45q-47 203 -47 416q0 215 49 381q-31 -6 -61 -16q-23 -8 -27 2q-4 14 10.5 23.5t14.5 15.5q0 4 -2 10q2 10 4 22q-12 0 -24.5 1 t-10.5 14q18 14 18 20q0 4 -19.5 11.5t-17.5 23.5q90 37 205 64q49 68 98 98q6 -8 11 -8q2 0 13 12t26 8q6 -2 2 -18.5t18 -22.5q27 23 35 19v-15q4 -8 -2 -21.5t-6 -17.5q131 16 272 17q143 0 291 -17v2q8 0 -4 16.5t-12 18.5q0 12 12 13q18 0 24 -17q35 -12 39 0 q-12 18 -2 39q4 10 11 10q4 0 16 -9t18 -9q10 0 21 14q4 4 12 0l14 -10q37 -49 64 -102q96 -20 180 -50q4 -14 -4 -18q-16 -6 -18 -10q2 0 -25 2q-16 2 -20 -10q6 -8 32 -21q20 -12 21 -25q0 -6 -4 -14q-18 4 -39 0q-23 -4 -23 -12q0 -10 21 -23q4 -10 12 -32q0 -4 -11 -6.5 t-11 -4.5q4 -31 6 -30q-4 0 -8.5 3t-10.5 6t-10 3q37 -162 37 -338q0 -182 -39 -350q8 0 20 8q16 0 17 -10q0 -4 -17 -29q-4 -14 23 -18q6 4 12 4q4 0 13.5 -7.5t15.5 -9.5q16 -4 16 -10q0 -4 -6 -10t-6 -12t7 -11.5t3 -15.5q-6 -6 -10 -14q-68 -68 -178 -121 q-47 -90 -103 -152q-8 2 -15 -8t-13 -10t-13.5 17.5t-23.5 15.5q-6 -10 -11 -20.5t-18 -8.5q-4 2 -4 14q-18 10 -18 23q0 6 3 14t3 12t-2 7q-20 -4 -35 -3q-14 6 -10 19q-123 -25 -254 -25q-119 0 -234 21l6 -6q-4 -12 -20 -6q-14 4 -16 0q-6 -20 -2 -31q-6 -14 -13 -15 q4 0 -26 25q-18 14 -25 6q10 -20 -4 -41q-6 -10 -12 -10q-2 0 -11.5 11.5t-19.5 11.5q-8 0 -21 -7q-8 -4 -26 15q-33 63 -53 112q-135 57 -195 129q-8 10 -8 15zM305 662q0 -272 68 -469q162 -41 348 -41q217 0 375 57q82 225 82 502q-1 223 -60 379q-182 43 -411 43 q-172 0 -340 -25q-61 -182 -62 -446zM438 1587q70 37 218 127q12 8 22 -11q4 -8 -2 -16q-4 -8 0 -14v-6q16 0 18.5 -11.5t10.5 -27.5q47 -25 114 -51q86 33 164 92q10 6 13 4q4 -10 4 -17q0 -6 -4.5 -13t-4.5 -9q0 -4 2.5 -6t4.5 -4l4 -4q14 0 14 -7q2 -16 16.5 -27.5 t14.5 -13.5q-2 -4 -8 -10q-70 -35 -228 -127q-12 12 -12 37q-49 31 -96 47.5t-95 32.5q-59 -33 -122 -78q-4 8 -5 31q16 16 17 18l-16 1q-15 1 -15 16q4 8 17 24q-2 2 -25 9.5t-21 13.5z" />
<glyph unicode="&#xd6;" horiz-adv-x="1458" d="M37 201q0 2 9 6t9 18q0 12 -6 31q2 10 14.5 10t16.5 2q-25 25 -23 33q2 2 17 2q4 2 8 2t12 -4t15 -4q4 0 8 2q-6 10 -6 16t8 4h6q27 -31 47 -45q-47 203 -47 416q0 215 49 381q-31 -6 -61 -16q-23 -8 -27 2q-4 14 10.5 23.5t14.5 15.5q0 4 -2 10q2 10 4 22q-12 0 -24.5 1 t-10.5 14q18 14 18 20q0 4 -19.5 11.5t-17.5 23.5q90 37 205 64q49 68 98 98q6 -8 11 -8q2 0 13 12t26 8q6 -2 2 -18.5t18 -22.5q27 23 35 19v-15q4 -8 -2 -21.5t-6 -17.5q131 16 272 17q143 0 291 -17v2q8 0 -4 16.5t-12 18.5q0 12 12 13q18 0 24 -17q35 -12 39 0 q-12 18 -2 39q4 10 11 10q4 0 16 -9t18 -9q10 0 21 14q4 4 12 0l14 -10q37 -49 64 -102q96 -20 180 -50q4 -14 -4 -18q-16 -6 -18 -10q2 0 -25 2q-16 2 -20 -10q6 -8 32 -21q20 -12 21 -25q0 -6 -4 -14q-18 4 -39 0q-23 -4 -23 -12q0 -10 21 -23q4 -10 12 -32q0 -4 -11 -6.5 t-11 -4.5q4 -31 6 -30q-4 0 -8.5 3t-10.5 6t-10 3q37 -162 37 -338q0 -182 -39 -350q8 0 20 8q16 0 17 -10q0 -4 -17 -29q-4 -14 23 -18q6 4 12 4q4 0 13.5 -7.5t15.5 -9.5q16 -4 16 -10q0 -4 -6 -10t-6 -12t7 -11.5t3 -15.5q-6 -6 -10 -14q-68 -68 -178 -121 q-47 -90 -103 -152q-8 2 -15 -8t-13 -10t-13.5 17.5t-23.5 15.5q-6 -10 -11 -20.5t-18 -8.5q-4 2 -4 14q-18 10 -18 23q0 6 3 14t3 12t-2 7q-20 -4 -35 -3q-14 6 -10 19q-123 -25 -254 -25q-119 0 -234 21l6 -6q-4 -12 -20 -6q-14 4 -16 0q-6 -20 -2 -31q-6 -14 -13 -15 q4 0 -26 25q-18 14 -25 6q10 -20 -4 -41q-6 -10 -12 -10q-2 0 -11.5 11.5t-19.5 11.5q-8 0 -21 -7q-8 -4 -26 15q-33 63 -53 112q-135 57 -195 129q-8 10 -8 15zM305 662q0 -272 68 -469q162 -41 348 -41q217 0 375 57q82 225 82 502q-1 223 -60 379q-182 43 -411 43 q-172 0 -340 -25q-61 -182 -62 -446zM458 1470q10 125 0 215q53 2 54 -22v-9q-2 -6 -2 -8q0 -16 28 -16q4 49 11 53h36q25 2 25 -7t6 -15q29 -2 35 8q8 2 8 10q2 2 12 -4q2 -27 -2 -78q-6 -57 -6 -74q0 -31 8 -45q-6 -4 -12 -4q-10 0 -25.5 9.5t-19.5 10.5t-10 25 q-4 16 -19 15q-2 -2 -6 -39q-4 -25 -30 -23q0 6 -5 6q-4 0 -13 -5t-13 -5q-14 0 -17 33q-10 0 -14 -17.5t-29 -13.5zM815 1663q14 8 22 6q10 -4 21 -8q8 -12 17 -27.5t24 -13.5q4 6 4 37q0 23 27 20q2 -8 32 -12q16 -2 25 -19q10 0 13 16.5t28 14.5q-12 -143 -4 -213 q-51 -2 -51 10q0 4 3 9.5t3 7.5q0 8 -27 8q-2 -45 -22 -45q-27 0 -29 26q0 12 -6 13q-2 0 -14.5 -12.5t-18.5 -12.5q-4 0 -7 6t-16 0q-10 -2 -16 -8q-2 -4 -4 0q-2 18 4 113q4 66 -8 84z" />
<glyph unicode="&#xd8;" horiz-adv-x="1517" d="M41 201q0 2 9 6t9 18q0 12 -6 31q2 10 14.5 10t16.5 2q-25 25 -23 33q2 2 17 2q4 2 8 2t12 -4t15 -4q4 0 8 2q-6 10 -6 16t8 4h6q27 -31 47 -43q-47 203 -47 414q0 215 49 381q-20 -4 -61 -16q-23 -8 -27 2q-4 14 10.5 23.5t14.5 15.5q0 4 -2 10q2 10 4 22q-12 0 -24.5 1 t-10.5 14q18 14 18 20q0 4 -19.5 11.5t-17.5 23.5q291 115 699 115q223 0 432 -35q84 121 115 170q4 2 18 -7l14 -9q6 -6 0 -21q-8 -20 -8 -25l21 18q20 19 28 19q4 0 7 -2q0 -2 -3.5 -17t-14.5 -30.5t-11 -27.5q2 -4 10 4q20 16 25 2q0 -4 4 -4t16 13t15 9q-4 -10 8 -14 t8 -8q-37 -41 -88 -103q8 -2 112 -33q4 -14 -4 -18q-14 -6 -16 -10q2 0 -27 2q-14 2 -18 -10q6 -8 29.5 -20.5t23.5 -25.5q0 -6 -4 -14q-18 4 -39 0q-25 -4 -24 -14q0 -8 20 -21q8 -12 14 -32q0 -2 -12 -4.5t-10 -6.5q0 -6 6 -20q2 -10 0 -10q-4 0 -9 3t-11.5 6t-10.5 3 q39 -160 39 -338q0 -180 -39 -350q8 0 19 8q16 0 16 -10q0 -4 -16 -29q-4 -14 24 -18q6 4 11 4q6 0 14 -7.5t14 -9.5q16 -4 17 -10q0 -4 -6.5 -11t-6.5 -11q1 -7 9 -13q4 -4 -7 -28q-231 -225 -716 -226q-184 0 -347 39q-74 -106 -124 -184q-4 -4 -22.5 16.5t-25 18.5 t-6.5 4q0 2 2 12q2 8 0 14q6 10 11.5 23.5t1.5 22.5q-6 -2 -23.5 -24t-26.5 -22q-4 0 -8 5q4 16 0 22q-6 8 -6 16q-31 -14 -33 -10q-4 4 -7 8.5t-7 6.5q39 33 117 120q-135 55 -197 127q-8 10 -8 15zM309 664q0 -260 64 -457q338 403 698 901q-156 25 -340 25t-360 -25 q-61 -182 -62 -444zM365 197l12 -2l-4 12zM516 168q115 -16 236 -16q233 0 401 61q80 227 80 500q0 186 -43 327q-373 -465 -674 -872z" />
<glyph unicode="&#xd9;" horiz-adv-x="1380" d="M33 225q39 2 39 11q0 2 -16.5 16t-14.5 22q4 10 21.5 10.5t21.5 2.5q-31 39 -27 49q2 2 17 2q8 4 21.5 -4t21.5 -4q-8 25 24 28q12 137 13 277q0 295 -52 610l-10 29q-4 12 6 20q6 6 31 0q12 -20 16 -20q4 2 8.5 10t9.5 17.5t17 5.5q4 -6 20.5 -43t20.5 -37t4 22 q-2 68 25 68q10 0 19.5 -19.5t17.5 -19.5q10 0 25.5 23.5t19.5 21.5q66 0 55 -33q-70 -430 -70 -782q0 -172 17 -340q141 -84 321 -84q274 0 443 178q12 242 12 402q0 463 -100 663q10 -4 28.5 11.5t26.5 15.5q14 2 22 -13q20 2 28.5 -12t17.5 -29q18 -18 22 -14 q-2 16 13.5 34.5t29.5 18.5q8 0 18.5 -18t24.5 -16q18 6 10 20q2 18 21 23q29 6 33 8q6 4 16 -11.5t10 -27.5q-59 -365 -59 -731q0 -141 8 -324q6 -139 25 -194q5 -25 34 -60q8 -14 9 -20q0 -20 -56 8q14 -20 15 -33q0 -10 -17.5 -16t-13.5 -17q-8 -6 -16 -6 q-10 0 -25.5 20.5t-24.5 24.5q-12 -4 -8 -20q6 -27 6 -25q-4 -4 -6 -16t-18 -10l-41 18q-18 20 -51 111q-182 -125 -443 -125q-213 0 -383 84q-180 90 -233 239zM524 1653q8 10 17 6q14 -6 16 -6q20 -20 39 -14q2 8 -5 24.5t-7 20.5q0 8 14 10q4 -12 22.5 -22.5t20.5 -12.5 q35 61 47 60q53 -137 129 -266q6 -12 0 -23q-4 -12 -16 -12q2 0 -12 6q-8 2 -15 -8q4 0 -53 41q10 -76 0 -80q-20 -6 -33 -29l-16 23q-6 31 -148 282z" />
<glyph unicode="&#xda;" horiz-adv-x="1380" d="M33 225q39 2 39 11q0 2 -16.5 16t-14.5 22q4 10 21.5 10.5t21.5 2.5q-31 39 -27 49q2 2 17 2q8 4 21.5 -4t21.5 -4q-8 25 24 28q12 137 13 277q0 295 -52 610l-10 29q-4 12 6 20q6 6 31 0q12 -20 16 -20q4 2 8.5 10t9.5 17.5t17 5.5q4 -6 20.5 -43t20.5 -37t4 22 q-2 68 25 68q10 0 19.5 -19.5t17.5 -19.5q10 0 25.5 23.5t19.5 21.5q66 0 55 -33q-70 -430 -70 -782q0 -172 17 -340q141 -84 321 -84q274 0 443 178q12 242 12 402q0 463 -100 663q10 -4 28.5 11.5t26.5 15.5q14 2 22 -13q20 2 28.5 -12t17.5 -29q18 -18 22 -14 q-2 16 13.5 34.5t29.5 18.5q8 0 18.5 -18t24.5 -16q18 6 10 20q2 18 21 23q29 6 33 8q6 4 16 -11.5t10 -27.5q-59 -365 -59 -731q0 -141 8 -324q6 -139 25 -194q5 -25 34 -60q8 -14 9 -20q0 -20 -56 8q14 -20 15 -33q0 -10 -17.5 -16t-13.5 -17q-8 -6 -16 -6 q-10 0 -25.5 20.5t-24.5 24.5q-12 -4 -8 -20q6 -27 6 -25q-4 -4 -6 -16t-18 -10l-41 18q-18 20 -51 111q-182 -125 -443 -125q-213 0 -383 84q-180 90 -233 239zM606 1458q66 102 130 269q12 2 47 -60q18 6 43 35q14 -2 14 -10q0 -4 -7 -21.5t-3 -25.5q18 -6 37 16q4 0 16 6 q8 4 16 -6q-43 -76 -86 -151q-55 -98 -61 -133q-8 -10 -16 -23q0 10 -31 31q-10 4 0 78q-8 4 -53 -41q-8 12 -20.5 6t-20.5 2q-12 16 -5 28z" />
<glyph unicode="&#xdb;" horiz-adv-x="1380" d="M33 225q39 2 39 11q0 2 -16.5 16t-14.5 22q4 10 21.5 10.5t21.5 2.5q-31 39 -27 49q2 2 17 2q8 4 21.5 -4t21.5 -4q-8 25 24 28q12 137 13 277q0 295 -52 610l-10 29q-4 12 6 20q6 6 31 0q12 -20 16 -20q4 2 8.5 10t9.5 17.5t17 5.5q4 -6 20.5 -43t20.5 -37t4 22 q-2 68 25 68q10 0 19.5 -19.5t17.5 -19.5q10 0 25.5 23.5t19.5 21.5q66 0 55 -33q-70 -430 -70 -782q0 -172 17 -340q141 -84 321 -84q274 0 443 178q12 242 12 402q0 463 -100 663q10 -4 28.5 11.5t26.5 15.5q14 2 22 -13q20 2 28.5 -12t17.5 -29q18 -18 22 -14 q-2 16 13.5 34.5t29.5 18.5q8 0 18.5 -18t24.5 -16q18 6 10 20q2 18 21 23q29 6 33 8q6 4 16 -11.5t10 -27.5q-59 -365 -59 -731q0 -141 8 -324q6 -139 25 -194q5 -25 34 -60q8 -14 9 -20q0 -20 -56 8q14 -20 15 -33q0 -10 -17.5 -16t-13.5 -17q-8 -6 -16 -6 q-10 0 -25.5 20.5t-24.5 24.5q-12 -4 -8 -20q6 -27 6 -25q-4 -4 -6 -16t-18 -10l-41 18q-18 20 -51 111q-182 -125 -443 -125q-213 0 -383 84q-180 90 -233 239zM397 1448q-10 0 0 14q147 131 238 310l-29 28l-10 15q14 4 31 18q8 -6 24 -4q6 6 19 -2q8 4 14 10 q-10 10 -6 17v12q6 2 29 -14q-4 10 4 26q10 4 18 -22q4 -6 10.5 -19.5t8.5 -19.5q6 6 8 6q6 0 12 -10q4 -4 19 6q4 -4 3 -11.5t11 -7.5q20 -6 14 -12q-12 -10 -37 -35q72 -131 217 -309q4 -4 5 -6q0 -2 -2 -2t-7.5 2t-7.5 2h-2q0 -4 6 -10l-2 -2q-6 2 -18 -6q-6 6 -23 6 q-10 -8 -20 8l-10 4q-4 -6 2 -16q4 -10 0 -17q0 -12 -2 -14q-2 0 -27 18q-2 2 -3 -10t-3 -12q-4 2 -6 6q-57 104 -166 283q-111 -133 -174 -295q-10 -2 -29 0q-6 2 -6 10q-12 6 -12 39q-6 10 -7 10q-8 -12 -24 -12q-10 -2 -10 4t-1 12t-8 8q-10 6 -12 -3t-12 -7q-14 4 -17 4 z" />
<glyph unicode="&#xdc;" horiz-adv-x="1380" d="M33 225q39 2 39 11q0 2 -16.5 16t-14.5 22q4 10 21.5 10.5t21.5 2.5q-31 39 -27 49q2 2 17 2q8 4 21.5 -4t21.5 -4q-8 25 24 28q12 137 13 277q0 295 -52 610l-10 29q-4 12 6 20q6 6 31 0q12 -20 16 -20q4 2 8.5 10t9.5 17.5t17 5.5q4 -6 20.5 -43t20.5 -37t4 22 q-2 68 25 68q10 0 19.5 -19.5t17.5 -19.5q10 0 25.5 23.5t19.5 21.5q66 0 55 -33q-70 -430 -70 -782q0 -172 17 -340q141 -84 321 -84q274 0 443 178q12 242 12 402q0 463 -100 663q10 -4 28.5 11.5t26.5 15.5q14 2 22 -13q20 2 28.5 -12t17.5 -29q18 -18 22 -14 q-2 16 13.5 34.5t29.5 18.5q8 0 18.5 -18t24.5 -16q18 6 10 20q2 18 21 23q29 6 33 8q6 4 16 -11.5t10 -27.5q-59 -365 -59 -731q0 -141 8 -324q6 -139 25 -194q5 -25 34 -60q8 -14 9 -20q0 -20 -56 8q14 -20 15 -33q0 -10 -17.5 -16t-13.5 -17q-8 -6 -16 -6 q-10 0 -25.5 20.5t-24.5 24.5q-12 -4 -8 -20q6 -27 6 -25q-4 -4 -6 -16t-18 -10l-41 18q-18 20 -51 111q-182 -125 -443 -125q-213 0 -383 84q-180 90 -233 239zM397 1397q10 125 0 215q53 2 54 -22v-9q-2 -6 -2 -8q0 -16 28 -16q4 49 11 53h36q25 2 25 -7t6 -15q29 -2 35 8 q8 2 8 10q2 2 12 -4q2 -27 -2 -78q-6 -57 -6 -74q0 -31 8 -45q-6 -4 -12 -4q-10 0 -25.5 9.5t-19.5 10.5t-10 25q-4 16 -19 15q-2 -2 -6 -39q-4 -25 -30 -23q0 6 -5 6q-4 0 -13 -5t-13 -5q-14 0 -17 33q-10 0 -14 -17.5t-29 -13.5zM754 1590q14 8 22 6q10 -4 21 -8 q8 -12 17 -27.5t24 -13.5q4 6 4 37q0 23 27 20q2 -8 32 -12q16 -2 25 -19q10 0 13 16.5t28 14.5q-12 -143 -4 -213q-51 -2 -51 10q0 4 3 9.5t3 7.5q0 8 -27 8q-2 -45 -22 -45q-27 0 -29 26q0 12 -6 13q-2 0 -14.5 -12.5t-18.5 -12.5q-4 0 -7 6t-16 0q-10 -2 -16 -8 q-2 -4 -4 0q-2 18 4 113q4 66 -8 84z" />
<glyph unicode="&#xdf;" d="M72 821q0 127 89 215t214 88q127 0 216 -89t89 -214t-89 -214t-216 -89q-125 0 -214 89t-89 214zM162 821q0 -88 62.5 -150.5t150.5 -62.5t150.5 62.5t62.5 150.5q0 90 -61.5 151.5t-151.5 61.5q-88 0 -150.5 -62.5t-62.5 -150.5z" />
<glyph unicode="&#xe0;" horiz-adv-x="1378" d="M14 -25q74 94 195 312q-68 6 -109 14q-4 14 13.5 21.5t19.5 11.5h27q14 0 16 14q-4 4 -33 19q-23 8 -22 22q0 6 2 12q16 -2 23.5 17.5t15.5 21.5q-25 39 -17 49q88 -27 150 -40q143 279 274 591q-72 197 -112 324q6 10 28.5 10t31.5 3t9 9q0 4 -2 9.5t-2 7.5q0 4 8 6 q8 4 25.5 -3t19.5 -7q6 0 9 4q-4 10 8 21.5t22 11.5q4 0 4 -2q20 -88 44 -162q16 47 47 133q8 14 16 16q14 -2 14 -20.5t4 -22.5q8 12 18.5 24.5t24.5 8.5q4 -2 5 -22q4 -6 4 -11q0 -6 -5.5 -15t-5.5 -15q0 -4 4 -11q6 -2 17 2q25 29 26 29q2 0 6.5 -2t8.5 -2t11 6t15 6 q14 -14 -2 -43q-41 -113 -129 -305q123 -326 279 -598q47 12 104 25q25 8 29 -2q2 -14 -17.5 -21.5t-13.5 -21.5l12 -2q11 -2 9 -5q20 -8 14 -36q-8 -8 -8 -15q0 -6 11 -16t7 -14q-37 -14 -67 -23q147 -227 258 -295q4 -4 4 -8q0 -12 -19 -12q-18 0 -32.5 17t-24.5 1 q8 -10 0 -25l-8 -4q-6 0 -15.5 12.5t-21.5 10.5q-2 2 -4 10t-4 8q-4 0 -6 -2q-4 -23 -8 -30q-8 -16 -29 -23q6 -18 -4 -37q-8 0 -19.5 8.5t-17.5 8.5q-8 0 -16 -7q-94 88 -226 334q-217 -20 -491 0q-59 -160 -90 -297q-39 6 -97 2q-6 -4 -8 -4q-6 0 -10 11.5t-10 15.5 q0 -2 4 26q2 16 -12 21q-4 -2 -27 -43q-16 -31 -39 -27q-2 16 -14 19q-18 2 -23 10q-29 -35 -43 -29q-6 8 -18.5 3t-14.5 1zM473 418q183 -24 365 -12q-90 188 -187 425q-61 -135 -178 -413zM487 1800q8 10 17 6q14 -6 16 -6q20 -20 39 -14q2 8 -5 24.5t-7 20.5q0 8 14 10 q4 -12 22.5 -22.5t20.5 -12.5q35 61 47 60q53 -137 129 -266q6 -12 0 -23q-4 -12 -16 -12q2 0 -12 6q-8 2 -15 -8q4 0 -53 41q10 -76 0 -80q-20 -6 -33 -29l-16 23q-6 31 -148 282z" />
<glyph unicode="&#xe1;" horiz-adv-x="1378" d="M14 -25q74 94 195 312q-68 6 -109 14q-4 14 13.5 21.5t19.5 11.5h27q14 0 16 14q-4 4 -33 19q-23 8 -22 22q0 6 2 12q16 -2 23.5 17.5t15.5 21.5q-25 39 -17 49q88 -27 150 -40q143 279 274 591q-72 197 -112 324q6 10 28.5 10t31.5 3t9 9q0 4 -2 9.5t-2 7.5q0 4 8 6 q8 4 25.5 -3t19.5 -7q6 0 9 4q-4 10 8 21.5t22 11.5q4 0 4 -2q20 -88 44 -162q16 47 47 133q8 14 16 16q14 -2 14 -20.5t4 -22.5q8 12 18.5 24.5t24.5 8.5q4 -2 5 -22q4 -6 4 -11q0 -6 -5.5 -15t-5.5 -15q0 -4 4 -11q6 -2 17 2q25 29 26 29q2 0 6.5 -2t8.5 -2t11 6t15 6 q14 -14 -2 -43q-41 -113 -129 -305q123 -326 279 -598q47 12 104 25q25 8 29 -2q2 -14 -17.5 -21.5t-13.5 -21.5l12 -2q11 -2 9 -5q20 -8 14 -36q-8 -8 -8 -15q0 -6 11 -16t7 -14q-37 -14 -67 -23q147 -227 258 -295q4 -4 4 -8q0 -12 -19 -12q-18 0 -32.5 17t-24.5 1 q8 -10 0 -25l-8 -4q-6 0 -15.5 12.5t-21.5 10.5q-2 2 -4 10t-4 8q-4 0 -6 -2q-4 -23 -8 -30q-8 -16 -29 -23q6 -18 -4 -37q-8 0 -19.5 8.5t-17.5 8.5q-8 0 -16 -7q-94 88 -226 334q-217 -20 -491 0q-59 -160 -90 -297q-39 6 -97 2q-6 -4 -8 -4q-6 0 -10 11.5t-10 15.5 q0 -2 4 26q2 16 -12 21q-4 -2 -27 -43q-16 -31 -39 -27q-2 16 -14 19q-18 2 -23 10q-29 -35 -43 -29q-6 8 -18.5 3t-14.5 1zM473 418q183 -24 365 -12q-90 188 -187 425q-61 -135 -178 -413zM634 1593q66 102 130 269q12 2 47 -60q18 6 43 35q14 -2 14 -10q0 -4 -7 -21.5 t-3 -25.5q18 -6 37 16q4 0 16 6q8 4 16 -6q-43 -76 -86 -151q-55 -98 -61 -133q-8 -10 -16 -23q0 10 -31 31q-10 4 0 78q-8 4 -53 -41q-8 12 -20.5 6t-20.5 2q-12 16 -5 28z" />
<glyph unicode="&#xe2;" horiz-adv-x="1378" d="M14 -25q74 94 195 312q-68 6 -109 14q-4 14 13.5 21.5t19.5 11.5h27q14 0 16 14q-4 4 -33 19q-23 8 -22 22q0 6 2 12q16 -2 23.5 17.5t15.5 21.5q-25 39 -17 49q88 -27 150 -40q143 279 274 591q-72 197 -112 324q6 10 28.5 10t31.5 3t9 9q0 4 -2 9.5t-2 7.5q0 4 8 6 q8 4 25.5 -3t19.5 -7q6 0 9 4q-4 10 8 21.5t22 11.5q4 0 4 -2q20 -88 44 -162q16 47 47 133q8 14 16 16q14 -2 14 -20.5t4 -22.5q8 12 18.5 24.5t24.5 8.5q4 -2 5 -22q4 -6 4 -11q0 -6 -5.5 -15t-5.5 -15q0 -4 4 -11q6 -2 17 2q25 29 26 29q2 0 6.5 -2t8.5 -2t11 6t15 6 q14 -14 -2 -43q-41 -113 -129 -305q123 -326 279 -598q47 12 104 25q25 8 29 -2q2 -14 -17.5 -21.5t-13.5 -21.5l12 -2q11 -2 9 -5q20 -8 14 -36q-8 -8 -8 -15q0 -6 11 -16t7 -14q-37 -14 -67 -23q147 -227 258 -295q4 -4 4 -8q0 -12 -19 -12q-18 0 -32.5 17t-24.5 1 q8 -10 0 -25l-8 -4q-6 0 -15.5 12.5t-21.5 10.5q-2 2 -4 10t-4 8q-4 0 -6 -2q-4 -23 -8 -30q-8 -16 -29 -23q6 -18 -4 -37q-8 0 -19.5 8.5t-17.5 8.5q-8 0 -16 -7q-94 88 -226 334q-217 -20 -491 0q-59 -160 -90 -297q-39 6 -97 2q-6 -4 -8 -4q-6 0 -10 11.5t-10 15.5 q0 -2 4 26q2 16 -12 21q-4 -2 -27 -43q-16 -31 -39 -27q-2 16 -14 19q-18 2 -23 10q-29 -35 -43 -29q-6 8 -18.5 3t-14.5 1zM380 1542q-10 0 0 14q147 131 238 310l-29 28l-10 15q14 4 31 18q8 -6 24 -4q6 6 19 -2q8 4 14 10q-10 10 -6 17v12q6 2 29 -14q-4 10 4 26 q10 4 18 -22q4 -6 10.5 -19.5t8.5 -19.5q6 6 8 6q6 0 12 -10q4 -4 19 6q4 -4 3 -11.5t11 -7.5q20 -6 14 -12q-12 -10 -37 -35q72 -131 217 -309q4 -4 5 -6q0 -2 -2 -2t-7.5 2t-7.5 2h-2q0 -4 6 -10l-2 -2q-6 2 -18 -6q-6 6 -23 6q-10 -8 -20 8l-10 4q-4 -6 2 -16 q4 -10 0 -17q0 -12 -2 -14q-2 0 -27 18q-2 2 -3 -10t-3 -12q-4 2 -6 6q-57 104 -166 283q-111 -133 -174 -295q-10 -2 -29 0q-6 2 -6 10q-12 6 -12 39q-6 10 -7 10q-8 -12 -24 -12q-10 -2 -10 4t-1 12t-8 8q-10 6 -12 -3t-12 -7q-14 4 -17 4zM473 418q183 -24 365 -12 q-90 188 -187 425q-61 -135 -178 -413z" />
<glyph unicode="&#xe3;" horiz-adv-x="1378" d="M14 -25q74 94 195 312q-68 6 -109 14q-4 14 13.5 21.5t19.5 11.5h27q14 0 16 14q-4 4 -33 19q-23 8 -22 22q0 6 2 12q16 -2 23.5 17.5t15.5 21.5q-25 39 -17 49q88 -27 150 -40q143 279 274 591q-72 197 -112 324q6 10 28.5 10t31.5 3t9 9q0 4 -2 9.5t-2 7.5q0 4 8 6 q8 4 25.5 -3t19.5 -7q6 0 9 4q-4 10 8 21.5t22 11.5q4 0 4 -2q20 -88 44 -162q16 47 47 133q8 14 16 16q14 -2 14 -20.5t4 -22.5q8 12 18.5 24.5t24.5 8.5q4 -2 5 -22q4 -6 4 -11q0 -6 -5.5 -15t-5.5 -15q0 -4 4 -11q6 -2 17 2q25 29 26 29q2 0 6.5 -2t8.5 -2t11 6t15 6 q14 -14 -2 -43q-41 -113 -129 -305q123 -326 279 -598q47 12 104 25q25 8 29 -2q2 -14 -17.5 -21.5t-13.5 -21.5l12 -2q11 -2 9 -5q20 -8 14 -36q-8 -8 -8 -15q0 -6 11 -16t7 -14q-37 -14 -67 -23q147 -227 258 -295q4 -4 4 -8q0 -12 -19 -12q-18 0 -32.5 17t-24.5 1 q8 -10 0 -25l-8 -4q-6 0 -15.5 12.5t-21.5 10.5q-2 2 -4 10t-4 8q-4 0 -6 -2q-4 -23 -8 -30q-8 -16 -29 -23q6 -18 -4 -37q-8 0 -19.5 8.5t-17.5 8.5q-8 0 -16 -7q-94 88 -226 334q-217 -20 -491 0q-59 -160 -90 -297q-39 6 -97 2q-6 -4 -8 -4q-6 0 -10 11.5t-10 15.5 q0 -2 4 26q2 16 -12 21q-4 -2 -27 -43q-16 -31 -39 -27q-2 16 -14 19q-18 2 -23 10q-29 -35 -43 -29q-6 8 -18.5 3t-14.5 1zM405 1653q70 37 218 127q12 8 22 -11q4 -8 -2 -16q-4 -8 0 -14v-6q16 0 18.5 -11.5t10.5 -27.5q47 -25 114 -51q86 33 164 92q10 6 13 4 q4 -10 4 -17q0 -6 -4.5 -13t-4.5 -9q0 -4 2.5 -6t4.5 -4l4 -4q14 0 14 -7q2 -16 16.5 -27.5t14.5 -13.5q-2 -4 -8 -10q-70 -35 -228 -127q-12 12 -12 37q-49 31 -96 47.5t-95 32.5q-59 -33 -122 -78q-4 8 -5 31q16 16 17 18l-16 1q-15 1 -15 16q4 8 17 24q-2 2 -25 9.5 t-21 13.5zM473 418q183 -24 365 -12q-90 188 -187 425q-61 -135 -178 -413z" />
<glyph unicode="&#xe4;" horiz-adv-x="1378" d="M14 -25q74 94 195 312q-68 6 -109 14q-4 14 13.5 21.5t19.5 11.5h27q14 0 16 14q-4 4 -33 19q-23 8 -22 22q0 6 2 12q16 -2 23.5 17.5t15.5 21.5q-25 39 -17 49q88 -27 150 -40q143 279 274 591q-72 197 -112 324q6 10 28.5 10t31.5 3t9 9q0 4 -2 9.5t-2 7.5q0 4 8 6 q8 4 25.5 -3t19.5 -7q6 0 9 4q-4 10 8 21.5t22 11.5q4 0 4 -2q20 -88 44 -162q16 47 47 133q8 14 16 16q14 -2 14 -20.5t4 -22.5q8 12 18.5 24.5t24.5 8.5q4 -2 5 -22q4 -6 4 -11q0 -6 -5.5 -15t-5.5 -15q0 -4 4 -11q6 -2 17 2q25 29 26 29q2 0 6.5 -2t8.5 -2t11 6t15 6 q14 -14 -2 -43q-41 -113 -129 -305q123 -326 279 -598q47 12 104 25q25 8 29 -2q2 -14 -17.5 -21.5t-13.5 -21.5l12 -2q11 -2 9 -5q20 -8 14 -36q-8 -8 -8 -15q0 -6 11 -16t7 -14q-37 -14 -67 -23q147 -227 258 -295q4 -4 4 -8q0 -12 -19 -12q-18 0 -32.5 17t-24.5 1 q8 -10 0 -25l-8 -4q-6 0 -15.5 12.5t-21.5 10.5q-2 2 -4 10t-4 8q-4 0 -6 -2q-4 -23 -8 -30q-8 -16 -29 -23q6 -18 -4 -37q-8 0 -19.5 8.5t-17.5 8.5q-8 0 -16 -7q-94 88 -226 334q-217 -20 -491 0q-59 -160 -90 -297q-39 6 -97 2q-6 -4 -8 -4q-6 0 -10 11.5t-10 15.5 q0 -2 4 26q2 16 -12 21q-4 -2 -27 -43q-16 -31 -39 -27q-2 16 -14 19q-18 2 -23 10q-29 -35 -43 -29q-6 8 -18.5 3t-14.5 1zM405 1548q10 125 0 215q53 2 54 -22v-9q-2 -6 -2 -8q0 -16 28 -16q4 49 11 53h36q25 2 25 -7t6 -15q29 -2 35 8q8 2 8 10q2 2 12 -4q2 -27 -2 -78 q-6 -57 -6 -74q0 -31 8 -45q-6 -4 -12 -4q-10 0 -25.5 9.5t-19.5 10.5t-10 25q-4 16 -19 15q-2 -2 -6 -39q-4 -25 -30 -23q0 6 -5 6q-4 0 -13 -5t-13 -5q-14 0 -17 33q-10 0 -14 -17.5t-29 -13.5zM473 418q183 -24 365 -12q-90 188 -187 425q-61 -135 -178 -413zM762 1741 q14 8 22 6q10 -4 21 -8q8 -12 17 -27.5t24 -13.5q4 6 4 37q0 23 27 20q2 -8 32 -12q16 -2 25 -19q10 0 13 16.5t28 14.5q-12 -143 -4 -213q-51 -2 -51 10q0 4 3 9.5t3 7.5q0 8 -27 8q-2 -45 -22 -45q-27 0 -29 26q0 12 -6 13q-2 0 -14.5 -12.5t-18.5 -12.5q-4 0 -7 6t-16 0 q-10 -2 -16 -8q-2 -4 -4 0q-2 18 4 113q4 66 -8 84z" />
<glyph unicode="&#xe5;" horiz-adv-x="1378" d="M14 -25q74 94 195 312q-68 6 -109 14q-4 14 13.5 21.5t19.5 11.5h27q14 0 16 14q-4 4 -33 19q-23 8 -22 22q0 6 2 12q16 -2 23.5 17.5t15.5 21.5q-25 39 -17 49q88 -27 150 -40q143 279 274 591q-72 197 -112 324q6 10 28.5 10t31.5 3t9 9q0 4 -2 9.5t-2 7.5q0 4 8 6 q8 4 25.5 -3t19.5 -7q6 0 9 4q-4 10 8 21.5t22 11.5q4 0 4 -2q20 -88 44 -162q16 47 47 133q8 14 16 16q14 -2 14 -20.5t4 -22.5q8 12 18.5 24.5t24.5 8.5q4 -2 5 -22q4 -6 4 -11q0 -6 -5.5 -15t-5.5 -15q0 -4 4 -11q6 -2 17 2q25 29 26 29q2 0 6.5 -2t8.5 -2t11 6t15 6 q14 -14 -2 -43q-41 -113 -129 -305q123 -326 279 -598q47 12 104 25q25 8 29 -2q2 -14 -17.5 -21.5t-13.5 -21.5l12 -2q11 -2 9 -5q20 -8 14 -36q-8 -8 -8 -15q0 -6 11 -16t7 -14q-37 -14 -67 -23q147 -227 258 -295q4 -4 4 -8q0 -12 -19 -12q-18 0 -32.5 17t-24.5 1 q8 -10 0 -25l-8 -4q-6 0 -15.5 12.5t-21.5 10.5q-2 2 -4 10t-4 8q-4 0 -6 -2q-4 -23 -8 -30q-8 -16 -29 -23q6 -18 -4 -37q-8 0 -19.5 8.5t-17.5 8.5q-8 0 -16 -7q-94 88 -226 334q-217 -20 -491 0q-59 -160 -90 -297q-39 6 -97 2q-6 -4 -8 -4q-6 0 -10 11.5t-10 15.5 q0 -2 4 26q2 16 -12 21q-4 -2 -27 -43q-16 -31 -39 -27q-2 16 -14 19q-18 2 -23 10q-29 -35 -43 -29q-6 8 -18.5 3t-14.5 1zM473 418q183 -24 365 -12q-90 188 -187 425q-61 -135 -178 -413zM477 1608q-4 6 0 8t0 14q0 -2 10 2q-8 8 -8 10l4 2q4 1 8.5 -1.5t6.5 -0.5 q-2 2 2 7q6 -8 14 -15q-31 133 0 236l-18 -6q-6 -2 -9 2q6 2 9 12v8q-10 0 -11 4q8 6 4 8q-8 2 -8 9q18 6 60 18q12 16 28 29q4 4 15 4q-2 -4 6 -12q12 6 10 6l1 -4q1 -4 -1 -6q-2 -4 -2 -7q47 4 92 4q47 0 88 -4l-2 4q-6 8 0 11q6 2 11.5 -4.5t9.5 -1.5q-4 4 0 12 q6 -4 18 2q-2 -2 8 -2l19 -31q18 -4 53 -14q0 2 -6 -8q-6 2 -15 -5q6 -4 12.5 -7t2.5 -9q-18 4 -19 -4q0 -2 5.5 -6t5.5 -10h-2q-2 0 -5 -2q0 -8 -2 -9l-6 2q12 -49 13 -102q0 -51 -13 -98q4 -4 6 2q10 0 0 -13q2 -2 6.5 -3t11.5 -4t5 -7q-4 -6 0 -8q2 -2 -2 -8 q-23 -23 -53 -35q-12 -27 -31 -45q4 0 -6 -6q-2 0 -4 6t-8 4q-4 -10 -9 -8q0 2 -1 6t-5 14q-6 0 -12 4q-39 -6 -80 -6t-80 6l2 -2q-4 2 -10 -2v-8q-2 -4 -9 1t-9 3q2 -8 -3 -12q-2 -4 -6 0q-4 6 -12 2l-8 4l-17 33q-39 18 -55 37zM553 1747q0 -78 20 -135q119 -33 228 4 q25 68 24 147q0 64 -18 111q-102 25 -236 6q-18 -55 -18 -133z" />
<glyph unicode="&#xe6;" horiz-adv-x="1921" d="M14 -4q94 109 226 317q-57 8 -84 15q-4 12 13 20t19 12h25q16 0 18 13q-6 6 -34 18q-20 10 -21 25q0 6 2 12q16 -2 23.5 16.5t15.5 22.5q-27 37 -16 49q55 -18 137 -39q270 465 448 887q10 10 50 20q12 -2 10 -20t2 -25q10 12 21.5 23.5t25.5 7.5q2 -2 2 -22q6 -10 0 -23 q-8 -20 -8 -22l22 -5q12 16 27 15l-6 114q29 16 63 -10q12 0 18.5 15.5t18.5 11.5q6 -2 13.5 -11.5t13.5 -9.5q4 0 8 2q6 0 11 -12t14 -8q0 14 22 20q12 -2 23 -4l-2 -139q61 -2 129 -2q373 0 571 47q35 2 37 2q10 -2 10 -14q0 -14 -14 -19q-20 -4 -23 -10q14 -4 28.5 -11.5 t14.5 -21.5l-20 -10q-8 -10 -29.5 -7t-28.5 -7q-2 -8 4.5 -10t10.5 -5q33 -8 24 -30q-4 -10 9.5 -18.5t13.5 -14.5q-8 -8 -4 -32.5t-2 -31.5q-6 0 -29 5q-295 47 -567 47q-70 0 -140 -4q-4 -254 -2 -383q166 51 371 51q94 0 211 -10q2 -4 2 -9q0 -8 -14.5 -15t-15.5 -10 t-27 -5q-14 -2 -17 -17l41 -16q25 -8 17 -31q-16 0 -20.5 -14t-12.5 -19q35 -35 20 -57q-209 29 -327 29q-115 0 -226 -25q6 -248 29 -405q88 -6 174 -6q301 0 482 59q8 2 14 2q14 0 14 -14q0 -25 -24 -60q8 -4 13 -23.5t21 -17.5q8 -23 -14 -32t-43 -17q2 -14 16.5 -15 t26.5 -1q4 -6 12.5 -10.5t8.5 -10.5q0 -4 -5 -10q-299 -25 -397 -25q-117 0 -268 23q25 -96 61 -158q-14 -18 -20 -18t-17 12q-4 20 -18 10q-16 -20 -37 -20q-14 -4 -26.5 12.5t-22.5 18.5v14q0 10 -10 8q-23 -39 -53 -37q-23 -23 -54 -14q-4 29 -18 29q-10 0 -29 -11 q0 55 2 191v211q-96 -18 -223 -19q-121 0 -270 17q-74 -158 -142 -324q-4 -4 -38.5 7.5t-45.5 6.5q-6 -2 -10 -2q-6 0 -9 11.5t-7 15.5q0 2 4 27q4 14 -8 18q-4 -2 -31 -39q-20 -29 -43 -24q0 16 -14.5 21t-18.5 11q-31 -31 -45 -24q-4 8 -17.5 3t-15.5 1zM530 444 q190 -25 369 -12q18 2 49 4q0 471 -4 682q-10 -2 -32.5 -5t-34.5 -5q-115 -213 -347 -664z" />
<glyph unicode="&#xe7;" horiz-adv-x="1294" d="M33 1192q-6 6 0 14q25 10 76 27q-4 33 -17 92q14 18 31 10q2 -6 13 -5t16 -3q29 -29 32 -29q4 20 15 25q8 -2 25.5 7t27.5 5q8 10 24 4q8 -10 7 -30q-2 -27 -2 -29h4q8 18 17 38.5t24 27.5q25 2 51 -17q-8 -12 -15 -33q227 45 478 45q197 0 391 -28q2 -6 2 -10t-8 -9.5 t-11.5 -9.5t-15.5 -4v-12q-2 -8 -2 -15q43 -12 35 -36q-16 0 -21.5 -19.5t-13.5 -23.5q29 -33 29 -58q0 -18 -27 -14q6 -47 27 -94q23 -59 14 -78q-20 -16 -33 -6q-12 41 -26 41q-6 0 -15.5 -7.5t-11.5 -7.5q-4 0 -6 4q-20 -25 -33 -22l-14 22q-8 -4 -17.5 -29.5 t-29.5 -21.5q-8 2 -9.5 16.5t-13.5 12.5l-4 10q20 117 21 203q-125 20 -302 20q-96 0 -421 -24q-33 -188 -33 -447q0 -303 43 -530q160 -39 334 -39q201 0 374 53q6 158 5 207q-4 25 -7 47q-2 23 11 25q12 2 20 -15q20 2 23 -12q2 -23 6 -29q12 -20 20 -14q-2 16 14.5 33.5 t30.5 17.5q6 0 16.5 -18.5t24.5 -16.5q16 6 15.5 22.5t9.5 18.5q20 6 22 9q13 8 13 -23q-12 -63 -17 -160q-8 -115 -12 -149q-2 -2 -33 -17q4 -4 9.5 -6t15.5 -12q-2 -14 -17.5 -19.5t-29.5 -9.5q-4 0 13 -11t17 -15q-2 -4 -12 -6q-223 -61 -463 -66q-47 -33 -65 -68 q86 0 151 11q4 -6 -1 -19.5t1 -19.5q6 6 27 4q-8 -195 10 -291q-8 -4 -20 0q-8 4 -17 8q0 2 -4 14.5t-12 10.5l-3 -23q-3 -22 -20 -24q0 -6 10.5 -8.5t8.5 -16.5q-78 4 -156 6q-92 4 -166 -4q10 35 27.5 34t23.5 17q-29 2 -30 7q0 -2 6 22q0 6 10 14q6 2 10 5q8 16 2 22 q0 4 -4 4q-2 2 4 8q109 -25 218 -10q14 61 2 127q-8 2 -76 -8q-74 -12 -103 -12t-28 10q0 31 12 31q2 0 6 -3h8q8 0 9 17q-31 2 -33 6v23v2q-6 0 -27 14q27 31 100 90q-188 8 -376 51q-14 -10 -25 -10q-8 2 -20 18q-10 -4 -19.5 -27.5t-32.5 -19.5q-8 2 -22 16.5t-29 12.5 l-6 10q4 14 8 39l-14 6q-16 6 -33 21q0 8 9.5 12t4.5 14q-14 10 -14 17q0 2 23 12q14 14 14 19q-8 10 -18.5 14t-18.5 14l11 5q10 5 10 18q0 12 -15 30q0 29 0 27q4 12 29 10q12 -8 41 -24q27 258 16 561q-4 123 -20 299q-37 -10 -41 -12q-25 -8 -29 2q-4 12 10.5 21 t14.5 15t-2 11q4 8 4 24h-25q-12 0 -10 15z" />
<glyph unicode="&#xe8;" horiz-adv-x="1280" d="M29 1139l18 12q8 12 29.5 11t27.5 9q0 6 -8 9l-8 4q-31 8 -29 26q2 12 -10 19.5t-14 13.5q4 4 4 8t-5 10.5t-5 8.5l4 8q10 2 18 2q-8 8 -16 18q6 2 12 7q43 -12 92 -19q-4 20 -14 57q31 20 53 9q2 -8 19 -23q6 2 18 18.5t29 12.5q4 -16 30.5 -20.5t26.5 -16.5 q0 -6 -2 -12q10 2 26.5 22.5t28.5 20.5q8 0 19 -6q4 2 16 11t21 9q6 0 14 -6q0 -4 10 -15.5t6 -25.5q-6 -18 -18 -59q94 -4 196 -5q414 0 582 41q35 2 39 2q8 -2 8 -16q2 -12 -12 -16q-20 -4 -25 -11q14 -4 29.5 -11t15.5 -21q-2 -6 -20 -11q-8 -10 -29.5 -8t-27.5 -6 q-2 -8 3 -10t9 -4q31 -14 27.5 -27.5t9 -23t12.5 -15.5q-8 -8 -4 -32.5t-2 -30.5q-8 2 -31 6q-338 51 -672 51q-72 0 -137 -2q-20 -150 -31 -358q160 31 345 30q109 0 225 -10q2 -4 2 -8q0 -8 -13.5 -15.5t-17.5 -13.5q-12 0 -26.5 -1t-16.5 -15q2 -2 41 -16q25 -10 19 -33 q-16 2 -21.5 -12.5t-13.5 -18.5q33 -39 22 -59q-211 31 -377 30q-92 0 -172 -10q-4 -231 15 -418l22 -2q100 -8 217 -8q354 0 545 59q8 2 17 3q14 0 14 -15q0 -27 -27 -57q8 -4 13.5 -23.5t21.5 -19.5q8 -23 -16 -31q-37 -16 -39 -18q2 -14 16 -15q25 -2 27 -2q2 -6 10 -11 t8 -9t-2 -10q-225 -41 -440 -41q-186 0 -367 30l2 -8q-10 -2 -15 -16.5t-13 -16.5q-14 -4 -21.5 13.5t-13.5 19.5q-2 -14 -6 -30.5t-19 -18.5l-12 18q-12 6 -13 21.5t-12 21.5q-8 0 -10 -8l-2 -8q-2 -20 -27 -18q-10 2 -16 -9.5t-12 -13.5q-12 4 -43 21q-4 -18 -33 -19 q-12 0 -6 19q18 57 26 90q-14 2 -84 24q-8 8 -2 15q6 6 13 12q-2 14 10 14q23 2 22 2q0 18 -4 23q2 4 2 10t-14 15.5t-12 21.5q4 12 28 4q12 -4 70 -12q33 180 37 374q-23 -2 -61 -12q-23 -8 -27 2q-4 12 9 22.5t13 16.5q0 4 -4 10l4 9q-37 10 -36 28q2 4 2 8t-9.5 7.5 t-5.5 9.5q37 16 115 41q-6 186 -35 379q-63 -6 -119 -19q-12 2 -12 6t16.5 15.5t12.5 11.5q-14 4 -29.5 9t-17.5 20zM442 1685q8 10 17 6q14 -6 16 -6q20 -20 39 -14q2 8 -5 24.5t-7 20.5q0 8 14 10q4 -12 22.5 -22.5t20.5 -12.5q35 61 47 60q53 -137 129 -266q6 -12 0 -23 q-4 -12 -16 -12q2 0 -12 6q-8 2 -15 -8q4 0 -53 41q10 -76 0 -80q-20 -6 -33 -29l-16 23q-6 31 -148 282z" />
<glyph unicode="&#xe9;" horiz-adv-x="1280" d="M29 1139l18 12q8 12 29.5 11t27.5 9q0 6 -8 9l-8 4q-31 8 -29 26q2 12 -10 19.5t-14 13.5q4 4 4 8t-5 10.5t-5 8.5l4 8q10 2 18 2q-8 8 -16 18q6 2 12 7q43 -12 92 -19q-4 20 -14 57q31 20 53 9q2 -8 19 -23q6 2 18 18.5t29 12.5q4 -16 30.5 -20.5t26.5 -16.5 q0 -6 -2 -12q10 2 26.5 22.5t28.5 20.5q8 0 19 -6q4 2 16 11t21 9q6 0 14 -6q0 -4 10 -15.5t6 -25.5q-6 -18 -18 -59q94 -4 196 -5q414 0 582 41q35 2 39 2q8 -2 8 -16q2 -12 -12 -16q-20 -4 -25 -11q14 -4 29.5 -11t15.5 -21q-2 -6 -20 -11q-8 -10 -29.5 -8t-27.5 -6 q-2 -8 3 -10t9 -4q31 -14 27.5 -27.5t9 -23t12.5 -15.5q-8 -8 -4 -32.5t-2 -30.5q-8 2 -31 6q-338 51 -672 51q-72 0 -137 -2q-20 -150 -31 -358q160 31 345 30q109 0 225 -10q2 -4 2 -8q0 -8 -13.5 -15.5t-17.5 -13.5q-12 0 -26.5 -1t-16.5 -15q2 -2 41 -16q25 -10 19 -33 q-16 2 -21.5 -12.5t-13.5 -18.5q33 -39 22 -59q-211 31 -377 30q-92 0 -172 -10q-4 -231 15 -418l22 -2q100 -8 217 -8q354 0 545 59q8 2 17 3q14 0 14 -15q0 -27 -27 -57q8 -4 13.5 -23.5t21.5 -19.5q8 -23 -16 -31q-37 -16 -39 -18q2 -14 16 -15q25 -2 27 -2q2 -6 10 -11 t8 -9t-2 -10q-225 -41 -440 -41q-186 0 -367 30l2 -8q-10 -2 -15 -16.5t-13 -16.5q-14 -4 -21.5 13.5t-13.5 19.5q-2 -14 -6 -30.5t-19 -18.5l-12 18q-12 6 -13 21.5t-12 21.5q-8 0 -10 -8l-2 -8q-2 -20 -27 -18q-10 2 -16 -9.5t-12 -13.5q-12 4 -43 21q-4 -18 -33 -19 q-12 0 -6 19q18 57 26 90q-14 2 -84 24q-8 8 -2 15q6 6 13 12q-2 14 10 14q23 2 22 2q0 18 -4 23q2 4 2 10t-14 15.5t-12 21.5q4 12 28 4q12 -4 70 -12q33 180 37 374q-23 -2 -61 -12q-23 -8 -27 2q-4 12 9 22.5t13 16.5q0 4 -4 10l4 9q-37 10 -36 28q2 4 2 8t-9.5 7.5 t-5.5 9.5q37 16 115 41q-6 186 -35 379q-63 -6 -119 -19q-12 2 -12 6t16.5 15.5t12.5 11.5q-14 4 -29.5 9t-17.5 20zM557 1454q66 102 130 269q12 2 47 -60q18 6 43 35q14 -2 14 -10q0 -4 -7 -21.5t-3 -25.5q18 -6 37 16q4 0 16 6q8 4 16 -6q-43 -76 -86 -151 q-55 -98 -61 -133q-8 -10 -16 -23q0 10 -31 31q-10 4 0 78q-8 4 -53 -41q-8 12 -20.5 6t-20.5 2q-12 16 -5 28z" />
<glyph unicode="&#xea;" horiz-adv-x="1280" d="M29 1139l18 12q8 12 29.5 11t27.5 9q0 6 -8 9l-8 4q-31 8 -29 26q2 12 -10 19.5t-14 13.5q4 4 4 8t-5 10.5t-5 8.5l4 8q10 2 18 2q-8 8 -16 18q6 2 12 7q43 -12 92 -19q-4 20 -14 57q31 20 53 9q2 -8 19 -23q6 2 18 18.5t29 12.5q4 -16 30.5 -20.5t26.5 -16.5 q0 -6 -2 -12q10 2 26.5 22.5t28.5 20.5q8 0 19 -6q4 2 16 11t21 9q6 0 14 -6q0 -4 10 -15.5t6 -25.5q-6 -18 -18 -59q94 -4 196 -5q414 0 582 41q35 2 39 2q8 -2 8 -16q2 -12 -12 -16q-20 -4 -25 -11q14 -4 29.5 -11t15.5 -21q-2 -6 -20 -11q-8 -10 -29.5 -8t-27.5 -6 q-2 -8 3 -10t9 -4q31 -14 27.5 -27.5t9 -23t12.5 -15.5q-8 -8 -4 -32.5t-2 -30.5q-8 2 -31 6q-338 51 -672 51q-72 0 -137 -2q-20 -150 -31 -358q160 31 345 30q109 0 225 -10q2 -4 2 -8q0 -8 -13.5 -15.5t-17.5 -13.5q-12 0 -26.5 -1t-16.5 -15q2 -2 41 -16q25 -10 19 -33 q-16 2 -21.5 -12.5t-13.5 -18.5q33 -39 22 -59q-211 31 -377 30q-92 0 -172 -10q-4 -231 15 -418l22 -2q100 -8 217 -8q354 0 545 59q8 2 17 3q14 0 14 -15q0 -27 -27 -57q8 -4 13.5 -23.5t21.5 -19.5q8 -23 -16 -31q-37 -16 -39 -18q2 -14 16 -15q25 -2 27 -2q2 -6 10 -11 t8 -9t-2 -10q-225 -41 -440 -41q-186 0 -367 30l2 -8q-10 -2 -15 -16.5t-13 -16.5q-14 -4 -21.5 13.5t-13.5 19.5q-2 -14 -6 -30.5t-19 -18.5l-12 18q-12 6 -13 21.5t-12 21.5q-8 0 -10 -8l-2 -8q-2 -20 -27 -18q-10 2 -16 -9.5t-12 -13.5q-12 4 -43 21q-4 -18 -33 -19 q-12 0 -6 19q18 57 26 90q-14 2 -84 24q-8 8 -2 15q6 6 13 12q-2 14 10 14q23 2 22 2q0 18 -4 23q2 4 2 10t-14 15.5t-12 21.5q4 12 28 4q12 -4 70 -12q33 180 37 374q-23 -2 -61 -12q-23 -8 -27 2q-4 12 9 22.5t13 16.5q0 4 -4 10l4 9q-37 10 -36 28q2 4 2 8t-9.5 7.5 t-5.5 9.5q37 16 115 41q-6 186 -35 379q-63 -6 -119 -19q-12 2 -12 6t16.5 15.5t12.5 11.5q-14 4 -29.5 9t-17.5 20zM372 1505q-10 0 0 14q147 131 238 310l-29 28l-10 15q14 4 31 18q8 -6 24 -4q6 6 19 -2q8 4 14 10q-10 10 -6 17v12q6 2 29 -14q-4 10 4 26q10 4 18 -22 q4 -6 10.5 -19.5t8.5 -19.5q6 6 8 6q6 0 12 -10q4 -4 19 6q4 -4 3 -11.5t11 -7.5q20 -6 14 -12q-12 -10 -37 -35q72 -131 217 -309q4 -4 5 -6q0 -2 -2 -2t-7.5 2t-7.5 2h-2q0 -4 6 -10l-2 -2q-6 2 -18 -6q-6 6 -23 6q-10 -8 -20 8l-10 4q-4 -6 2 -16q4 -10 0 -17 q0 -12 -2 -14q-2 0 -27 18q-2 2 -3 -10t-3 -12q-4 2 -6 6q-57 104 -166 283q-111 -133 -174 -295q-10 -2 -29 0q-6 2 -6 10q-12 6 -12 39q-6 10 -7 10q-8 -12 -24 -12q-10 -2 -10 4t-1 12t-8 8q-10 6 -12 -3t-12 -7q-14 4 -17 4z" />
<glyph unicode="&#xeb;" horiz-adv-x="1280" d="M29 1139l18 12q8 12 29.5 11t27.5 9q0 6 -8 9l-8 4q-31 8 -29 26q2 12 -10 19.5t-14 13.5q4 4 4 8t-5 10.5t-5 8.5l4 8q10 2 18 2q-8 8 -16 18q6 2 12 7q43 -12 92 -19q-4 20 -14 57q31 20 53 9q2 -8 19 -23q6 2 18 18.5t29 12.5q4 -16 30.5 -20.5t26.5 -16.5 q0 -6 -2 -12q10 2 26.5 22.5t28.5 20.5q8 0 19 -6q4 2 16 11t21 9q6 0 14 -6q0 -4 10 -15.5t6 -25.5q-6 -18 -18 -59q94 -4 196 -5q414 0 582 41q35 2 39 2q8 -2 8 -16q2 -12 -12 -16q-20 -4 -25 -11q14 -4 29.5 -11t15.5 -21q-2 -6 -20 -11q-8 -10 -29.5 -8t-27.5 -6 q-2 -8 3 -10t9 -4q31 -14 27.5 -27.5t9 -23t12.5 -15.5q-8 -8 -4 -32.5t-2 -30.5q-8 2 -31 6q-338 51 -672 51q-72 0 -137 -2q-20 -150 -31 -358q160 31 345 30q109 0 225 -10q2 -4 2 -8q0 -8 -13.5 -15.5t-17.5 -13.5q-12 0 -26.5 -1t-16.5 -15q2 -2 41 -16q25 -10 19 -33 q-16 2 -21.5 -12.5t-13.5 -18.5q33 -39 22 -59q-211 31 -377 30q-92 0 -172 -10q-4 -231 15 -418l22 -2q100 -8 217 -8q354 0 545 59q8 2 17 3q14 0 14 -15q0 -27 -27 -57q8 -4 13.5 -23.5t21.5 -19.5q8 -23 -16 -31q-37 -16 -39 -18q2 -14 16 -15q25 -2 27 -2q2 -6 10 -11 t8 -9t-2 -10q-225 -41 -440 -41q-186 0 -367 30l2 -8q-10 -2 -15 -16.5t-13 -16.5q-14 -4 -21.5 13.5t-13.5 19.5q-2 -14 -6 -30.5t-19 -18.5l-12 18q-12 6 -13 21.5t-12 21.5q-8 0 -10 -8l-2 -8q-2 -20 -27 -18q-10 2 -16 -9.5t-12 -13.5q-12 4 -43 21q-4 -18 -33 -19 q-12 0 -6 19q18 57 26 90q-14 2 -84 24q-8 8 -2 15q6 6 13 12q-2 14 10 14q23 2 22 2q0 18 -4 23q2 4 2 10t-14 15.5t-12 21.5q4 12 28 4q12 -4 70 -12q33 180 37 374q-23 -2 -61 -12q-23 -8 -27 2q-4 12 9 22.5t13 16.5q0 4 -4 10l4 9q-37 10 -36 28q2 4 2 8t-9.5 7.5 t-5.5 9.5q37 16 115 41q-6 186 -35 379q-63 -6 -119 -19q-12 2 -12 6t16.5 15.5t12.5 11.5q-14 4 -29.5 9t-17.5 20zM380 1450q10 125 0 215q53 2 54 -22v-9q-2 -6 -2 -8q0 -16 28 -16q4 49 11 53h36q25 2 25 -7t6 -15q29 -2 35 8q8 2 8 10q2 2 12 -4q2 -27 -2 -78 q-6 -57 -6 -74q0 -31 8 -45q-6 -4 -12 -4q-10 0 -25.5 9.5t-19.5 10.5t-10 25q-4 16 -19 15q-2 -2 -6 -39q-4 -25 -30 -23q0 6 -5 6q-4 0 -13 -5t-13 -5q-14 0 -17 33q-10 0 -14 -17.5t-29 -13.5zM737 1643q14 8 22 6q10 -4 21 -8q8 -12 17 -27.5t24 -13.5q4 6 4 37 q0 23 27 20q2 -8 32 -12q16 -2 25 -19q10 0 13 16.5t28 14.5q-12 -143 -4 -213q-51 -2 -51 10q0 4 3 9.5t3 7.5q0 8 -27 8q-2 -45 -22 -45q-27 0 -29 26q0 12 -6 13q-2 0 -14.5 -12.5t-18.5 -12.5q-4 0 -7 6t-16 0q-10 -2 -16 -8q-2 -4 -4 0q-2 18 4 113q4 66 -8 84z" />
<glyph unicode="&#xec;" horiz-adv-x="368" d="M-29 1726q8 10 17 6q14 -6 16 -6q20 -20 39 -14q2 8 -5 24.5t-7 20.5q0 8 14 10q4 -12 22.5 -22.5t20.5 -12.5q35 61 47 60q53 -137 129 -266q6 -12 0 -23q-4 -12 -16 -12q2 0 -12 6q-8 2 -15 -8q4 0 -53 41q10 -76 0 -80q-20 -6 -33 -29l-16 23q-6 31 -148 282zM41 0 q57 274 57 623q0 84 -4 172q-14 360 -49 518q14 18 29 12q4 -8 15 -7t15 -3q29 -29 33 -27q2 10 15 25q8 -2 25.5 7t27.5 5q6 6 24 2q2 -4 2 -59h5q10 29 43 65q22 2 49 -14q-86 -186 -86 -645q0 -383 63 -613l21 -73q-31 -18 -50 -6q-23 31 -47 30q-12 0 -20 -8 q-12 -18 -39 -14q-2 0 -18 22q-10 -4 -23 -32q-8 -20 -31 -19q-10 2 -24.5 16.5t-28.5 12.5z" />
<glyph unicode="&#xed;" horiz-adv-x="368" d="M41 0q57 274 57 623q0 84 -4 172q-14 360 -49 518q14 18 29 12q4 -8 15 -7t15 -3q29 -29 33 -27q2 10 15 25q8 -2 25.5 7t27.5 5q6 6 24 2q2 -4 2 -59h5q10 29 43 65q22 2 49 -14q-86 -186 -86 -645q0 -383 63 -613l21 -73q-31 -18 -50 -6q-23 31 -47 30q-12 0 -20 -8 q-12 -18 -39 -14q-2 0 -18 22q-10 -4 -23 -32q-8 -20 -31 -19q-10 2 -24.5 16.5t-28.5 12.5zM122 1519q66 102 130 269q12 2 47 -60q18 6 43 35q14 -2 14 -10q0 -4 -7 -21.5t-3 -25.5q18 -6 37 16q4 0 16 6q8 4 16 -6q-43 -76 -86 -151q-55 -98 -61 -133q-8 -10 -16 -23 q0 10 -31 31q-10 4 0 78q-8 4 -53 -41q-8 12 -20.5 6t-20.5 2q-12 16 -5 28z" />
<glyph unicode="&#xee;" horiz-adv-x="368" d="M-123 1440q-10 0 0 14q147 131 238 310l-29 28l-10 15q14 4 31 18q8 -6 24 -4q6 6 19 -2q8 4 14 10q-10 10 -6 17v12q6 2 29 -14q-4 10 4 26q10 4 18 -22q4 -6 10.5 -19.5t8.5 -19.5q6 6 8 6q6 0 12 -10q4 -4 19 6q4 -4 3 -11.5t11 -7.5q20 -6 14 -12q-12 -10 -37 -35 q72 -131 217 -309q4 -4 5 -6q0 -2 -2 -2t-7.5 2t-7.5 2h-2q0 -4 6 -10l-2 -2q-6 2 -18 -6q-6 6 -23 6q-10 -8 -20 8l-10 4q-4 -6 2 -16q4 -10 0 -17q0 -12 -2 -14q-2 0 -27 18q-2 2 -3 -10t-3 -12q-4 2 -6 6q-57 104 -166 283q-111 -133 -174 -295q-10 -2 -29 0q-6 2 -6 10 q-12 6 -12 39q-6 10 -7 10q-8 -12 -24 -12q-10 -2 -10 4t-1 12t-8 8q-10 6 -12 -3t-12 -7q-14 4 -17 4zM41 0q57 274 57 623q0 84 -4 172q-14 360 -49 518q14 18 29 12q4 -8 15 -7t15 -3q29 -29 33 -27q2 10 15 25q8 -2 25.5 7t27.5 5q6 6 24 2q2 -4 2 -59h5q10 29 43 65 q22 2 49 -14q-86 -186 -86 -645q0 -383 63 -613l21 -73q-31 -18 -50 -6q-23 31 -47 30q-12 0 -20 -8q-12 -18 -39 -14q-2 0 -18 22q-10 -4 -23 -32q-8 -20 -31 -19q-10 2 -24.5 16.5t-28.5 12.5z" />
<glyph unicode="&#xef;" horiz-adv-x="368" d="M-66 1433q10 125 0 215q53 2 54 -22v-9q-2 -6 -2 -8q0 -16 28 -16q4 49 11 53h36q25 2 25 -7t6 -15q29 -2 35 8q8 2 8 10q2 2 12 -4q2 -27 -2 -78q-6 -57 -6 -74q0 -31 8 -45q-6 -4 -12 -4q-10 0 -25.5 9.5t-19.5 10.5t-10 25q-4 16 -19 15q-2 -2 -6 -39q-4 -25 -30 -23 q0 6 -5 6q-4 0 -13 -5t-13 -5q-14 0 -17 33q-10 0 -14 -17.5t-29 -13.5zM41 0q57 274 57 623q0 84 -4 172q-14 360 -49 518q14 18 29 12q4 -8 15 -7t15 -3q29 -29 33 -27q2 10 15 25q8 -2 25.5 7t27.5 5q6 6 24 2q2 -4 2 -59h5q10 29 43 65q22 2 49 -14q-86 -186 -86 -645 q0 -383 63 -613l21 -73q-31 -18 -50 -6q-23 31 -47 30q-12 0 -20 -8q-12 -18 -39 -14q-2 0 -18 22q-10 -4 -23 -32q-8 -20 -31 -19q-10 2 -24.5 16.5t-28.5 12.5zM291 1626q14 8 22 6q10 -4 21 -8q8 -12 17 -27.5t24 -13.5q4 6 4 37q0 23 27 20q2 -8 32 -12q16 -2 25 -19 q10 0 13 16.5t28 14.5q-12 -143 -4 -213q-51 -2 -51 10q0 4 3 9.5t3 7.5q0 8 -27 8q-2 -45 -22 -45q-27 0 -29 26q0 12 -6 13q-2 0 -14.5 -12.5t-18.5 -12.5q-4 0 -7 6t-16 0q-10 -2 -16 -8q-2 -4 -4 0q-2 18 4 113q4 66 -8 84z" />
<glyph unicode="&#xf1;" horiz-adv-x="1400" d="M43 1290q-6 6 8.5 13.5t22.5 5.5q39 0 63 -23q0 -14 13 -35l16 29q10 18 27 16q4 8 16 21q20 -2 55 -41q4 4 5 24.5t12 20.5q4 0 12 -4l10 -14q2 -2 14.5 3t24.5 5q16 -2 10 -17q-39 -68 -59 -233q18 10 18 16q-2 16 21 39q20 -18 28 -18q6 0 7 6q0 10 -9 26q-4 12 11 17 q16 4 22 -4q59 -303 258 -527q193 -215 449 -290q10 143 10 299q0 381 -59 702q59 8 63 -17.5t21 -25.5q14 0 20 12q14 25 21 25q8 2 10 -23.5t26 -29.5q2 18 4.5 34.5t30.5 12.5q12 29 31 20q4 -4 9 -21.5t18 -13.5q25 29 51 29q6 0 6 -6q-74 -283 -74 -793q0 -373 60 -544 q0 -2 -7.5 -7.5t-5.5 -11.5q6 -8 2 -14t-10 -4q-55 -6 -63 22v25q-2 14 -13 10q-18 -8 -23 -24.5t-9 -16.5t-19 8q-16 -4 -19 -17t-5 -15q-14 2 -23 14q-14 20 -18 25q-2 -4 0 -27q2 -18 -11 -19q-6 0 -16 5l-10 16q-2 4 -15.5 -2t-25.5 -4q-14 0 -8 14l4 10q14 66 24 140 q-272 117 -483 327q-201 203 -313 457q-2 -68 -3 -141q0 -457 78 -715q10 -37 6 -51q-6 -10 -14 -23q-6 -8 -35 4q-14 20 -16 21q-4 0 -9 -7.5t-11.5 -15.5t-18.5 -4q-4 4 -20 37q-14 23 -21 23q-4 0 -6 -13q-4 -23 -31.5 -34t-34 -25t-10.5 -14q-6 0 -13 12t-9 14 q-6 -4 -17 -4q-35 0 -26 33q37 252 36 569q0 422 -61 727zM405 1506q70 37 218 127q12 8 22 -11q4 -8 -2 -16q-4 -8 0 -14v-6q16 0 18.5 -11.5t10.5 -27.5q47 -25 114 -51q86 33 164 92q10 6 13 4q4 -10 4 -17q0 -6 -4.5 -13t-4.5 -9q0 -4 2.5 -6t4.5 -4l4 -4q14 0 14 -7 q2 -16 16.5 -27.5t14.5 -13.5q-2 -4 -8 -10q-70 -35 -228 -127q-12 12 -12 37q-49 31 -96 47.5t-95 32.5q-59 -33 -122 -78q-4 8 -5 31q16 16 17 18l-16 1q-15 1 -15 16q4 8 17 24q-2 2 -25 9.5t-21 13.5z" />
<glyph unicode="&#xf2;" horiz-adv-x="1458" d="M37 201q0 2 9 6t9 18q0 12 -6 31q2 10 14.5 10t16.5 2q-25 25 -23 33q2 2 17 2q4 2 8 2t12 -4t15 -4q4 0 8 2q-6 10 -6 16t8 4h6q27 -31 47 -45q-47 203 -47 416q0 215 49 381q-31 -6 -61 -16q-23 -8 -27 2q-4 14 10.5 23.5t14.5 15.5q0 4 -2 10q2 10 4 22q-12 0 -24.5 1 t-10.5 14q18 14 18 20q0 4 -19.5 11.5t-17.5 23.5q90 37 205 64q49 68 98 98q6 -8 11 -8q2 0 13 12t26 8q6 -2 2 -18.5t18 -22.5q27 23 35 19v-15q4 -8 -2 -21.5t-6 -17.5q131 16 272 17q143 0 291 -17v2q8 0 -4 16.5t-12 18.5q0 12 12 13q18 0 24 -17q35 -12 39 0 q-12 18 -2 39q4 10 11 10q4 0 16 -9t18 -9q10 0 21 14q4 4 12 0l14 -10q37 -49 64 -102q96 -20 180 -50q4 -14 -4 -18q-16 -6 -18 -10q2 0 -25 2q-16 2 -20 -10q6 -8 32 -21q20 -12 21 -25q0 -6 -4 -14q-18 4 -39 0q-23 -4 -23 -12q0 -10 21 -23q4 -10 12 -32q0 -4 -11 -6.5 t-11 -4.5q4 -31 6 -30q-4 0 -8.5 3t-10.5 6t-10 3q37 -162 37 -338q0 -182 -39 -350q8 0 20 8q16 0 17 -10q0 -4 -17 -29q-4 -14 23 -18q6 4 12 4q4 0 13.5 -7.5t15.5 -9.5q16 -4 16 -10q0 -4 -6 -10t-6 -12t7 -11.5t3 -15.5q-6 -6 -10 -14q-68 -68 -178 -121 q-47 -90 -103 -152q-8 2 -15 -8t-13 -10t-13.5 17.5t-23.5 15.5q-6 -10 -11 -20.5t-18 -8.5q-4 2 -4 14q-18 10 -18 23q0 6 3 14t3 12t-2 7q-20 -4 -35 -3q-14 6 -10 19q-123 -25 -254 -25q-119 0 -234 21l6 -6q-4 -12 -20 -6q-14 4 -16 0q-6 -20 -2 -31q-6 -14 -13 -15 q4 0 -26 25q-18 14 -25 6q10 -20 -4 -41q-6 -10 -12 -10q-2 0 -11.5 11.5t-19.5 11.5q-8 0 -21 -7q-8 -4 -26 15q-33 63 -53 112q-135 57 -195 129q-8 10 -8 15zM305 662q0 -272 68 -469q162 -41 348 -41q217 0 375 57q82 225 82 502q-1 223 -60 379q-182 43 -411 43 q-172 0 -340 -25q-61 -182 -62 -446zM577 1706q8 10 17 6q14 -6 16 -6q20 -20 39 -14q2 8 -5 24.5t-7 20.5q0 8 14 10q4 -12 22.5 -22.5t20.5 -12.5q35 61 47 60q53 -137 129 -266q6 -12 0 -23q-4 -12 -16 -12q2 0 -12 6q-8 2 -15 -8q4 0 -53 41q10 -76 0 -80 q-20 -6 -33 -29l-16 23q-6 31 -148 282z" />
<glyph unicode="&#xf3;" horiz-adv-x="1458" d="M37 201q0 2 9 6t9 18q0 12 -6 31q2 10 14.5 10t16.5 2q-25 25 -23 33q2 2 17 2q4 2 8 2t12 -4t15 -4q4 0 8 2q-6 10 -6 16t8 4h6q27 -31 47 -45q-47 203 -47 416q0 215 49 381q-31 -6 -61 -16q-23 -8 -27 2q-4 14 10.5 23.5t14.5 15.5q0 4 -2 10q2 10 4 22q-12 0 -24.5 1 t-10.5 14q18 14 18 20q0 4 -19.5 11.5t-17.5 23.5q90 37 205 64q49 68 98 98q6 -8 11 -8q2 0 13 12t26 8q6 -2 2 -18.5t18 -22.5q27 23 35 19v-15q4 -8 -2 -21.5t-6 -17.5q131 16 272 17q143 0 291 -17v2q8 0 -4 16.5t-12 18.5q0 12 12 13q18 0 24 -17q35 -12 39 0 q-12 18 -2 39q4 10 11 10q4 0 16 -9t18 -9q10 0 21 14q4 4 12 0l14 -10q37 -49 64 -102q96 -20 180 -50q4 -14 -4 -18q-16 -6 -18 -10q2 0 -25 2q-16 2 -20 -10q6 -8 32 -21q20 -12 21 -25q0 -6 -4 -14q-18 4 -39 0q-23 -4 -23 -12q0 -10 21 -23q4 -10 12 -32q0 -4 -11 -6.5 t-11 -4.5q4 -31 6 -30q-4 0 -8.5 3t-10.5 6t-10 3q37 -162 37 -338q0 -182 -39 -350q8 0 20 8q16 0 17 -10q0 -4 -17 -29q-4 -14 23 -18q6 4 12 4q4 0 13.5 -7.5t15.5 -9.5q16 -4 16 -10q0 -4 -6 -10t-6 -12t7 -11.5t3 -15.5q-6 -6 -10 -14q-68 -68 -178 -121 q-47 -90 -103 -152q-8 2 -15 -8t-13 -10t-13.5 17.5t-23.5 15.5q-6 -10 -11 -20.5t-18 -8.5q-4 2 -4 14q-18 10 -18 23q0 6 3 14t3 12t-2 7q-20 -4 -35 -3q-14 6 -10 19q-123 -25 -254 -25q-119 0 -234 21l6 -6q-4 -12 -20 -6q-14 4 -16 0q-6 -20 -2 -31q-6 -14 -13 -15 q4 0 -26 25q-18 14 -25 6q10 -20 -4 -41q-6 -10 -12 -10q-2 0 -11.5 11.5t-19.5 11.5q-8 0 -21 -7q-8 -4 -26 15q-33 63 -53 112q-135 57 -195 129q-8 10 -8 15zM305 662q0 -272 68 -469q162 -41 348 -41q217 0 375 57q82 225 82 502q-1 223 -60 379q-182 43 -411 43 q-172 0 -340 -25q-61 -182 -62 -446zM684 1507q66 102 130 269q12 2 47 -60q18 6 43 35q14 -2 14 -10q0 -4 -7 -21.5t-3 -25.5q18 -6 37 16q4 0 16 6q8 4 16 -6q-43 -76 -86 -151q-55 -98 -61 -133q-8 -10 -16 -23q0 10 -31 31q-10 4 0 78q-8 4 -53 -41q-8 12 -20.5 6 t-20.5 2q-12 16 -5 28z" />
<glyph unicode="&#xf4;" horiz-adv-x="1458" d="M37 201q0 2 9 6t9 18q0 12 -6 31q2 10 14.5 10t16.5 2q-25 25 -23 33q2 2 17 2q4 2 8 2t12 -4t15 -4q4 0 8 2q-6 10 -6 16t8 4h6q27 -31 47 -45q-47 203 -47 416q0 215 49 381q-31 -6 -61 -16q-23 -8 -27 2q-4 14 10.5 23.5t14.5 15.5q0 4 -2 10q2 10 4 22q-12 0 -24.5 1 t-10.5 14q18 14 18 20q0 4 -19.5 11.5t-17.5 23.5q90 37 205 64q49 68 98 98q6 -8 11 -8q2 0 13 12t26 8q6 -2 2 -18.5t18 -22.5q27 23 35 19v-15q4 -8 -2 -21.5t-6 -17.5q131 16 272 17q143 0 291 -17v2q8 0 -4 16.5t-12 18.5q0 12 12 13q18 0 24 -17q35 -12 39 0 q-12 18 -2 39q4 10 11 10q4 0 16 -9t18 -9q10 0 21 14q4 4 12 0l14 -10q37 -49 64 -102q96 -20 180 -50q4 -14 -4 -18q-16 -6 -18 -10q2 0 -25 2q-16 2 -20 -10q6 -8 32 -21q20 -12 21 -25q0 -6 -4 -14q-18 4 -39 0q-23 -4 -23 -12q0 -10 21 -23q4 -10 12 -32q0 -4 -11 -6.5 t-11 -4.5q4 -31 6 -30q-4 0 -8.5 3t-10.5 6t-10 3q37 -162 37 -338q0 -182 -39 -350q8 0 20 8q16 0 17 -10q0 -4 -17 -29q-4 -14 23 -18q6 4 12 4q4 0 13.5 -7.5t15.5 -9.5q16 -4 16 -10q0 -4 -6 -10t-6 -12t7 -11.5t3 -15.5q-6 -6 -10 -14q-68 -68 -178 -121 q-47 -90 -103 -152q-8 2 -15 -8t-13 -10t-13.5 17.5t-23.5 15.5q-6 -10 -11 -20.5t-18 -8.5q-4 2 -4 14q-18 10 -18 23q0 6 3 14t3 12t-2 7q-20 -4 -35 -3q-14 6 -10 19q-123 -25 -254 -25q-119 0 -234 21l6 -6q-4 -12 -20 -6q-14 4 -16 0q-6 -20 -2 -31q-6 -14 -13 -15 q4 0 -26 25q-18 14 -25 6q10 -20 -4 -41q-6 -10 -12 -10q-2 0 -11.5 11.5t-19.5 11.5q-8 0 -21 -7q-8 -4 -26 15q-33 63 -53 112q-135 57 -195 129q-8 10 -8 15zM305 662q0 -272 68 -469q162 -41 348 -41q217 0 375 57q82 225 82 502q-1 223 -60 379q-182 43 -411 43 q-172 0 -340 -25q-61 -182 -62 -446zM454 1501q-10 0 0 14q147 131 238 310l-29 28l-10 15q14 4 31 18q8 -6 24 -4q6 6 19 -2q8 4 14 10q-10 10 -6 17v12q6 2 29 -14q-4 10 4 26q10 4 18 -22q4 -6 10.5 -19.5t8.5 -19.5q6 6 8 6q6 0 12 -10q4 -4 19 6q4 -4 3 -11.5t11 -7.5 q20 -6 14 -12q-12 -10 -37 -35q72 -131 217 -309q4 -4 5 -6q0 -2 -2 -2t-7.5 2t-7.5 2h-2q0 -4 6 -10l-2 -2q-6 2 -18 -6q-6 6 -23 6q-10 -8 -20 8l-10 4q-4 -6 2 -16q4 -10 0 -17q0 -12 -2 -14q-2 0 -27 18q-2 2 -3 -10t-3 -12q-4 2 -6 6q-57 104 -166 283 q-111 -133 -174 -295q-10 -2 -29 0q-6 2 -6 10q-12 6 -12 39q-6 10 -7 10q-8 -12 -24 -12q-10 -2 -10 4t-1 12t-8 8q-10 6 -12 -3t-12 -7q-14 4 -17 4z" />
<glyph unicode="&#xf5;" horiz-adv-x="1458" d="M37 201q0 2 9 6t9 18q0 12 -6 31q2 10 14.5 10t16.5 2q-25 25 -23 33q2 2 17 2q4 2 8 2t12 -4t15 -4q4 0 8 2q-6 10 -6 16t8 4h6q27 -31 47 -45q-47 203 -47 416q0 215 49 381q-31 -6 -61 -16q-23 -8 -27 2q-4 14 10.5 23.5t14.5 15.5q0 4 -2 10q2 10 4 22q-12 0 -24.5 1 t-10.5 14q18 14 18 20q0 4 -19.5 11.5t-17.5 23.5q90 37 205 64q49 68 98 98q6 -8 11 -8q2 0 13 12t26 8q6 -2 2 -18.5t18 -22.5q27 23 35 19v-15q4 -8 -2 -21.5t-6 -17.5q131 16 272 17q143 0 291 -17v2q8 0 -4 16.5t-12 18.5q0 12 12 13q18 0 24 -17q35 -12 39 0 q-12 18 -2 39q4 10 11 10q4 0 16 -9t18 -9q10 0 21 14q4 4 12 0l14 -10q37 -49 64 -102q96 -20 180 -50q4 -14 -4 -18q-16 -6 -18 -10q2 0 -25 2q-16 2 -20 -10q6 -8 32 -21q20 -12 21 -25q0 -6 -4 -14q-18 4 -39 0q-23 -4 -23 -12q0 -10 21 -23q4 -10 12 -32q0 -4 -11 -6.5 t-11 -4.5q4 -31 6 -30q-4 0 -8.5 3t-10.5 6t-10 3q37 -162 37 -338q0 -182 -39 -350q8 0 20 8q16 0 17 -10q0 -4 -17 -29q-4 -14 23 -18q6 4 12 4q4 0 13.5 -7.5t15.5 -9.5q16 -4 16 -10q0 -4 -6 -10t-6 -12t7 -11.5t3 -15.5q-6 -6 -10 -14q-68 -68 -178 -121 q-47 -90 -103 -152q-8 2 -15 -8t-13 -10t-13.5 17.5t-23.5 15.5q-6 -10 -11 -20.5t-18 -8.5q-4 2 -4 14q-18 10 -18 23q0 6 3 14t3 12t-2 7q-20 -4 -35 -3q-14 6 -10 19q-123 -25 -254 -25q-119 0 -234 21l6 -6q-4 -12 -20 -6q-14 4 -16 0q-6 -20 -2 -31q-6 -14 -13 -15 q4 0 -26 25q-18 14 -25 6q10 -20 -4 -41q-6 -10 -12 -10q-2 0 -11.5 11.5t-19.5 11.5q-8 0 -21 -7q-8 -4 -26 15q-33 63 -53 112q-135 57 -195 129q-8 10 -8 15zM305 662q0 -272 68 -469q162 -41 348 -41q217 0 375 57q82 225 82 502q-1 223 -60 379q-182 43 -411 43 q-172 0 -340 -25q-61 -182 -62 -446zM438 1587q70 37 218 127q12 8 22 -11q4 -8 -2 -16q-4 -8 0 -14v-6q16 0 18.5 -11.5t10.5 -27.5q47 -25 114 -51q86 33 164 92q10 6 13 4q4 -10 4 -17q0 -6 -4.5 -13t-4.5 -9q0 -4 2.5 -6t4.5 -4l4 -4q14 0 14 -7q2 -16 16.5 -27.5 t14.5 -13.5q-2 -4 -8 -10q-70 -35 -228 -127q-12 12 -12 37q-49 31 -96 47.5t-95 32.5q-59 -33 -122 -78q-4 8 -5 31q16 16 17 18l-16 1q-15 1 -15 16q4 8 17 24q-2 2 -25 9.5t-21 13.5z" />
</font>
</defs>
</svg>
